%TF.GenerationSoftware,KiCad,Pcbnew,(6.0.2)*%
%TF.CreationDate,2022-05-15T12:29:41+01:00*%
%TF.ProjectId,led-tester,6c65642d-7465-4737-9465-722e6b696361,rev?*%
%TF.SameCoordinates,Original*%
%TF.FileFunction,Copper,L2,Bot*%
%TF.FilePolarity,Positive*%
%FSLAX46Y46*%
G04 Gerber Fmt 4.6, Leading zero omitted, Abs format (unit mm)*
G04 Created by KiCad (PCBNEW (6.0.2)) date 2022-05-15 12:29:41*
%MOMM*%
%LPD*%
G01*
G04 APERTURE LIST*
G04 Aperture macros list*
%AMRoundRect*
0 Rectangle with rounded corners*
0 $1 Rounding radius*
0 $2 $3 $4 $5 $6 $7 $8 $9 X,Y pos of 4 corners*
0 Add a 4 corners polygon primitive as box body*
4,1,4,$2,$3,$4,$5,$6,$7,$8,$9,$2,$3,0*
0 Add four circle primitives for the rounded corners*
1,1,$1+$1,$2,$3*
1,1,$1+$1,$4,$5*
1,1,$1+$1,$6,$7*
1,1,$1+$1,$8,$9*
0 Add four rect primitives between the rounded corners*
20,1,$1+$1,$2,$3,$4,$5,0*
20,1,$1+$1,$4,$5,$6,$7,0*
20,1,$1+$1,$6,$7,$8,$9,0*
20,1,$1+$1,$8,$9,$2,$3,0*%
G04 Aperture macros list end*
%TA.AperFunction,ComponentPad*%
%ADD10C,2.000000*%
%TD*%
%TA.AperFunction,ComponentPad*%
%ADD11C,1.450000*%
%TD*%
%TA.AperFunction,ComponentPad*%
%ADD12O,1.200000X1.900000*%
%TD*%
%TA.AperFunction,ComponentPad*%
%ADD13R,1.700000X1.700000*%
%TD*%
%TA.AperFunction,ComponentPad*%
%ADD14O,1.700000X1.700000*%
%TD*%
%TA.AperFunction,ComponentPad*%
%ADD15O,1.200000X2.000000*%
%TD*%
%TA.AperFunction,ComponentPad*%
%ADD16O,1.300000X1.100000*%
%TD*%
%TA.AperFunction,ComponentPad*%
%ADD17RoundRect,0.250000X-0.350000X-0.625000X0.350000X-0.625000X0.350000X0.625000X-0.350000X0.625000X0*%
%TD*%
%TA.AperFunction,ComponentPad*%
%ADD18O,1.200000X1.750000*%
%TD*%
%TA.AperFunction,ViaPad*%
%ADD19C,0.600000*%
%TD*%
%TA.AperFunction,Conductor*%
%ADD20C,0.500000*%
%TD*%
G04 APERTURE END LIST*
D10*
%TO.P,SW2,1,1*%
%TO.N,LED-*%
X102750000Y-83750000D03*
X102750000Y-90250000D03*
%TO.P,SW2,2,2*%
%TO.N,Net-(R1-Pad1)*%
X107250000Y-90250000D03*
X107250000Y-83750000D03*
%TD*%
D11*
%TO.P,J1,6,Shield*%
%TO.N,unconnected-(J1-Pad6)*%
X127500000Y-54162500D03*
D12*
X128500000Y-51462500D03*
D11*
X122500000Y-54162500D03*
D12*
X121500000Y-51462500D03*
%TD*%
D10*
%TO.P,SW3,1,1*%
%TO.N,LED-*%
X110750000Y-83750000D03*
X110750000Y-90250000D03*
%TO.P,SW3,2,2*%
%TO.N,Net-(R2-Pad1)*%
X115250000Y-83750000D03*
X115250000Y-90250000D03*
%TD*%
D13*
%TO.P,J4,1,Pin_1*%
%TO.N,Net-(J4-Pad1)*%
X119950000Y-64710000D03*
D14*
%TO.P,J4,2,Pin_2*%
%TO.N,Net-(J4-Pad10)*%
X119950000Y-67250000D03*
%TO.P,J4,3,Pin_3*%
%TO.N,Net-(J4-Pad1)*%
X122490000Y-64710000D03*
%TO.P,J4,4,Pin_4*%
%TO.N,Net-(J4-Pad10)*%
X122490000Y-67250000D03*
%TO.P,J4,5,Pin_5*%
%TO.N,Net-(J4-Pad1)*%
X125030000Y-64710000D03*
%TO.P,J4,6,Pin_6*%
%TO.N,Net-(J4-Pad10)*%
X125030000Y-67250000D03*
%TO.P,J4,7,Pin_7*%
%TO.N,Net-(J4-Pad1)*%
X127570000Y-64710000D03*
%TO.P,J4,8,Pin_8*%
%TO.N,Net-(J4-Pad10)*%
X127570000Y-67250000D03*
%TO.P,J4,9,Pin_9*%
%TO.N,Net-(J4-Pad1)*%
X130110000Y-64710000D03*
%TO.P,J4,10,Pin_10*%
%TO.N,Net-(J4-Pad10)*%
X130110000Y-67250000D03*
%TD*%
D10*
%TO.P,SW5,1,1*%
%TO.N,LED-*%
X126750000Y-83750000D03*
X126750000Y-90250000D03*
%TO.P,SW5,2,2*%
%TO.N,Net-(SW5-Pad2)*%
X131250000Y-83750000D03*
X131250000Y-90250000D03*
%TD*%
%TO.P,SW4,1,1*%
%TO.N,LED-*%
X118750000Y-90250000D03*
X118750000Y-83750000D03*
%TO.P,SW4,2,2*%
%TO.N,Net-(R3-Pad1)*%
X123250000Y-90250000D03*
X123250000Y-83750000D03*
%TD*%
D15*
%TO.P,SW1,*%
%TO.N,*%
X129100000Y-75960000D03*
X120900000Y-75960000D03*
D16*
%TO.P,SW1,1,A*%
%TO.N,Net-(J4-Pad10)*%
X123000000Y-74710000D03*
%TO.P,SW1,2,B*%
%TO.N,LED+*%
X125000000Y-74710000D03*
%TO.P,SW1,3,C*%
%TO.N,Net-(J4-Pad1)*%
X127000000Y-74710000D03*
%TO.P,SW1,4,A*%
X123000000Y-77210000D03*
%TO.P,SW1,5,B*%
%TO.N,LED-*%
X125000000Y-77210000D03*
%TO.P,SW1,6,C*%
%TO.N,Net-(J4-Pad10)*%
X127000000Y-77210000D03*
%TD*%
D10*
%TO.P,SW6,1,1*%
%TO.N,LED-*%
X134750000Y-83750000D03*
X134750000Y-90250000D03*
%TO.P,SW6,2,2*%
%TO.N,Net-(SW6-Pad2)*%
X139250000Y-83750000D03*
X139250000Y-90250000D03*
%TD*%
%TO.P,SW7,1,1*%
%TO.N,LED-*%
X142750000Y-90250000D03*
X142750000Y-83750000D03*
%TO.P,SW7,2,2*%
%TO.N,Net-(SW7-Pad2)*%
X147250000Y-90250000D03*
X147250000Y-83750000D03*
%TD*%
D17*
%TO.P,J3,1,Pin_1*%
%TO.N,+5V*%
X137000000Y-65450000D03*
D18*
%TO.P,J3,2,Pin_2*%
%TO.N,Net-(J3-Pad2)*%
X139000000Y-65450000D03*
%TO.P,J3,3,Pin_3*%
%TO.N,GND*%
X141000000Y-65450000D03*
%TD*%
D17*
%TO.P,J2,1,Pin_1*%
%TO.N,+5V*%
X110000000Y-65450000D03*
D18*
%TO.P,J2,2,Pin_2*%
%TO.N,GND*%
X112000000Y-65450000D03*
%TD*%
D19*
%TO.N,GND*%
X121000000Y-96825000D03*
X123000000Y-96825000D03*
X125000000Y-96825000D03*
X127000000Y-96825000D03*
X129000000Y-96825000D03*
X117275000Y-73650000D03*
X133350000Y-72000000D03*
X133150000Y-76000000D03*
X114275000Y-73910000D03*
X123700000Y-55310000D03*
X123700000Y-53010000D03*
X114375000Y-79110000D03*
%TD*%
D20*
%TO.N,Net-(J4-Pad1)*%
X131500000Y-65000000D02*
X131500000Y-68000000D01*
X130110000Y-64710000D02*
X131210000Y-64710000D01*
X131500000Y-68000000D02*
X130750000Y-68750000D01*
X130750000Y-68750000D02*
X128500000Y-68750000D01*
X128500000Y-68750000D02*
X127000000Y-70250000D01*
X127000000Y-70250000D02*
X127000000Y-74710000D01*
X131210000Y-64710000D02*
X131500000Y-65000000D01*
%TO.N,Net-(J4-Pad10)*%
X126500000Y-76000000D02*
X127000000Y-76500000D01*
X123000000Y-74710000D02*
X123000000Y-75500000D01*
X123500000Y-76000000D02*
X126500000Y-76000000D01*
X123000000Y-70250000D02*
X123000000Y-74710000D01*
X119950000Y-68450000D02*
X120250000Y-68750000D01*
X121500000Y-68750000D02*
X123000000Y-70250000D01*
X127000000Y-76500000D02*
X127000000Y-77210000D01*
X120250000Y-68750000D02*
X121500000Y-68750000D01*
X119950000Y-67250000D02*
X119950000Y-68450000D01*
X123000000Y-75500000D02*
X123500000Y-76000000D01*
%TD*%
%TA.AperFunction,Conductor*%
%TO.N,GND*%
G36*
X120429971Y-50528002D02*
G01*
X120476464Y-50581658D01*
X120486568Y-50651932D01*
X120478716Y-50681098D01*
X120469199Y-50704714D01*
X120432314Y-50796237D01*
X120391772Y-51003837D01*
X120391500Y-51009399D01*
X120391500Y-51865346D01*
X120406548Y-52023066D01*
X120466092Y-52226034D01*
X120468836Y-52231361D01*
X120468836Y-52231362D01*
X120541052Y-52371577D01*
X120562942Y-52414080D01*
X120693604Y-52580420D01*
X120698135Y-52584352D01*
X120698138Y-52584355D01*
X120784058Y-52658912D01*
X120853363Y-52719052D01*
X120858549Y-52722052D01*
X120858553Y-52722055D01*
X121020665Y-52815839D01*
X121036454Y-52824973D01*
X121236271Y-52894361D01*
X121242206Y-52895222D01*
X121242208Y-52895222D01*
X121439664Y-52923852D01*
X121439667Y-52923852D01*
X121445604Y-52924713D01*
X121656899Y-52914933D01*
X121733347Y-52896509D01*
X121804258Y-52899994D01*
X121862028Y-52941263D01*
X121888315Y-53007214D01*
X121874774Y-53076907D01*
X121835139Y-53122215D01*
X121830094Y-53125748D01*
X121704093Y-53213975D01*
X121551475Y-53366593D01*
X121427677Y-53543394D01*
X121425354Y-53548376D01*
X121425351Y-53548381D01*
X121381888Y-53641588D01*
X121336461Y-53739007D01*
X121280599Y-53947487D01*
X121261788Y-54162500D01*
X121280599Y-54377513D01*
X121336461Y-54585993D01*
X121338783Y-54590974D01*
X121338784Y-54590975D01*
X121425351Y-54776619D01*
X121425354Y-54776624D01*
X121427677Y-54781606D01*
X121430834Y-54786114D01*
X121543343Y-54946793D01*
X121551475Y-54958407D01*
X121704093Y-55111025D01*
X121880894Y-55234823D01*
X121885876Y-55237146D01*
X121885881Y-55237149D01*
X122071525Y-55323716D01*
X122076507Y-55326039D01*
X122081815Y-55327461D01*
X122081817Y-55327462D01*
X122279672Y-55380477D01*
X122279674Y-55380477D01*
X122284987Y-55381901D01*
X122500000Y-55400712D01*
X122715013Y-55381901D01*
X122720326Y-55380477D01*
X122720328Y-55380477D01*
X122918183Y-55327462D01*
X122918185Y-55327461D01*
X122923493Y-55326039D01*
X122928475Y-55323716D01*
X123114119Y-55237149D01*
X123114124Y-55237146D01*
X123119106Y-55234823D01*
X123295907Y-55111025D01*
X123448525Y-54958407D01*
X123456658Y-54946793D01*
X123569166Y-54786114D01*
X123572323Y-54781606D01*
X123574646Y-54776624D01*
X123574649Y-54776619D01*
X123661216Y-54590975D01*
X123661217Y-54590974D01*
X123663539Y-54585993D01*
X123719401Y-54377513D01*
X123738212Y-54162500D01*
X123719401Y-53947487D01*
X123663539Y-53739007D01*
X123618112Y-53641588D01*
X123574649Y-53548381D01*
X123574646Y-53548376D01*
X123572323Y-53543394D01*
X123448525Y-53366593D01*
X123295907Y-53213975D01*
X123119106Y-53090177D01*
X123114124Y-53087854D01*
X123114119Y-53087851D01*
X122928475Y-53001284D01*
X122928474Y-53001283D01*
X122923493Y-52998961D01*
X122918185Y-52997539D01*
X122918183Y-52997538D01*
X122720328Y-52944523D01*
X122720326Y-52944523D01*
X122715013Y-52943099D01*
X122500000Y-52924288D01*
X122284987Y-52943099D01*
X122279674Y-52944523D01*
X122279672Y-52944523D01*
X122219216Y-52960722D01*
X122148239Y-52959032D01*
X122089444Y-52919238D01*
X122061496Y-52853973D01*
X122073270Y-52783960D01*
X122113705Y-52736245D01*
X122133710Y-52722055D01*
X122227611Y-52655446D01*
X122373881Y-52502650D01*
X122488620Y-52324952D01*
X122530801Y-52220286D01*
X122565442Y-52134332D01*
X122565443Y-52134329D01*
X122567686Y-52128763D01*
X122608228Y-51921163D01*
X122608500Y-51915601D01*
X122608500Y-51059654D01*
X122593452Y-50901934D01*
X122533908Y-50698966D01*
X122530160Y-50691688D01*
X122529953Y-50690610D01*
X122528936Y-50688068D01*
X122529426Y-50687872D01*
X122516754Y-50621968D01*
X122543169Y-50556069D01*
X122601019Y-50514912D01*
X122642178Y-50508000D01*
X127361850Y-50508000D01*
X127429971Y-50528002D01*
X127476464Y-50581658D01*
X127486568Y-50651932D01*
X127478716Y-50681098D01*
X127469199Y-50704714D01*
X127432314Y-50796237D01*
X127391772Y-51003837D01*
X127391500Y-51009399D01*
X127391500Y-51865346D01*
X127406548Y-52023066D01*
X127466092Y-52226034D01*
X127468836Y-52231361D01*
X127468836Y-52231362D01*
X127541052Y-52371577D01*
X127562942Y-52414080D01*
X127693604Y-52580420D01*
X127698135Y-52584352D01*
X127698138Y-52584355D01*
X127784058Y-52658912D01*
X127853363Y-52719052D01*
X127864182Y-52725311D01*
X127868508Y-52727814D01*
X127917455Y-52779241D01*
X127930828Y-52848967D01*
X127904381Y-52914854D01*
X127846511Y-52955983D01*
X127772797Y-52958582D01*
X127720335Y-52944524D01*
X127720324Y-52944522D01*
X127715013Y-52943099D01*
X127500000Y-52924288D01*
X127284987Y-52943099D01*
X127279674Y-52944523D01*
X127279672Y-52944523D01*
X127081817Y-52997538D01*
X127081815Y-52997539D01*
X127076507Y-52998961D01*
X127071526Y-53001283D01*
X127071525Y-53001284D01*
X126885881Y-53087851D01*
X126885876Y-53087854D01*
X126880894Y-53090177D01*
X126704093Y-53213975D01*
X126551475Y-53366593D01*
X126427677Y-53543394D01*
X126425354Y-53548376D01*
X126425351Y-53548381D01*
X126381888Y-53641588D01*
X126336461Y-53739007D01*
X126280599Y-53947487D01*
X126261788Y-54162500D01*
X126280599Y-54377513D01*
X126336461Y-54585993D01*
X126338783Y-54590974D01*
X126338784Y-54590975D01*
X126425351Y-54776619D01*
X126425354Y-54776624D01*
X126427677Y-54781606D01*
X126430834Y-54786114D01*
X126543343Y-54946793D01*
X126551475Y-54958407D01*
X126704093Y-55111025D01*
X126880894Y-55234823D01*
X126885876Y-55237146D01*
X126885881Y-55237149D01*
X127071525Y-55323716D01*
X127076507Y-55326039D01*
X127081815Y-55327461D01*
X127081817Y-55327462D01*
X127279672Y-55380477D01*
X127279674Y-55380477D01*
X127284987Y-55381901D01*
X127500000Y-55400712D01*
X127715013Y-55381901D01*
X127720326Y-55380477D01*
X127720328Y-55380477D01*
X127918183Y-55327462D01*
X127918185Y-55327461D01*
X127923493Y-55326039D01*
X127928475Y-55323716D01*
X128114119Y-55237149D01*
X128114124Y-55237146D01*
X128119106Y-55234823D01*
X128295907Y-55111025D01*
X128448525Y-54958407D01*
X128456658Y-54946793D01*
X128569166Y-54786114D01*
X128572323Y-54781606D01*
X128574646Y-54776624D01*
X128574649Y-54776619D01*
X128661216Y-54590975D01*
X128661217Y-54590974D01*
X128663539Y-54585993D01*
X128719401Y-54377513D01*
X128738212Y-54162500D01*
X128719401Y-53947487D01*
X128663539Y-53739007D01*
X128618112Y-53641588D01*
X128574649Y-53548381D01*
X128574646Y-53548376D01*
X128572323Y-53543394D01*
X128448525Y-53366593D01*
X128295907Y-53213975D01*
X128169905Y-53125747D01*
X128125578Y-53070291D01*
X128118269Y-52999672D01*
X128150300Y-52936311D01*
X128211501Y-52900326D01*
X128260257Y-52897839D01*
X128439664Y-52923852D01*
X128439667Y-52923852D01*
X128445604Y-52924713D01*
X128656899Y-52914933D01*
X128788077Y-52883319D01*
X128856701Y-52866781D01*
X128856703Y-52866780D01*
X128862534Y-52865375D01*
X128867992Y-52862893D01*
X128867996Y-52862892D01*
X129019868Y-52793839D01*
X129055087Y-52777826D01*
X129227611Y-52655446D01*
X129373881Y-52502650D01*
X129488620Y-52324952D01*
X129530801Y-52220286D01*
X129565442Y-52134332D01*
X129565443Y-52134329D01*
X129567686Y-52128763D01*
X129608228Y-51921163D01*
X129608500Y-51915601D01*
X129608500Y-51059654D01*
X129593452Y-50901934D01*
X129533908Y-50698966D01*
X129530160Y-50691688D01*
X129529953Y-50690610D01*
X129528936Y-50688068D01*
X129529426Y-50687872D01*
X129516754Y-50621968D01*
X129543169Y-50556069D01*
X129601019Y-50514912D01*
X129642178Y-50508000D01*
X133950672Y-50508000D01*
X133970056Y-50509500D01*
X133972284Y-50509847D01*
X133984859Y-50511805D01*
X133984861Y-50511805D01*
X133993730Y-50513186D01*
X134002632Y-50512022D01*
X134002634Y-50512022D01*
X134008959Y-50511195D01*
X134034282Y-50510452D01*
X134198126Y-50522170D01*
X134203343Y-50522543D01*
X134221137Y-50525101D01*
X134411540Y-50566521D01*
X134428788Y-50571586D01*
X134611358Y-50639682D01*
X134627710Y-50647149D01*
X134636470Y-50651932D01*
X134798734Y-50740534D01*
X134813848Y-50750248D01*
X134923516Y-50832344D01*
X134969842Y-50867023D01*
X134983428Y-50878796D01*
X135121204Y-51016572D01*
X135132977Y-51030158D01*
X135249752Y-51186152D01*
X135259466Y-51201266D01*
X135317190Y-51306980D01*
X135352851Y-51372290D01*
X135360318Y-51388642D01*
X135428414Y-51571212D01*
X135433480Y-51588462D01*
X135474899Y-51778863D01*
X135477457Y-51796657D01*
X135488638Y-51952988D01*
X135489041Y-51958629D01*
X135488297Y-51976533D01*
X135488195Y-51984858D01*
X135486814Y-51993730D01*
X135487978Y-52002632D01*
X135487978Y-52002635D01*
X135490936Y-52025251D01*
X135492000Y-52041589D01*
X135492000Y-54950672D01*
X135490500Y-54970056D01*
X135486814Y-54993730D01*
X135487634Y-55000000D01*
X135487186Y-55000000D01*
X135487619Y-55008267D01*
X135487619Y-55008269D01*
X135505389Y-55347319D01*
X135506430Y-55367189D01*
X135515932Y-55427186D01*
X135556798Y-55685202D01*
X135563949Y-55730355D01*
X135659115Y-56085519D01*
X135790885Y-56428790D01*
X135957814Y-56756407D01*
X136158074Y-57064780D01*
X136160149Y-57067343D01*
X136160156Y-57067352D01*
X136342186Y-57292140D01*
X136389470Y-57350531D01*
X136649469Y-57610530D01*
X136652044Y-57612615D01*
X136932648Y-57839844D01*
X136932657Y-57839851D01*
X136935220Y-57841926D01*
X137243593Y-58042186D01*
X137413863Y-58128943D01*
X137568275Y-58207620D01*
X137568282Y-58207623D01*
X137571210Y-58209115D01*
X137574282Y-58210294D01*
X137574286Y-58210296D01*
X137698899Y-58258130D01*
X137914481Y-58340885D01*
X138269645Y-58436051D01*
X138272895Y-58436566D01*
X138272901Y-58436567D01*
X138542280Y-58479232D01*
X138632811Y-58493570D01*
X138636096Y-58493742D01*
X138636104Y-58493743D01*
X138996699Y-58512641D01*
X139000000Y-58512814D01*
X139003301Y-58512641D01*
X139363896Y-58493743D01*
X139363904Y-58493742D01*
X139367189Y-58493570D01*
X139457720Y-58479232D01*
X139727099Y-58436567D01*
X139727105Y-58436566D01*
X139730355Y-58436051D01*
X140085519Y-58340885D01*
X140301101Y-58258130D01*
X140425714Y-58210296D01*
X140425718Y-58210294D01*
X140428790Y-58209115D01*
X140431718Y-58207623D01*
X140431725Y-58207620D01*
X140586137Y-58128943D01*
X140756407Y-58042186D01*
X141064780Y-57841926D01*
X141067343Y-57839851D01*
X141067352Y-57839844D01*
X141347956Y-57612615D01*
X141350531Y-57610530D01*
X141610530Y-57350531D01*
X141657814Y-57292140D01*
X141839844Y-57067352D01*
X141839851Y-57067343D01*
X141841926Y-57064780D01*
X142042186Y-56756407D01*
X142209115Y-56428790D01*
X142340885Y-56085519D01*
X142436051Y-55730355D01*
X142443203Y-55685202D01*
X142484068Y-55427186D01*
X142493570Y-55367189D01*
X142494612Y-55347319D01*
X142502757Y-55191884D01*
X142511366Y-55027627D01*
X142511964Y-55022199D01*
X142511828Y-55022187D01*
X142512263Y-55017340D01*
X142513071Y-55012539D01*
X142513150Y-55006041D01*
X142513165Y-55004859D01*
X142513165Y-55004855D01*
X142513224Y-55000000D01*
X142509273Y-54972412D01*
X142508000Y-54954549D01*
X142508000Y-54132703D01*
X143890743Y-54132703D01*
X143891302Y-54136947D01*
X143891302Y-54136951D01*
X143907810Y-54262340D01*
X143928268Y-54417734D01*
X144004129Y-54695036D01*
X144005813Y-54698984D01*
X144113168Y-54950672D01*
X144116923Y-54959476D01*
X144264561Y-55206161D01*
X144444313Y-55430528D01*
X144652851Y-55628423D01*
X144886317Y-55796186D01*
X144890112Y-55798195D01*
X144890113Y-55798196D01*
X144911869Y-55809715D01*
X145140392Y-55930712D01*
X145164699Y-55939607D01*
X145391092Y-56022455D01*
X145410373Y-56029511D01*
X145691264Y-56090755D01*
X145719841Y-56093004D01*
X145914282Y-56108307D01*
X145914291Y-56108307D01*
X145916739Y-56108500D01*
X146072271Y-56108500D01*
X146074407Y-56108354D01*
X146074418Y-56108354D01*
X146282548Y-56094165D01*
X146282554Y-56094164D01*
X146286825Y-56093873D01*
X146291020Y-56093004D01*
X146291022Y-56093004D01*
X146427583Y-56064724D01*
X146568342Y-56035574D01*
X146839343Y-55939607D01*
X147094812Y-55807750D01*
X147098313Y-55805289D01*
X147098317Y-55805287D01*
X147273527Y-55682147D01*
X147330023Y-55642441D01*
X147540622Y-55446740D01*
X147722713Y-55224268D01*
X147872927Y-54979142D01*
X147885425Y-54950672D01*
X147986757Y-54719830D01*
X147988483Y-54715898D01*
X148025488Y-54585993D01*
X148066068Y-54443534D01*
X148067244Y-54439406D01*
X148107751Y-54154784D01*
X148107845Y-54136951D01*
X148109235Y-53871583D01*
X148109235Y-53871576D01*
X148109257Y-53867297D01*
X148071732Y-53582266D01*
X147995871Y-53304964D01*
X147938633Y-53170772D01*
X147884763Y-53044476D01*
X147884761Y-53044472D01*
X147883077Y-53040524D01*
X147799170Y-52900326D01*
X147737643Y-52797521D01*
X147737640Y-52797517D01*
X147735439Y-52793839D01*
X147555687Y-52569472D01*
X147432289Y-52452372D01*
X147350258Y-52374527D01*
X147350255Y-52374525D01*
X147347149Y-52371577D01*
X147113683Y-52203814D01*
X147091843Y-52192250D01*
X147068654Y-52179972D01*
X146859608Y-52069288D01*
X146606143Y-51976533D01*
X146593658Y-51971964D01*
X146593656Y-51971963D01*
X146589627Y-51970489D01*
X146308736Y-51909245D01*
X146277685Y-51906801D01*
X146085718Y-51891693D01*
X146085709Y-51891693D01*
X146083261Y-51891500D01*
X145927729Y-51891500D01*
X145925593Y-51891646D01*
X145925582Y-51891646D01*
X145717452Y-51905835D01*
X145717446Y-51905836D01*
X145713175Y-51906127D01*
X145708980Y-51906996D01*
X145708978Y-51906996D01*
X145640568Y-51921163D01*
X145431658Y-51964426D01*
X145160657Y-52060393D01*
X144905188Y-52192250D01*
X144901687Y-52194711D01*
X144901683Y-52194713D01*
X144808960Y-52259880D01*
X144669977Y-52357559D01*
X144459378Y-52553260D01*
X144277287Y-52775732D01*
X144127073Y-53020858D01*
X144125347Y-53024791D01*
X144125346Y-53024792D01*
X144015964Y-53273972D01*
X144011517Y-53284102D01*
X143932756Y-53560594D01*
X143892249Y-53845216D01*
X143892227Y-53849505D01*
X143892226Y-53849512D01*
X143891159Y-54053207D01*
X143890743Y-54132703D01*
X142508000Y-54132703D01*
X142508000Y-54053207D01*
X142509746Y-54032303D01*
X142512264Y-54017335D01*
X142513071Y-54012539D01*
X142513224Y-54000000D01*
X142511143Y-53985465D01*
X142510044Y-53961012D01*
X142526784Y-53641588D01*
X142528162Y-53628471D01*
X142583276Y-53280494D01*
X142586018Y-53267594D01*
X142657376Y-53001284D01*
X142677204Y-52927285D01*
X142681279Y-52914744D01*
X142734641Y-52775732D01*
X142807531Y-52585845D01*
X142812895Y-52573796D01*
X142972843Y-52259880D01*
X142979438Y-52248458D01*
X143017216Y-52190285D01*
X143171321Y-51952986D01*
X143179071Y-51942319D01*
X143205115Y-51910158D01*
X143400783Y-51668527D01*
X143409608Y-51658726D01*
X143658726Y-51409608D01*
X143668527Y-51400783D01*
X143942319Y-51179071D01*
X143952988Y-51171319D01*
X144129532Y-51056670D01*
X144248458Y-50979438D01*
X144259880Y-50972843D01*
X144573796Y-50812895D01*
X144585845Y-50807531D01*
X144760387Y-50740531D01*
X144914745Y-50681279D01*
X144927287Y-50677203D01*
X144972871Y-50664989D01*
X145267594Y-50586018D01*
X145280494Y-50583276D01*
X145374190Y-50568436D01*
X145628472Y-50528162D01*
X145641587Y-50526784D01*
X145677820Y-50524885D01*
X145993406Y-50508346D01*
X146006594Y-50508346D01*
X146322180Y-50524885D01*
X146358413Y-50526784D01*
X146371528Y-50528162D01*
X146625810Y-50568436D01*
X146719506Y-50583276D01*
X146732406Y-50586018D01*
X147027130Y-50664989D01*
X147072713Y-50677203D01*
X147085255Y-50681279D01*
X147239613Y-50740531D01*
X147414155Y-50807531D01*
X147426204Y-50812895D01*
X147740120Y-50972843D01*
X147751542Y-50979438D01*
X147870469Y-51056670D01*
X148047012Y-51171319D01*
X148057681Y-51179071D01*
X148331473Y-51400783D01*
X148341274Y-51409608D01*
X148590392Y-51658726D01*
X148599217Y-51668527D01*
X148794886Y-51910158D01*
X148820929Y-51942319D01*
X148828679Y-51952986D01*
X148982784Y-52190285D01*
X149020562Y-52248458D01*
X149027157Y-52259880D01*
X149187105Y-52573796D01*
X149192469Y-52585845D01*
X149265360Y-52775732D01*
X149318721Y-52914744D01*
X149322796Y-52927285D01*
X149342624Y-53001284D01*
X149413982Y-53267594D01*
X149416724Y-53280494D01*
X149471838Y-53628471D01*
X149473216Y-53641585D01*
X149488970Y-53942172D01*
X149489764Y-53957329D01*
X149488436Y-53983312D01*
X149488195Y-53984856D01*
X149488195Y-53984860D01*
X149486814Y-53993730D01*
X149487978Y-54002632D01*
X149487978Y-54002635D01*
X149490936Y-54025251D01*
X149492000Y-54041589D01*
X149492000Y-95950672D01*
X149490500Y-95970056D01*
X149486814Y-95993730D01*
X149489274Y-96012539D01*
X149489341Y-96013050D01*
X149490253Y-96035570D01*
X149475489Y-96336093D01*
X149475489Y-96336094D01*
X149474278Y-96348394D01*
X149463378Y-96421876D01*
X149425811Y-96675130D01*
X149423401Y-96687249D01*
X149415240Y-96719830D01*
X149343139Y-97007674D01*
X149339549Y-97019507D01*
X149228275Y-97330494D01*
X149223544Y-97341918D01*
X149082315Y-97640523D01*
X149076486Y-97651428D01*
X148906672Y-97934745D01*
X148899802Y-97945026D01*
X148703040Y-98210329D01*
X148695196Y-98219887D01*
X148473374Y-98464630D01*
X148464630Y-98473374D01*
X148219887Y-98695196D01*
X148210329Y-98703040D01*
X147945026Y-98899802D01*
X147934745Y-98906672D01*
X147651428Y-99076486D01*
X147640523Y-99082315D01*
X147341918Y-99223544D01*
X147330494Y-99228275D01*
X147019507Y-99339549D01*
X147007676Y-99343138D01*
X146687249Y-99423401D01*
X146675139Y-99425809D01*
X146348394Y-99474278D01*
X146336098Y-99475489D01*
X146247344Y-99479849D01*
X146042938Y-99489890D01*
X146017376Y-99488543D01*
X146015143Y-99488195D01*
X146015139Y-99488195D01*
X146006270Y-99486814D01*
X145997368Y-99487978D01*
X145997365Y-99487978D01*
X145978083Y-99490500D01*
X145975728Y-99490808D01*
X145974749Y-99490936D01*
X145958411Y-99492000D01*
X104049328Y-99492000D01*
X104029943Y-99490500D01*
X104015142Y-99488195D01*
X104015139Y-99488195D01*
X104006270Y-99486814D01*
X103986946Y-99489341D01*
X103964430Y-99490253D01*
X103663900Y-99475488D01*
X103651606Y-99474278D01*
X103324861Y-99425809D01*
X103312751Y-99423401D01*
X102992324Y-99343138D01*
X102980493Y-99339549D01*
X102669506Y-99228275D01*
X102658082Y-99223544D01*
X102359477Y-99082315D01*
X102348572Y-99076486D01*
X102065255Y-98906672D01*
X102054974Y-98899802D01*
X101789671Y-98703040D01*
X101780113Y-98695196D01*
X101535370Y-98473374D01*
X101526626Y-98464630D01*
X101304804Y-98219887D01*
X101296960Y-98210329D01*
X101100198Y-97945026D01*
X101093328Y-97934745D01*
X100923514Y-97651428D01*
X100917685Y-97640523D01*
X100776456Y-97341918D01*
X100771725Y-97330494D01*
X100660451Y-97019507D01*
X100656861Y-97007674D01*
X100584760Y-96719830D01*
X100576599Y-96687249D01*
X100574189Y-96675130D01*
X100536623Y-96421876D01*
X100525722Y-96348394D01*
X100524511Y-96336093D01*
X100514520Y-96132703D01*
X101890743Y-96132703D01*
X101928268Y-96417734D01*
X102004129Y-96695036D01*
X102005813Y-96698984D01*
X102041885Y-96783552D01*
X102116923Y-96959476D01*
X102264561Y-97206161D01*
X102444313Y-97430528D01*
X102652851Y-97628423D01*
X102886317Y-97796186D01*
X102890112Y-97798195D01*
X102890113Y-97798196D01*
X102911869Y-97809715D01*
X103140392Y-97930712D01*
X103410373Y-98029511D01*
X103691264Y-98090755D01*
X103719841Y-98093004D01*
X103914282Y-98108307D01*
X103914291Y-98108307D01*
X103916739Y-98108500D01*
X104072271Y-98108500D01*
X104074407Y-98108354D01*
X104074418Y-98108354D01*
X104282548Y-98094165D01*
X104282554Y-98094164D01*
X104286825Y-98093873D01*
X104291020Y-98093004D01*
X104291022Y-98093004D01*
X104427584Y-98064723D01*
X104568342Y-98035574D01*
X104839343Y-97939607D01*
X105094812Y-97807750D01*
X105098313Y-97805289D01*
X105098317Y-97805287D01*
X105212417Y-97725096D01*
X105330023Y-97642441D01*
X105540622Y-97446740D01*
X105722713Y-97224268D01*
X105872927Y-96979142D01*
X105988483Y-96715898D01*
X106067244Y-96439406D01*
X106107751Y-96154784D01*
X106107845Y-96136951D01*
X106107867Y-96132703D01*
X143890743Y-96132703D01*
X143928268Y-96417734D01*
X144004129Y-96695036D01*
X144005813Y-96698984D01*
X144041885Y-96783552D01*
X144116923Y-96959476D01*
X144264561Y-97206161D01*
X144444313Y-97430528D01*
X144652851Y-97628423D01*
X144886317Y-97796186D01*
X144890112Y-97798195D01*
X144890113Y-97798196D01*
X144911869Y-97809715D01*
X145140392Y-97930712D01*
X145410373Y-98029511D01*
X145691264Y-98090755D01*
X145719841Y-98093004D01*
X145914282Y-98108307D01*
X145914291Y-98108307D01*
X145916739Y-98108500D01*
X146072271Y-98108500D01*
X146074407Y-98108354D01*
X146074418Y-98108354D01*
X146282548Y-98094165D01*
X146282554Y-98094164D01*
X146286825Y-98093873D01*
X146291020Y-98093004D01*
X146291022Y-98093004D01*
X146427584Y-98064723D01*
X146568342Y-98035574D01*
X146839343Y-97939607D01*
X147094812Y-97807750D01*
X147098313Y-97805289D01*
X147098317Y-97805287D01*
X147212417Y-97725096D01*
X147330023Y-97642441D01*
X147540622Y-97446740D01*
X147722713Y-97224268D01*
X147872927Y-96979142D01*
X147988483Y-96715898D01*
X148067244Y-96439406D01*
X148107751Y-96154784D01*
X148107845Y-96136951D01*
X148109235Y-95871583D01*
X148109235Y-95871576D01*
X148109257Y-95867297D01*
X148071732Y-95582266D01*
X147995871Y-95304964D01*
X147883077Y-95040524D01*
X147735439Y-94793839D01*
X147555687Y-94569472D01*
X147347149Y-94371577D01*
X147113683Y-94203814D01*
X147091843Y-94192250D01*
X147068654Y-94179972D01*
X146859608Y-94069288D01*
X146589627Y-93970489D01*
X146308736Y-93909245D01*
X146277685Y-93906801D01*
X146085718Y-93891693D01*
X146085709Y-93891693D01*
X146083261Y-93891500D01*
X145927729Y-93891500D01*
X145925593Y-93891646D01*
X145925582Y-93891646D01*
X145717452Y-93905835D01*
X145717446Y-93905836D01*
X145713175Y-93906127D01*
X145708980Y-93906996D01*
X145708978Y-93906996D01*
X145572416Y-93935277D01*
X145431658Y-93964426D01*
X145160657Y-94060393D01*
X144905188Y-94192250D01*
X144901687Y-94194711D01*
X144901683Y-94194713D01*
X144891594Y-94201804D01*
X144669977Y-94357559D01*
X144459378Y-94553260D01*
X144277287Y-94775732D01*
X144127073Y-95020858D01*
X144011517Y-95284102D01*
X143932756Y-95560594D01*
X143892249Y-95845216D01*
X143892227Y-95849505D01*
X143892226Y-95849512D01*
X143890765Y-96128417D01*
X143890743Y-96132703D01*
X106107867Y-96132703D01*
X106109235Y-95871583D01*
X106109235Y-95871576D01*
X106109257Y-95867297D01*
X106071732Y-95582266D01*
X105995871Y-95304964D01*
X105883077Y-95040524D01*
X105735439Y-94793839D01*
X105555687Y-94569472D01*
X105347149Y-94371577D01*
X105113683Y-94203814D01*
X105091843Y-94192250D01*
X105068654Y-94179972D01*
X104859608Y-94069288D01*
X104589627Y-93970489D01*
X104308736Y-93909245D01*
X104277685Y-93906801D01*
X104085718Y-93891693D01*
X104085709Y-93891693D01*
X104083261Y-93891500D01*
X103927729Y-93891500D01*
X103925593Y-93891646D01*
X103925582Y-93891646D01*
X103717452Y-93905835D01*
X103717446Y-93905836D01*
X103713175Y-93906127D01*
X103708980Y-93906996D01*
X103708978Y-93906996D01*
X103572416Y-93935277D01*
X103431658Y-93964426D01*
X103160657Y-94060393D01*
X102905188Y-94192250D01*
X102901687Y-94194711D01*
X102901683Y-94194713D01*
X102891594Y-94201804D01*
X102669977Y-94357559D01*
X102459378Y-94553260D01*
X102277287Y-94775732D01*
X102127073Y-95020858D01*
X102011517Y-95284102D01*
X101932756Y-95560594D01*
X101892249Y-95845216D01*
X101892227Y-95849505D01*
X101892226Y-95849512D01*
X101890765Y-96128417D01*
X101890743Y-96132703D01*
X100514520Y-96132703D01*
X100510293Y-96046665D01*
X100511886Y-96019586D01*
X100512264Y-96017340D01*
X100512265Y-96017331D01*
X100513071Y-96012539D01*
X100513224Y-96000000D01*
X100509273Y-95972412D01*
X100508000Y-95954549D01*
X100508000Y-90250000D01*
X101236835Y-90250000D01*
X101255465Y-90486711D01*
X101310895Y-90717594D01*
X101401760Y-90936963D01*
X101404346Y-90941183D01*
X101523241Y-91135202D01*
X101523245Y-91135208D01*
X101525824Y-91139416D01*
X101680031Y-91319969D01*
X101860584Y-91474176D01*
X101864792Y-91476755D01*
X101864798Y-91476759D01*
X102058817Y-91595654D01*
X102063037Y-91598240D01*
X102067607Y-91600133D01*
X102067611Y-91600135D01*
X102277833Y-91687211D01*
X102282406Y-91689105D01*
X102362609Y-91708360D01*
X102508476Y-91743380D01*
X102508482Y-91743381D01*
X102513289Y-91744535D01*
X102750000Y-91763165D01*
X102986711Y-91744535D01*
X102991518Y-91743381D01*
X102991524Y-91743380D01*
X103137391Y-91708360D01*
X103217594Y-91689105D01*
X103222167Y-91687211D01*
X103432389Y-91600135D01*
X103432393Y-91600133D01*
X103436963Y-91598240D01*
X103441183Y-91595654D01*
X103635202Y-91476759D01*
X103635208Y-91476755D01*
X103639416Y-91474176D01*
X103819969Y-91319969D01*
X103974176Y-91139416D01*
X103976755Y-91135208D01*
X103976759Y-91135202D01*
X104095654Y-90941183D01*
X104098240Y-90936963D01*
X104189105Y-90717594D01*
X104244535Y-90486711D01*
X104263165Y-90250000D01*
X105736835Y-90250000D01*
X105755465Y-90486711D01*
X105810895Y-90717594D01*
X105901760Y-90936963D01*
X105904346Y-90941183D01*
X106023241Y-91135202D01*
X106023245Y-91135208D01*
X106025824Y-91139416D01*
X106180031Y-91319969D01*
X106360584Y-91474176D01*
X106364792Y-91476755D01*
X106364798Y-91476759D01*
X106558817Y-91595654D01*
X106563037Y-91598240D01*
X106567607Y-91600133D01*
X106567611Y-91600135D01*
X106777833Y-91687211D01*
X106782406Y-91689105D01*
X106862609Y-91708360D01*
X107008476Y-91743380D01*
X107008482Y-91743381D01*
X107013289Y-91744535D01*
X107250000Y-91763165D01*
X107486711Y-91744535D01*
X107491518Y-91743381D01*
X107491524Y-91743380D01*
X107637391Y-91708360D01*
X107717594Y-91689105D01*
X107722167Y-91687211D01*
X107932389Y-91600135D01*
X107932393Y-91600133D01*
X107936963Y-91598240D01*
X107941183Y-91595654D01*
X108135202Y-91476759D01*
X108135208Y-91476755D01*
X108139416Y-91474176D01*
X108319969Y-91319969D01*
X108474176Y-91139416D01*
X108476755Y-91135208D01*
X108476759Y-91135202D01*
X108595654Y-90941183D01*
X108598240Y-90936963D01*
X108689105Y-90717594D01*
X108744535Y-90486711D01*
X108763165Y-90250000D01*
X109236835Y-90250000D01*
X109255465Y-90486711D01*
X109310895Y-90717594D01*
X109401760Y-90936963D01*
X109404346Y-90941183D01*
X109523241Y-91135202D01*
X109523245Y-91135208D01*
X109525824Y-91139416D01*
X109680031Y-91319969D01*
X109860584Y-91474176D01*
X109864792Y-91476755D01*
X109864798Y-91476759D01*
X110058817Y-91595654D01*
X110063037Y-91598240D01*
X110067607Y-91600133D01*
X110067611Y-91600135D01*
X110277833Y-91687211D01*
X110282406Y-91689105D01*
X110362609Y-91708360D01*
X110508476Y-91743380D01*
X110508482Y-91743381D01*
X110513289Y-91744535D01*
X110750000Y-91763165D01*
X110986711Y-91744535D01*
X110991518Y-91743381D01*
X110991524Y-91743380D01*
X111137391Y-91708360D01*
X111217594Y-91689105D01*
X111222167Y-91687211D01*
X111432389Y-91600135D01*
X111432393Y-91600133D01*
X111436963Y-91598240D01*
X111441183Y-91595654D01*
X111635202Y-91476759D01*
X111635208Y-91476755D01*
X111639416Y-91474176D01*
X111819969Y-91319969D01*
X111974176Y-91139416D01*
X111976755Y-91135208D01*
X111976759Y-91135202D01*
X112095654Y-90941183D01*
X112098240Y-90936963D01*
X112189105Y-90717594D01*
X112244535Y-90486711D01*
X112263165Y-90250000D01*
X113736835Y-90250000D01*
X113755465Y-90486711D01*
X113810895Y-90717594D01*
X113901760Y-90936963D01*
X113904346Y-90941183D01*
X114023241Y-91135202D01*
X114023245Y-91135208D01*
X114025824Y-91139416D01*
X114180031Y-91319969D01*
X114360584Y-91474176D01*
X114364792Y-91476755D01*
X114364798Y-91476759D01*
X114558817Y-91595654D01*
X114563037Y-91598240D01*
X114567607Y-91600133D01*
X114567611Y-91600135D01*
X114777833Y-91687211D01*
X114782406Y-91689105D01*
X114862609Y-91708360D01*
X115008476Y-91743380D01*
X115008482Y-91743381D01*
X115013289Y-91744535D01*
X115250000Y-91763165D01*
X115486711Y-91744535D01*
X115491518Y-91743381D01*
X115491524Y-91743380D01*
X115637391Y-91708360D01*
X115717594Y-91689105D01*
X115722167Y-91687211D01*
X115932389Y-91600135D01*
X115932393Y-91600133D01*
X115936963Y-91598240D01*
X115941183Y-91595654D01*
X116135202Y-91476759D01*
X116135208Y-91476755D01*
X116139416Y-91474176D01*
X116319969Y-91319969D01*
X116474176Y-91139416D01*
X116476755Y-91135208D01*
X116476759Y-91135202D01*
X116595654Y-90941183D01*
X116598240Y-90936963D01*
X116689105Y-90717594D01*
X116744535Y-90486711D01*
X116763165Y-90250000D01*
X117236835Y-90250000D01*
X117255465Y-90486711D01*
X117310895Y-90717594D01*
X117401760Y-90936963D01*
X117404346Y-90941183D01*
X117523241Y-91135202D01*
X117523245Y-91135208D01*
X117525824Y-91139416D01*
X117680031Y-91319969D01*
X117860584Y-91474176D01*
X117864792Y-91476755D01*
X117864798Y-91476759D01*
X118058817Y-91595654D01*
X118063037Y-91598240D01*
X118067607Y-91600133D01*
X118067611Y-91600135D01*
X118277833Y-91687211D01*
X118282406Y-91689105D01*
X118362609Y-91708360D01*
X118508476Y-91743380D01*
X118508482Y-91743381D01*
X118513289Y-91744535D01*
X118750000Y-91763165D01*
X118986711Y-91744535D01*
X118991518Y-91743381D01*
X118991524Y-91743380D01*
X119137391Y-91708360D01*
X119217594Y-91689105D01*
X119222167Y-91687211D01*
X119432389Y-91600135D01*
X119432393Y-91600133D01*
X119436963Y-91598240D01*
X119441183Y-91595654D01*
X119635202Y-91476759D01*
X119635208Y-91476755D01*
X119639416Y-91474176D01*
X119819969Y-91319969D01*
X119974176Y-91139416D01*
X119976755Y-91135208D01*
X119976759Y-91135202D01*
X120095654Y-90941183D01*
X120098240Y-90936963D01*
X120189105Y-90717594D01*
X120244535Y-90486711D01*
X120263165Y-90250000D01*
X121736835Y-90250000D01*
X121755465Y-90486711D01*
X121810895Y-90717594D01*
X121901760Y-90936963D01*
X121904346Y-90941183D01*
X122023241Y-91135202D01*
X122023245Y-91135208D01*
X122025824Y-91139416D01*
X122180031Y-91319969D01*
X122360584Y-91474176D01*
X122364792Y-91476755D01*
X122364798Y-91476759D01*
X122558817Y-91595654D01*
X122563037Y-91598240D01*
X122567607Y-91600133D01*
X122567611Y-91600135D01*
X122777833Y-91687211D01*
X122782406Y-91689105D01*
X122862609Y-91708360D01*
X123008476Y-91743380D01*
X123008482Y-91743381D01*
X123013289Y-91744535D01*
X123250000Y-91763165D01*
X123486711Y-91744535D01*
X123491518Y-91743381D01*
X123491524Y-91743380D01*
X123637391Y-91708360D01*
X123717594Y-91689105D01*
X123722167Y-91687211D01*
X123932389Y-91600135D01*
X123932393Y-91600133D01*
X123936963Y-91598240D01*
X123941183Y-91595654D01*
X124135202Y-91476759D01*
X124135208Y-91476755D01*
X124139416Y-91474176D01*
X124319969Y-91319969D01*
X124474176Y-91139416D01*
X124476755Y-91135208D01*
X124476759Y-91135202D01*
X124595654Y-90941183D01*
X124598240Y-90936963D01*
X124689105Y-90717594D01*
X124744535Y-90486711D01*
X124763165Y-90250000D01*
X125236835Y-90250000D01*
X125255465Y-90486711D01*
X125310895Y-90717594D01*
X125401760Y-90936963D01*
X125404346Y-90941183D01*
X125523241Y-91135202D01*
X125523245Y-91135208D01*
X125525824Y-91139416D01*
X125680031Y-91319969D01*
X125860584Y-91474176D01*
X125864792Y-91476755D01*
X125864798Y-91476759D01*
X126058817Y-91595654D01*
X126063037Y-91598240D01*
X126067607Y-91600133D01*
X126067611Y-91600135D01*
X126277833Y-91687211D01*
X126282406Y-91689105D01*
X126362609Y-91708360D01*
X126508476Y-91743380D01*
X126508482Y-91743381D01*
X126513289Y-91744535D01*
X126750000Y-91763165D01*
X126986711Y-91744535D01*
X126991518Y-91743381D01*
X126991524Y-91743380D01*
X127137391Y-91708360D01*
X127217594Y-91689105D01*
X127222167Y-91687211D01*
X127432389Y-91600135D01*
X127432393Y-91600133D01*
X127436963Y-91598240D01*
X127441183Y-91595654D01*
X127635202Y-91476759D01*
X127635208Y-91476755D01*
X127639416Y-91474176D01*
X127819969Y-91319969D01*
X127974176Y-91139416D01*
X127976755Y-91135208D01*
X127976759Y-91135202D01*
X128095654Y-90941183D01*
X128098240Y-90936963D01*
X128189105Y-90717594D01*
X128244535Y-90486711D01*
X128263165Y-90250000D01*
X129736835Y-90250000D01*
X129755465Y-90486711D01*
X129810895Y-90717594D01*
X129901760Y-90936963D01*
X129904346Y-90941183D01*
X130023241Y-91135202D01*
X130023245Y-91135208D01*
X130025824Y-91139416D01*
X130180031Y-91319969D01*
X130360584Y-91474176D01*
X130364792Y-91476755D01*
X130364798Y-91476759D01*
X130558817Y-91595654D01*
X130563037Y-91598240D01*
X130567607Y-91600133D01*
X130567611Y-91600135D01*
X130777833Y-91687211D01*
X130782406Y-91689105D01*
X130862609Y-91708360D01*
X131008476Y-91743380D01*
X131008482Y-91743381D01*
X131013289Y-91744535D01*
X131250000Y-91763165D01*
X131486711Y-91744535D01*
X131491518Y-91743381D01*
X131491524Y-91743380D01*
X131637391Y-91708360D01*
X131717594Y-91689105D01*
X131722167Y-91687211D01*
X131932389Y-91600135D01*
X131932393Y-91600133D01*
X131936963Y-91598240D01*
X131941183Y-91595654D01*
X132135202Y-91476759D01*
X132135208Y-91476755D01*
X132139416Y-91474176D01*
X132319969Y-91319969D01*
X132474176Y-91139416D01*
X132476755Y-91135208D01*
X132476759Y-91135202D01*
X132595654Y-90941183D01*
X132598240Y-90936963D01*
X132689105Y-90717594D01*
X132744535Y-90486711D01*
X132763165Y-90250000D01*
X133236835Y-90250000D01*
X133255465Y-90486711D01*
X133310895Y-90717594D01*
X133401760Y-90936963D01*
X133404346Y-90941183D01*
X133523241Y-91135202D01*
X133523245Y-91135208D01*
X133525824Y-91139416D01*
X133680031Y-91319969D01*
X133860584Y-91474176D01*
X133864792Y-91476755D01*
X133864798Y-91476759D01*
X134058817Y-91595654D01*
X134063037Y-91598240D01*
X134067607Y-91600133D01*
X134067611Y-91600135D01*
X134277833Y-91687211D01*
X134282406Y-91689105D01*
X134362609Y-91708360D01*
X134508476Y-91743380D01*
X134508482Y-91743381D01*
X134513289Y-91744535D01*
X134750000Y-91763165D01*
X134986711Y-91744535D01*
X134991518Y-91743381D01*
X134991524Y-91743380D01*
X135137391Y-91708360D01*
X135217594Y-91689105D01*
X135222167Y-91687211D01*
X135432389Y-91600135D01*
X135432393Y-91600133D01*
X135436963Y-91598240D01*
X135441183Y-91595654D01*
X135635202Y-91476759D01*
X135635208Y-91476755D01*
X135639416Y-91474176D01*
X135819969Y-91319969D01*
X135974176Y-91139416D01*
X135976755Y-91135208D01*
X135976759Y-91135202D01*
X136095654Y-90941183D01*
X136098240Y-90936963D01*
X136189105Y-90717594D01*
X136244535Y-90486711D01*
X136263165Y-90250000D01*
X137736835Y-90250000D01*
X137755465Y-90486711D01*
X137810895Y-90717594D01*
X137901760Y-90936963D01*
X137904346Y-90941183D01*
X138023241Y-91135202D01*
X138023245Y-91135208D01*
X138025824Y-91139416D01*
X138180031Y-91319969D01*
X138360584Y-91474176D01*
X138364792Y-91476755D01*
X138364798Y-91476759D01*
X138558817Y-91595654D01*
X138563037Y-91598240D01*
X138567607Y-91600133D01*
X138567611Y-91600135D01*
X138777833Y-91687211D01*
X138782406Y-91689105D01*
X138862609Y-91708360D01*
X139008476Y-91743380D01*
X139008482Y-91743381D01*
X139013289Y-91744535D01*
X139250000Y-91763165D01*
X139486711Y-91744535D01*
X139491518Y-91743381D01*
X139491524Y-91743380D01*
X139637391Y-91708360D01*
X139717594Y-91689105D01*
X139722167Y-91687211D01*
X139932389Y-91600135D01*
X139932393Y-91600133D01*
X139936963Y-91598240D01*
X139941183Y-91595654D01*
X140135202Y-91476759D01*
X140135208Y-91476755D01*
X140139416Y-91474176D01*
X140319969Y-91319969D01*
X140474176Y-91139416D01*
X140476755Y-91135208D01*
X140476759Y-91135202D01*
X140595654Y-90941183D01*
X140598240Y-90936963D01*
X140689105Y-90717594D01*
X140744535Y-90486711D01*
X140763165Y-90250000D01*
X141236835Y-90250000D01*
X141255465Y-90486711D01*
X141310895Y-90717594D01*
X141401760Y-90936963D01*
X141404346Y-90941183D01*
X141523241Y-91135202D01*
X141523245Y-91135208D01*
X141525824Y-91139416D01*
X141680031Y-91319969D01*
X141860584Y-91474176D01*
X141864792Y-91476755D01*
X141864798Y-91476759D01*
X142058817Y-91595654D01*
X142063037Y-91598240D01*
X142067607Y-91600133D01*
X142067611Y-91600135D01*
X142277833Y-91687211D01*
X142282406Y-91689105D01*
X142362609Y-91708360D01*
X142508476Y-91743380D01*
X142508482Y-91743381D01*
X142513289Y-91744535D01*
X142750000Y-91763165D01*
X142986711Y-91744535D01*
X142991518Y-91743381D01*
X142991524Y-91743380D01*
X143137391Y-91708360D01*
X143217594Y-91689105D01*
X143222167Y-91687211D01*
X143432389Y-91600135D01*
X143432393Y-91600133D01*
X143436963Y-91598240D01*
X143441183Y-91595654D01*
X143635202Y-91476759D01*
X143635208Y-91476755D01*
X143639416Y-91474176D01*
X143819969Y-91319969D01*
X143974176Y-91139416D01*
X143976755Y-91135208D01*
X143976759Y-91135202D01*
X144095654Y-90941183D01*
X144098240Y-90936963D01*
X144189105Y-90717594D01*
X144244535Y-90486711D01*
X144263165Y-90250000D01*
X145736835Y-90250000D01*
X145755465Y-90486711D01*
X145810895Y-90717594D01*
X145901760Y-90936963D01*
X145904346Y-90941183D01*
X146023241Y-91135202D01*
X146023245Y-91135208D01*
X146025824Y-91139416D01*
X146180031Y-91319969D01*
X146360584Y-91474176D01*
X146364792Y-91476755D01*
X146364798Y-91476759D01*
X146558817Y-91595654D01*
X146563037Y-91598240D01*
X146567607Y-91600133D01*
X146567611Y-91600135D01*
X146777833Y-91687211D01*
X146782406Y-91689105D01*
X146862609Y-91708360D01*
X147008476Y-91743380D01*
X147008482Y-91743381D01*
X147013289Y-91744535D01*
X147250000Y-91763165D01*
X147486711Y-91744535D01*
X147491518Y-91743381D01*
X147491524Y-91743380D01*
X147637391Y-91708360D01*
X147717594Y-91689105D01*
X147722167Y-91687211D01*
X147932389Y-91600135D01*
X147932393Y-91600133D01*
X147936963Y-91598240D01*
X147941183Y-91595654D01*
X148135202Y-91476759D01*
X148135208Y-91476755D01*
X148139416Y-91474176D01*
X148319969Y-91319969D01*
X148474176Y-91139416D01*
X148476755Y-91135208D01*
X148476759Y-91135202D01*
X148595654Y-90941183D01*
X148598240Y-90936963D01*
X148689105Y-90717594D01*
X148744535Y-90486711D01*
X148763165Y-90250000D01*
X148744535Y-90013289D01*
X148689105Y-89782406D01*
X148598240Y-89563037D01*
X148595654Y-89558817D01*
X148476759Y-89364798D01*
X148476755Y-89364792D01*
X148474176Y-89360584D01*
X148319969Y-89180031D01*
X148139416Y-89025824D01*
X148135208Y-89023245D01*
X148135202Y-89023241D01*
X147941183Y-88904346D01*
X147936963Y-88901760D01*
X147932393Y-88899867D01*
X147932389Y-88899865D01*
X147722167Y-88812789D01*
X147722165Y-88812788D01*
X147717594Y-88810895D01*
X147637391Y-88791640D01*
X147491524Y-88756620D01*
X147491518Y-88756619D01*
X147486711Y-88755465D01*
X147250000Y-88736835D01*
X147013289Y-88755465D01*
X147008482Y-88756619D01*
X147008476Y-88756620D01*
X146862609Y-88791640D01*
X146782406Y-88810895D01*
X146777835Y-88812788D01*
X146777833Y-88812789D01*
X146567611Y-88899865D01*
X146567607Y-88899867D01*
X146563037Y-88901760D01*
X146558817Y-88904346D01*
X146364798Y-89023241D01*
X146364792Y-89023245D01*
X146360584Y-89025824D01*
X146180031Y-89180031D01*
X146025824Y-89360584D01*
X146023245Y-89364792D01*
X146023241Y-89364798D01*
X145904346Y-89558817D01*
X145901760Y-89563037D01*
X145810895Y-89782406D01*
X145755465Y-90013289D01*
X145736835Y-90250000D01*
X144263165Y-90250000D01*
X144244535Y-90013289D01*
X144189105Y-89782406D01*
X144098240Y-89563037D01*
X144095654Y-89558817D01*
X143976759Y-89364798D01*
X143976755Y-89364792D01*
X143974176Y-89360584D01*
X143819969Y-89180031D01*
X143639416Y-89025824D01*
X143635208Y-89023245D01*
X143635202Y-89023241D01*
X143441183Y-88904346D01*
X143436963Y-88901760D01*
X143432393Y-88899867D01*
X143432389Y-88899865D01*
X143222167Y-88812789D01*
X143222165Y-88812788D01*
X143217594Y-88810895D01*
X143137391Y-88791640D01*
X142991524Y-88756620D01*
X142991518Y-88756619D01*
X142986711Y-88755465D01*
X142750000Y-88736835D01*
X142513289Y-88755465D01*
X142508482Y-88756619D01*
X142508476Y-88756620D01*
X142362609Y-88791640D01*
X142282406Y-88810895D01*
X142277835Y-88812788D01*
X142277833Y-88812789D01*
X142067611Y-88899865D01*
X142067607Y-88899867D01*
X142063037Y-88901760D01*
X142058817Y-88904346D01*
X141864798Y-89023241D01*
X141864792Y-89023245D01*
X141860584Y-89025824D01*
X141680031Y-89180031D01*
X141525824Y-89360584D01*
X141523245Y-89364792D01*
X141523241Y-89364798D01*
X141404346Y-89558817D01*
X141401760Y-89563037D01*
X141310895Y-89782406D01*
X141255465Y-90013289D01*
X141236835Y-90250000D01*
X140763165Y-90250000D01*
X140744535Y-90013289D01*
X140689105Y-89782406D01*
X140598240Y-89563037D01*
X140595654Y-89558817D01*
X140476759Y-89364798D01*
X140476755Y-89364792D01*
X140474176Y-89360584D01*
X140319969Y-89180031D01*
X140139416Y-89025824D01*
X140135208Y-89023245D01*
X140135202Y-89023241D01*
X139941183Y-88904346D01*
X139936963Y-88901760D01*
X139932393Y-88899867D01*
X139932389Y-88899865D01*
X139722167Y-88812789D01*
X139722165Y-88812788D01*
X139717594Y-88810895D01*
X139637391Y-88791640D01*
X139491524Y-88756620D01*
X139491518Y-88756619D01*
X139486711Y-88755465D01*
X139250000Y-88736835D01*
X139013289Y-88755465D01*
X139008482Y-88756619D01*
X139008476Y-88756620D01*
X138862609Y-88791640D01*
X138782406Y-88810895D01*
X138777835Y-88812788D01*
X138777833Y-88812789D01*
X138567611Y-88899865D01*
X138567607Y-88899867D01*
X138563037Y-88901760D01*
X138558817Y-88904346D01*
X138364798Y-89023241D01*
X138364792Y-89023245D01*
X138360584Y-89025824D01*
X138180031Y-89180031D01*
X138025824Y-89360584D01*
X138023245Y-89364792D01*
X138023241Y-89364798D01*
X137904346Y-89558817D01*
X137901760Y-89563037D01*
X137810895Y-89782406D01*
X137755465Y-90013289D01*
X137736835Y-90250000D01*
X136263165Y-90250000D01*
X136244535Y-90013289D01*
X136189105Y-89782406D01*
X136098240Y-89563037D01*
X136095654Y-89558817D01*
X135976759Y-89364798D01*
X135976755Y-89364792D01*
X135974176Y-89360584D01*
X135819969Y-89180031D01*
X135639416Y-89025824D01*
X135635208Y-89023245D01*
X135635202Y-89023241D01*
X135441183Y-88904346D01*
X135436963Y-88901760D01*
X135432393Y-88899867D01*
X135432389Y-88899865D01*
X135222167Y-88812789D01*
X135222165Y-88812788D01*
X135217594Y-88810895D01*
X135137391Y-88791640D01*
X134991524Y-88756620D01*
X134991518Y-88756619D01*
X134986711Y-88755465D01*
X134750000Y-88736835D01*
X134513289Y-88755465D01*
X134508482Y-88756619D01*
X134508476Y-88756620D01*
X134362609Y-88791640D01*
X134282406Y-88810895D01*
X134277835Y-88812788D01*
X134277833Y-88812789D01*
X134067611Y-88899865D01*
X134067607Y-88899867D01*
X134063037Y-88901760D01*
X134058817Y-88904346D01*
X133864798Y-89023241D01*
X133864792Y-89023245D01*
X133860584Y-89025824D01*
X133680031Y-89180031D01*
X133525824Y-89360584D01*
X133523245Y-89364792D01*
X133523241Y-89364798D01*
X133404346Y-89558817D01*
X133401760Y-89563037D01*
X133310895Y-89782406D01*
X133255465Y-90013289D01*
X133236835Y-90250000D01*
X132763165Y-90250000D01*
X132744535Y-90013289D01*
X132689105Y-89782406D01*
X132598240Y-89563037D01*
X132595654Y-89558817D01*
X132476759Y-89364798D01*
X132476755Y-89364792D01*
X132474176Y-89360584D01*
X132319969Y-89180031D01*
X132139416Y-89025824D01*
X132135208Y-89023245D01*
X132135202Y-89023241D01*
X131941183Y-88904346D01*
X131936963Y-88901760D01*
X131932393Y-88899867D01*
X131932389Y-88899865D01*
X131722167Y-88812789D01*
X131722165Y-88812788D01*
X131717594Y-88810895D01*
X131637391Y-88791640D01*
X131491524Y-88756620D01*
X131491518Y-88756619D01*
X131486711Y-88755465D01*
X131250000Y-88736835D01*
X131013289Y-88755465D01*
X131008482Y-88756619D01*
X131008476Y-88756620D01*
X130862609Y-88791640D01*
X130782406Y-88810895D01*
X130777835Y-88812788D01*
X130777833Y-88812789D01*
X130567611Y-88899865D01*
X130567607Y-88899867D01*
X130563037Y-88901760D01*
X130558817Y-88904346D01*
X130364798Y-89023241D01*
X130364792Y-89023245D01*
X130360584Y-89025824D01*
X130180031Y-89180031D01*
X130025824Y-89360584D01*
X130023245Y-89364792D01*
X130023241Y-89364798D01*
X129904346Y-89558817D01*
X129901760Y-89563037D01*
X129810895Y-89782406D01*
X129755465Y-90013289D01*
X129736835Y-90250000D01*
X128263165Y-90250000D01*
X128244535Y-90013289D01*
X128189105Y-89782406D01*
X128098240Y-89563037D01*
X128095654Y-89558817D01*
X127976759Y-89364798D01*
X127976755Y-89364792D01*
X127974176Y-89360584D01*
X127819969Y-89180031D01*
X127639416Y-89025824D01*
X127635208Y-89023245D01*
X127635202Y-89023241D01*
X127441183Y-88904346D01*
X127436963Y-88901760D01*
X127432393Y-88899867D01*
X127432389Y-88899865D01*
X127222167Y-88812789D01*
X127222165Y-88812788D01*
X127217594Y-88810895D01*
X127137391Y-88791640D01*
X126991524Y-88756620D01*
X126991518Y-88756619D01*
X126986711Y-88755465D01*
X126750000Y-88736835D01*
X126513289Y-88755465D01*
X126508482Y-88756619D01*
X126508476Y-88756620D01*
X126362609Y-88791640D01*
X126282406Y-88810895D01*
X126277835Y-88812788D01*
X126277833Y-88812789D01*
X126067611Y-88899865D01*
X126067607Y-88899867D01*
X126063037Y-88901760D01*
X126058817Y-88904346D01*
X125864798Y-89023241D01*
X125864792Y-89023245D01*
X125860584Y-89025824D01*
X125680031Y-89180031D01*
X125525824Y-89360584D01*
X125523245Y-89364792D01*
X125523241Y-89364798D01*
X125404346Y-89558817D01*
X125401760Y-89563037D01*
X125310895Y-89782406D01*
X125255465Y-90013289D01*
X125236835Y-90250000D01*
X124763165Y-90250000D01*
X124744535Y-90013289D01*
X124689105Y-89782406D01*
X124598240Y-89563037D01*
X124595654Y-89558817D01*
X124476759Y-89364798D01*
X124476755Y-89364792D01*
X124474176Y-89360584D01*
X124319969Y-89180031D01*
X124139416Y-89025824D01*
X124135208Y-89023245D01*
X124135202Y-89023241D01*
X123941183Y-88904346D01*
X123936963Y-88901760D01*
X123932393Y-88899867D01*
X123932389Y-88899865D01*
X123722167Y-88812789D01*
X123722165Y-88812788D01*
X123717594Y-88810895D01*
X123637391Y-88791640D01*
X123491524Y-88756620D01*
X123491518Y-88756619D01*
X123486711Y-88755465D01*
X123250000Y-88736835D01*
X123013289Y-88755465D01*
X123008482Y-88756619D01*
X123008476Y-88756620D01*
X122862609Y-88791640D01*
X122782406Y-88810895D01*
X122777835Y-88812788D01*
X122777833Y-88812789D01*
X122567611Y-88899865D01*
X122567607Y-88899867D01*
X122563037Y-88901760D01*
X122558817Y-88904346D01*
X122364798Y-89023241D01*
X122364792Y-89023245D01*
X122360584Y-89025824D01*
X122180031Y-89180031D01*
X122025824Y-89360584D01*
X122023245Y-89364792D01*
X122023241Y-89364798D01*
X121904346Y-89558817D01*
X121901760Y-89563037D01*
X121810895Y-89782406D01*
X121755465Y-90013289D01*
X121736835Y-90250000D01*
X120263165Y-90250000D01*
X120244535Y-90013289D01*
X120189105Y-89782406D01*
X120098240Y-89563037D01*
X120095654Y-89558817D01*
X119976759Y-89364798D01*
X119976755Y-89364792D01*
X119974176Y-89360584D01*
X119819969Y-89180031D01*
X119639416Y-89025824D01*
X119635208Y-89023245D01*
X119635202Y-89023241D01*
X119441183Y-88904346D01*
X119436963Y-88901760D01*
X119432393Y-88899867D01*
X119432389Y-88899865D01*
X119222167Y-88812789D01*
X119222165Y-88812788D01*
X119217594Y-88810895D01*
X119137391Y-88791640D01*
X118991524Y-88756620D01*
X118991518Y-88756619D01*
X118986711Y-88755465D01*
X118750000Y-88736835D01*
X118513289Y-88755465D01*
X118508482Y-88756619D01*
X118508476Y-88756620D01*
X118362609Y-88791640D01*
X118282406Y-88810895D01*
X118277835Y-88812788D01*
X118277833Y-88812789D01*
X118067611Y-88899865D01*
X118067607Y-88899867D01*
X118063037Y-88901760D01*
X118058817Y-88904346D01*
X117864798Y-89023241D01*
X117864792Y-89023245D01*
X117860584Y-89025824D01*
X117680031Y-89180031D01*
X117525824Y-89360584D01*
X117523245Y-89364792D01*
X117523241Y-89364798D01*
X117404346Y-89558817D01*
X117401760Y-89563037D01*
X117310895Y-89782406D01*
X117255465Y-90013289D01*
X117236835Y-90250000D01*
X116763165Y-90250000D01*
X116744535Y-90013289D01*
X116689105Y-89782406D01*
X116598240Y-89563037D01*
X116595654Y-89558817D01*
X116476759Y-89364798D01*
X116476755Y-89364792D01*
X116474176Y-89360584D01*
X116319969Y-89180031D01*
X116139416Y-89025824D01*
X116135208Y-89023245D01*
X116135202Y-89023241D01*
X115941183Y-88904346D01*
X115936963Y-88901760D01*
X115932393Y-88899867D01*
X115932389Y-88899865D01*
X115722167Y-88812789D01*
X115722165Y-88812788D01*
X115717594Y-88810895D01*
X115637391Y-88791640D01*
X115491524Y-88756620D01*
X115491518Y-88756619D01*
X115486711Y-88755465D01*
X115250000Y-88736835D01*
X115013289Y-88755465D01*
X115008482Y-88756619D01*
X115008476Y-88756620D01*
X114862609Y-88791640D01*
X114782406Y-88810895D01*
X114777835Y-88812788D01*
X114777833Y-88812789D01*
X114567611Y-88899865D01*
X114567607Y-88899867D01*
X114563037Y-88901760D01*
X114558817Y-88904346D01*
X114364798Y-89023241D01*
X114364792Y-89023245D01*
X114360584Y-89025824D01*
X114180031Y-89180031D01*
X114025824Y-89360584D01*
X114023245Y-89364792D01*
X114023241Y-89364798D01*
X113904346Y-89558817D01*
X113901760Y-89563037D01*
X113810895Y-89782406D01*
X113755465Y-90013289D01*
X113736835Y-90250000D01*
X112263165Y-90250000D01*
X112244535Y-90013289D01*
X112189105Y-89782406D01*
X112098240Y-89563037D01*
X112095654Y-89558817D01*
X111976759Y-89364798D01*
X111976755Y-89364792D01*
X111974176Y-89360584D01*
X111819969Y-89180031D01*
X111639416Y-89025824D01*
X111635208Y-89023245D01*
X111635202Y-89023241D01*
X111441183Y-88904346D01*
X111436963Y-88901760D01*
X111432393Y-88899867D01*
X111432389Y-88899865D01*
X111222167Y-88812789D01*
X111222165Y-88812788D01*
X111217594Y-88810895D01*
X111137391Y-88791640D01*
X110991524Y-88756620D01*
X110991518Y-88756619D01*
X110986711Y-88755465D01*
X110750000Y-88736835D01*
X110513289Y-88755465D01*
X110508482Y-88756619D01*
X110508476Y-88756620D01*
X110362609Y-88791640D01*
X110282406Y-88810895D01*
X110277835Y-88812788D01*
X110277833Y-88812789D01*
X110067611Y-88899865D01*
X110067607Y-88899867D01*
X110063037Y-88901760D01*
X110058817Y-88904346D01*
X109864798Y-89023241D01*
X109864792Y-89023245D01*
X109860584Y-89025824D01*
X109680031Y-89180031D01*
X109525824Y-89360584D01*
X109523245Y-89364792D01*
X109523241Y-89364798D01*
X109404346Y-89558817D01*
X109401760Y-89563037D01*
X109310895Y-89782406D01*
X109255465Y-90013289D01*
X109236835Y-90250000D01*
X108763165Y-90250000D01*
X108744535Y-90013289D01*
X108689105Y-89782406D01*
X108598240Y-89563037D01*
X108595654Y-89558817D01*
X108476759Y-89364798D01*
X108476755Y-89364792D01*
X108474176Y-89360584D01*
X108319969Y-89180031D01*
X108139416Y-89025824D01*
X108135208Y-89023245D01*
X108135202Y-89023241D01*
X107941183Y-88904346D01*
X107936963Y-88901760D01*
X107932393Y-88899867D01*
X107932389Y-88899865D01*
X107722167Y-88812789D01*
X107722165Y-88812788D01*
X107717594Y-88810895D01*
X107637391Y-88791640D01*
X107491524Y-88756620D01*
X107491518Y-88756619D01*
X107486711Y-88755465D01*
X107250000Y-88736835D01*
X107013289Y-88755465D01*
X107008482Y-88756619D01*
X107008476Y-88756620D01*
X106862609Y-88791640D01*
X106782406Y-88810895D01*
X106777835Y-88812788D01*
X106777833Y-88812789D01*
X106567611Y-88899865D01*
X106567607Y-88899867D01*
X106563037Y-88901760D01*
X106558817Y-88904346D01*
X106364798Y-89023241D01*
X106364792Y-89023245D01*
X106360584Y-89025824D01*
X106180031Y-89180031D01*
X106025824Y-89360584D01*
X106023245Y-89364792D01*
X106023241Y-89364798D01*
X105904346Y-89558817D01*
X105901760Y-89563037D01*
X105810895Y-89782406D01*
X105755465Y-90013289D01*
X105736835Y-90250000D01*
X104263165Y-90250000D01*
X104244535Y-90013289D01*
X104189105Y-89782406D01*
X104098240Y-89563037D01*
X104095654Y-89558817D01*
X103976759Y-89364798D01*
X103976755Y-89364792D01*
X103974176Y-89360584D01*
X103819969Y-89180031D01*
X103639416Y-89025824D01*
X103635208Y-89023245D01*
X103635202Y-89023241D01*
X103441183Y-88904346D01*
X103436963Y-88901760D01*
X103432393Y-88899867D01*
X103432389Y-88899865D01*
X103222167Y-88812789D01*
X103222165Y-88812788D01*
X103217594Y-88810895D01*
X103137391Y-88791640D01*
X102991524Y-88756620D01*
X102991518Y-88756619D01*
X102986711Y-88755465D01*
X102750000Y-88736835D01*
X102513289Y-88755465D01*
X102508482Y-88756619D01*
X102508476Y-88756620D01*
X102362609Y-88791640D01*
X102282406Y-88810895D01*
X102277835Y-88812788D01*
X102277833Y-88812789D01*
X102067611Y-88899865D01*
X102067607Y-88899867D01*
X102063037Y-88901760D01*
X102058817Y-88904346D01*
X101864798Y-89023241D01*
X101864792Y-89023245D01*
X101860584Y-89025824D01*
X101680031Y-89180031D01*
X101525824Y-89360584D01*
X101523245Y-89364792D01*
X101523241Y-89364798D01*
X101404346Y-89558817D01*
X101401760Y-89563037D01*
X101310895Y-89782406D01*
X101255465Y-90013289D01*
X101236835Y-90250000D01*
X100508000Y-90250000D01*
X100508000Y-83750000D01*
X101236835Y-83750000D01*
X101255465Y-83986711D01*
X101310895Y-84217594D01*
X101401760Y-84436963D01*
X101404346Y-84441183D01*
X101523241Y-84635202D01*
X101523245Y-84635208D01*
X101525824Y-84639416D01*
X101680031Y-84819969D01*
X101860584Y-84974176D01*
X101864792Y-84976755D01*
X101864798Y-84976759D01*
X102058817Y-85095654D01*
X102063037Y-85098240D01*
X102067607Y-85100133D01*
X102067611Y-85100135D01*
X102277833Y-85187211D01*
X102282406Y-85189105D01*
X102362609Y-85208360D01*
X102508476Y-85243380D01*
X102508482Y-85243381D01*
X102513289Y-85244535D01*
X102750000Y-85263165D01*
X102986711Y-85244535D01*
X102991518Y-85243381D01*
X102991524Y-85243380D01*
X103137391Y-85208360D01*
X103217594Y-85189105D01*
X103222167Y-85187211D01*
X103432389Y-85100135D01*
X103432393Y-85100133D01*
X103436963Y-85098240D01*
X103441183Y-85095654D01*
X103635202Y-84976759D01*
X103635208Y-84976755D01*
X103639416Y-84974176D01*
X103819969Y-84819969D01*
X103974176Y-84639416D01*
X103976755Y-84635208D01*
X103976759Y-84635202D01*
X104095654Y-84441183D01*
X104098240Y-84436963D01*
X104189105Y-84217594D01*
X104244535Y-83986711D01*
X104263165Y-83750000D01*
X105736835Y-83750000D01*
X105755465Y-83986711D01*
X105810895Y-84217594D01*
X105901760Y-84436963D01*
X105904346Y-84441183D01*
X106023241Y-84635202D01*
X106023245Y-84635208D01*
X106025824Y-84639416D01*
X106180031Y-84819969D01*
X106360584Y-84974176D01*
X106364792Y-84976755D01*
X106364798Y-84976759D01*
X106558817Y-85095654D01*
X106563037Y-85098240D01*
X106567607Y-85100133D01*
X106567611Y-85100135D01*
X106777833Y-85187211D01*
X106782406Y-85189105D01*
X106862609Y-85208360D01*
X107008476Y-85243380D01*
X107008482Y-85243381D01*
X107013289Y-85244535D01*
X107250000Y-85263165D01*
X107486711Y-85244535D01*
X107491518Y-85243381D01*
X107491524Y-85243380D01*
X107637391Y-85208360D01*
X107717594Y-85189105D01*
X107722167Y-85187211D01*
X107932389Y-85100135D01*
X107932393Y-85100133D01*
X107936963Y-85098240D01*
X107941183Y-85095654D01*
X108135202Y-84976759D01*
X108135208Y-84976755D01*
X108139416Y-84974176D01*
X108319969Y-84819969D01*
X108474176Y-84639416D01*
X108476755Y-84635208D01*
X108476759Y-84635202D01*
X108595654Y-84441183D01*
X108598240Y-84436963D01*
X108689105Y-84217594D01*
X108744535Y-83986711D01*
X108763165Y-83750000D01*
X109236835Y-83750000D01*
X109255465Y-83986711D01*
X109310895Y-84217594D01*
X109401760Y-84436963D01*
X109404346Y-84441183D01*
X109523241Y-84635202D01*
X109523245Y-84635208D01*
X109525824Y-84639416D01*
X109680031Y-84819969D01*
X109860584Y-84974176D01*
X109864792Y-84976755D01*
X109864798Y-84976759D01*
X110058817Y-85095654D01*
X110063037Y-85098240D01*
X110067607Y-85100133D01*
X110067611Y-85100135D01*
X110277833Y-85187211D01*
X110282406Y-85189105D01*
X110362609Y-85208360D01*
X110508476Y-85243380D01*
X110508482Y-85243381D01*
X110513289Y-85244535D01*
X110750000Y-85263165D01*
X110986711Y-85244535D01*
X110991518Y-85243381D01*
X110991524Y-85243380D01*
X111137391Y-85208360D01*
X111217594Y-85189105D01*
X111222167Y-85187211D01*
X111432389Y-85100135D01*
X111432393Y-85100133D01*
X111436963Y-85098240D01*
X111441183Y-85095654D01*
X111635202Y-84976759D01*
X111635208Y-84976755D01*
X111639416Y-84974176D01*
X111819969Y-84819969D01*
X111974176Y-84639416D01*
X111976755Y-84635208D01*
X111976759Y-84635202D01*
X112095654Y-84441183D01*
X112098240Y-84436963D01*
X112189105Y-84217594D01*
X112244535Y-83986711D01*
X112263165Y-83750000D01*
X113736835Y-83750000D01*
X113755465Y-83986711D01*
X113810895Y-84217594D01*
X113901760Y-84436963D01*
X113904346Y-84441183D01*
X114023241Y-84635202D01*
X114023245Y-84635208D01*
X114025824Y-84639416D01*
X114180031Y-84819969D01*
X114360584Y-84974176D01*
X114364792Y-84976755D01*
X114364798Y-84976759D01*
X114558817Y-85095654D01*
X114563037Y-85098240D01*
X114567607Y-85100133D01*
X114567611Y-85100135D01*
X114777833Y-85187211D01*
X114782406Y-85189105D01*
X114862609Y-85208360D01*
X115008476Y-85243380D01*
X115008482Y-85243381D01*
X115013289Y-85244535D01*
X115250000Y-85263165D01*
X115486711Y-85244535D01*
X115491518Y-85243381D01*
X115491524Y-85243380D01*
X115637391Y-85208360D01*
X115717594Y-85189105D01*
X115722167Y-85187211D01*
X115932389Y-85100135D01*
X115932393Y-85100133D01*
X115936963Y-85098240D01*
X115941183Y-85095654D01*
X116135202Y-84976759D01*
X116135208Y-84976755D01*
X116139416Y-84974176D01*
X116319969Y-84819969D01*
X116474176Y-84639416D01*
X116476755Y-84635208D01*
X116476759Y-84635202D01*
X116595654Y-84441183D01*
X116598240Y-84436963D01*
X116689105Y-84217594D01*
X116744535Y-83986711D01*
X116763165Y-83750000D01*
X117236835Y-83750000D01*
X117255465Y-83986711D01*
X117310895Y-84217594D01*
X117401760Y-84436963D01*
X117404346Y-84441183D01*
X117523241Y-84635202D01*
X117523245Y-84635208D01*
X117525824Y-84639416D01*
X117680031Y-84819969D01*
X117860584Y-84974176D01*
X117864792Y-84976755D01*
X117864798Y-84976759D01*
X118058817Y-85095654D01*
X118063037Y-85098240D01*
X118067607Y-85100133D01*
X118067611Y-85100135D01*
X118277833Y-85187211D01*
X118282406Y-85189105D01*
X118362609Y-85208360D01*
X118508476Y-85243380D01*
X118508482Y-85243381D01*
X118513289Y-85244535D01*
X118750000Y-85263165D01*
X118986711Y-85244535D01*
X118991518Y-85243381D01*
X118991524Y-85243380D01*
X119137391Y-85208360D01*
X119217594Y-85189105D01*
X119222167Y-85187211D01*
X119432389Y-85100135D01*
X119432393Y-85100133D01*
X119436963Y-85098240D01*
X119441183Y-85095654D01*
X119635202Y-84976759D01*
X119635208Y-84976755D01*
X119639416Y-84974176D01*
X119819969Y-84819969D01*
X119974176Y-84639416D01*
X119976755Y-84635208D01*
X119976759Y-84635202D01*
X120095654Y-84441183D01*
X120098240Y-84436963D01*
X120189105Y-84217594D01*
X120244535Y-83986711D01*
X120263165Y-83750000D01*
X121736835Y-83750000D01*
X121755465Y-83986711D01*
X121810895Y-84217594D01*
X121901760Y-84436963D01*
X121904346Y-84441183D01*
X122023241Y-84635202D01*
X122023245Y-84635208D01*
X122025824Y-84639416D01*
X122180031Y-84819969D01*
X122360584Y-84974176D01*
X122364792Y-84976755D01*
X122364798Y-84976759D01*
X122558817Y-85095654D01*
X122563037Y-85098240D01*
X122567607Y-85100133D01*
X122567611Y-85100135D01*
X122777833Y-85187211D01*
X122782406Y-85189105D01*
X122862609Y-85208360D01*
X123008476Y-85243380D01*
X123008482Y-85243381D01*
X123013289Y-85244535D01*
X123250000Y-85263165D01*
X123486711Y-85244535D01*
X123491518Y-85243381D01*
X123491524Y-85243380D01*
X123637391Y-85208360D01*
X123717594Y-85189105D01*
X123722167Y-85187211D01*
X123932389Y-85100135D01*
X123932393Y-85100133D01*
X123936963Y-85098240D01*
X123941183Y-85095654D01*
X124135202Y-84976759D01*
X124135208Y-84976755D01*
X124139416Y-84974176D01*
X124319969Y-84819969D01*
X124474176Y-84639416D01*
X124476755Y-84635208D01*
X124476759Y-84635202D01*
X124595654Y-84441183D01*
X124598240Y-84436963D01*
X124689105Y-84217594D01*
X124744535Y-83986711D01*
X124763165Y-83750000D01*
X125236835Y-83750000D01*
X125255465Y-83986711D01*
X125310895Y-84217594D01*
X125401760Y-84436963D01*
X125404346Y-84441183D01*
X125523241Y-84635202D01*
X125523245Y-84635208D01*
X125525824Y-84639416D01*
X125680031Y-84819969D01*
X125860584Y-84974176D01*
X125864792Y-84976755D01*
X125864798Y-84976759D01*
X126058817Y-85095654D01*
X126063037Y-85098240D01*
X126067607Y-85100133D01*
X126067611Y-85100135D01*
X126277833Y-85187211D01*
X126282406Y-85189105D01*
X126362609Y-85208360D01*
X126508476Y-85243380D01*
X126508482Y-85243381D01*
X126513289Y-85244535D01*
X126750000Y-85263165D01*
X126986711Y-85244535D01*
X126991518Y-85243381D01*
X126991524Y-85243380D01*
X127137391Y-85208360D01*
X127217594Y-85189105D01*
X127222167Y-85187211D01*
X127432389Y-85100135D01*
X127432393Y-85100133D01*
X127436963Y-85098240D01*
X127441183Y-85095654D01*
X127635202Y-84976759D01*
X127635208Y-84976755D01*
X127639416Y-84974176D01*
X127819969Y-84819969D01*
X127974176Y-84639416D01*
X127976755Y-84635208D01*
X127976759Y-84635202D01*
X128095654Y-84441183D01*
X128098240Y-84436963D01*
X128189105Y-84217594D01*
X128244535Y-83986711D01*
X128263165Y-83750000D01*
X129736835Y-83750000D01*
X129755465Y-83986711D01*
X129810895Y-84217594D01*
X129901760Y-84436963D01*
X129904346Y-84441183D01*
X130023241Y-84635202D01*
X130023245Y-84635208D01*
X130025824Y-84639416D01*
X130180031Y-84819969D01*
X130360584Y-84974176D01*
X130364792Y-84976755D01*
X130364798Y-84976759D01*
X130558817Y-85095654D01*
X130563037Y-85098240D01*
X130567607Y-85100133D01*
X130567611Y-85100135D01*
X130777833Y-85187211D01*
X130782406Y-85189105D01*
X130862609Y-85208360D01*
X131008476Y-85243380D01*
X131008482Y-85243381D01*
X131013289Y-85244535D01*
X131250000Y-85263165D01*
X131486711Y-85244535D01*
X131491518Y-85243381D01*
X131491524Y-85243380D01*
X131637391Y-85208360D01*
X131717594Y-85189105D01*
X131722167Y-85187211D01*
X131932389Y-85100135D01*
X131932393Y-85100133D01*
X131936963Y-85098240D01*
X131941183Y-85095654D01*
X132135202Y-84976759D01*
X132135208Y-84976755D01*
X132139416Y-84974176D01*
X132319969Y-84819969D01*
X132474176Y-84639416D01*
X132476755Y-84635208D01*
X132476759Y-84635202D01*
X132595654Y-84441183D01*
X132598240Y-84436963D01*
X132689105Y-84217594D01*
X132744535Y-83986711D01*
X132763165Y-83750000D01*
X133236835Y-83750000D01*
X133255465Y-83986711D01*
X133310895Y-84217594D01*
X133401760Y-84436963D01*
X133404346Y-84441183D01*
X133523241Y-84635202D01*
X133523245Y-84635208D01*
X133525824Y-84639416D01*
X133680031Y-84819969D01*
X133860584Y-84974176D01*
X133864792Y-84976755D01*
X133864798Y-84976759D01*
X134058817Y-85095654D01*
X134063037Y-85098240D01*
X134067607Y-85100133D01*
X134067611Y-85100135D01*
X134277833Y-85187211D01*
X134282406Y-85189105D01*
X134362609Y-85208360D01*
X134508476Y-85243380D01*
X134508482Y-85243381D01*
X134513289Y-85244535D01*
X134750000Y-85263165D01*
X134986711Y-85244535D01*
X134991518Y-85243381D01*
X134991524Y-85243380D01*
X135137391Y-85208360D01*
X135217594Y-85189105D01*
X135222167Y-85187211D01*
X135432389Y-85100135D01*
X135432393Y-85100133D01*
X135436963Y-85098240D01*
X135441183Y-85095654D01*
X135635202Y-84976759D01*
X135635208Y-84976755D01*
X135639416Y-84974176D01*
X135819969Y-84819969D01*
X135974176Y-84639416D01*
X135976755Y-84635208D01*
X135976759Y-84635202D01*
X136095654Y-84441183D01*
X136098240Y-84436963D01*
X136189105Y-84217594D01*
X136244535Y-83986711D01*
X136263165Y-83750000D01*
X137736835Y-83750000D01*
X137755465Y-83986711D01*
X137810895Y-84217594D01*
X137901760Y-84436963D01*
X137904346Y-84441183D01*
X138023241Y-84635202D01*
X138023245Y-84635208D01*
X138025824Y-84639416D01*
X138180031Y-84819969D01*
X138360584Y-84974176D01*
X138364792Y-84976755D01*
X138364798Y-84976759D01*
X138558817Y-85095654D01*
X138563037Y-85098240D01*
X138567607Y-85100133D01*
X138567611Y-85100135D01*
X138777833Y-85187211D01*
X138782406Y-85189105D01*
X138862609Y-85208360D01*
X139008476Y-85243380D01*
X139008482Y-85243381D01*
X139013289Y-85244535D01*
X139250000Y-85263165D01*
X139486711Y-85244535D01*
X139491518Y-85243381D01*
X139491524Y-85243380D01*
X139637391Y-85208360D01*
X139717594Y-85189105D01*
X139722167Y-85187211D01*
X139932389Y-85100135D01*
X139932393Y-85100133D01*
X139936963Y-85098240D01*
X139941183Y-85095654D01*
X140135202Y-84976759D01*
X140135208Y-84976755D01*
X140139416Y-84974176D01*
X140319969Y-84819969D01*
X140474176Y-84639416D01*
X140476755Y-84635208D01*
X140476759Y-84635202D01*
X140595654Y-84441183D01*
X140598240Y-84436963D01*
X140689105Y-84217594D01*
X140744535Y-83986711D01*
X140763165Y-83750000D01*
X141236835Y-83750000D01*
X141255465Y-83986711D01*
X141310895Y-84217594D01*
X141401760Y-84436963D01*
X141404346Y-84441183D01*
X141523241Y-84635202D01*
X141523245Y-84635208D01*
X141525824Y-84639416D01*
X141680031Y-84819969D01*
X141860584Y-84974176D01*
X141864792Y-84976755D01*
X141864798Y-84976759D01*
X142058817Y-85095654D01*
X142063037Y-85098240D01*
X142067607Y-85100133D01*
X142067611Y-85100135D01*
X142277833Y-85187211D01*
X142282406Y-85189105D01*
X142362609Y-85208360D01*
X142508476Y-85243380D01*
X142508482Y-85243381D01*
X142513289Y-85244535D01*
X142750000Y-85263165D01*
X142986711Y-85244535D01*
X142991518Y-85243381D01*
X142991524Y-85243380D01*
X143137391Y-85208360D01*
X143217594Y-85189105D01*
X143222167Y-85187211D01*
X143432389Y-85100135D01*
X143432393Y-85100133D01*
X143436963Y-85098240D01*
X143441183Y-85095654D01*
X143635202Y-84976759D01*
X143635208Y-84976755D01*
X143639416Y-84974176D01*
X143819969Y-84819969D01*
X143974176Y-84639416D01*
X143976755Y-84635208D01*
X143976759Y-84635202D01*
X144095654Y-84441183D01*
X144098240Y-84436963D01*
X144189105Y-84217594D01*
X144244535Y-83986711D01*
X144263165Y-83750000D01*
X145736835Y-83750000D01*
X145755465Y-83986711D01*
X145810895Y-84217594D01*
X145901760Y-84436963D01*
X145904346Y-84441183D01*
X146023241Y-84635202D01*
X146023245Y-84635208D01*
X146025824Y-84639416D01*
X146180031Y-84819969D01*
X146360584Y-84974176D01*
X146364792Y-84976755D01*
X146364798Y-84976759D01*
X146558817Y-85095654D01*
X146563037Y-85098240D01*
X146567607Y-85100133D01*
X146567611Y-85100135D01*
X146777833Y-85187211D01*
X146782406Y-85189105D01*
X146862609Y-85208360D01*
X147008476Y-85243380D01*
X147008482Y-85243381D01*
X147013289Y-85244535D01*
X147250000Y-85263165D01*
X147486711Y-85244535D01*
X147491518Y-85243381D01*
X147491524Y-85243380D01*
X147637391Y-85208360D01*
X147717594Y-85189105D01*
X147722167Y-85187211D01*
X147932389Y-85100135D01*
X147932393Y-85100133D01*
X147936963Y-85098240D01*
X147941183Y-85095654D01*
X148135202Y-84976759D01*
X148135208Y-84976755D01*
X148139416Y-84974176D01*
X148319969Y-84819969D01*
X148474176Y-84639416D01*
X148476755Y-84635208D01*
X148476759Y-84635202D01*
X148595654Y-84441183D01*
X148598240Y-84436963D01*
X148689105Y-84217594D01*
X148744535Y-83986711D01*
X148763165Y-83750000D01*
X148744535Y-83513289D01*
X148689105Y-83282406D01*
X148598240Y-83063037D01*
X148595654Y-83058817D01*
X148476759Y-82864798D01*
X148476755Y-82864792D01*
X148474176Y-82860584D01*
X148319969Y-82680031D01*
X148139416Y-82525824D01*
X148135208Y-82523245D01*
X148135202Y-82523241D01*
X147941183Y-82404346D01*
X147936963Y-82401760D01*
X147932393Y-82399867D01*
X147932389Y-82399865D01*
X147722167Y-82312789D01*
X147722165Y-82312788D01*
X147717594Y-82310895D01*
X147637391Y-82291640D01*
X147491524Y-82256620D01*
X147491518Y-82256619D01*
X147486711Y-82255465D01*
X147250000Y-82236835D01*
X147013289Y-82255465D01*
X147008482Y-82256619D01*
X147008476Y-82256620D01*
X146862609Y-82291640D01*
X146782406Y-82310895D01*
X146777835Y-82312788D01*
X146777833Y-82312789D01*
X146567611Y-82399865D01*
X146567607Y-82399867D01*
X146563037Y-82401760D01*
X146558817Y-82404346D01*
X146364798Y-82523241D01*
X146364792Y-82523245D01*
X146360584Y-82525824D01*
X146180031Y-82680031D01*
X146025824Y-82860584D01*
X146023245Y-82864792D01*
X146023241Y-82864798D01*
X145904346Y-83058817D01*
X145901760Y-83063037D01*
X145810895Y-83282406D01*
X145755465Y-83513289D01*
X145736835Y-83750000D01*
X144263165Y-83750000D01*
X144244535Y-83513289D01*
X144189105Y-83282406D01*
X144098240Y-83063037D01*
X144095654Y-83058817D01*
X143976759Y-82864798D01*
X143976755Y-82864792D01*
X143974176Y-82860584D01*
X143819969Y-82680031D01*
X143639416Y-82525824D01*
X143635208Y-82523245D01*
X143635202Y-82523241D01*
X143441183Y-82404346D01*
X143436963Y-82401760D01*
X143432393Y-82399867D01*
X143432389Y-82399865D01*
X143222167Y-82312789D01*
X143222165Y-82312788D01*
X143217594Y-82310895D01*
X143137391Y-82291640D01*
X142991524Y-82256620D01*
X142991518Y-82256619D01*
X142986711Y-82255465D01*
X142750000Y-82236835D01*
X142513289Y-82255465D01*
X142508482Y-82256619D01*
X142508476Y-82256620D01*
X142362609Y-82291640D01*
X142282406Y-82310895D01*
X142277835Y-82312788D01*
X142277833Y-82312789D01*
X142067611Y-82399865D01*
X142067607Y-82399867D01*
X142063037Y-82401760D01*
X142058817Y-82404346D01*
X141864798Y-82523241D01*
X141864792Y-82523245D01*
X141860584Y-82525824D01*
X141680031Y-82680031D01*
X141525824Y-82860584D01*
X141523245Y-82864792D01*
X141523241Y-82864798D01*
X141404346Y-83058817D01*
X141401760Y-83063037D01*
X141310895Y-83282406D01*
X141255465Y-83513289D01*
X141236835Y-83750000D01*
X140763165Y-83750000D01*
X140744535Y-83513289D01*
X140689105Y-83282406D01*
X140598240Y-83063037D01*
X140595654Y-83058817D01*
X140476759Y-82864798D01*
X140476755Y-82864792D01*
X140474176Y-82860584D01*
X140319969Y-82680031D01*
X140139416Y-82525824D01*
X140135208Y-82523245D01*
X140135202Y-82523241D01*
X139941183Y-82404346D01*
X139936963Y-82401760D01*
X139932393Y-82399867D01*
X139932389Y-82399865D01*
X139722167Y-82312789D01*
X139722165Y-82312788D01*
X139717594Y-82310895D01*
X139637391Y-82291640D01*
X139491524Y-82256620D01*
X139491518Y-82256619D01*
X139486711Y-82255465D01*
X139250000Y-82236835D01*
X139013289Y-82255465D01*
X139008482Y-82256619D01*
X139008476Y-82256620D01*
X138862609Y-82291640D01*
X138782406Y-82310895D01*
X138777835Y-82312788D01*
X138777833Y-82312789D01*
X138567611Y-82399865D01*
X138567607Y-82399867D01*
X138563037Y-82401760D01*
X138558817Y-82404346D01*
X138364798Y-82523241D01*
X138364792Y-82523245D01*
X138360584Y-82525824D01*
X138180031Y-82680031D01*
X138025824Y-82860584D01*
X138023245Y-82864792D01*
X138023241Y-82864798D01*
X137904346Y-83058817D01*
X137901760Y-83063037D01*
X137810895Y-83282406D01*
X137755465Y-83513289D01*
X137736835Y-83750000D01*
X136263165Y-83750000D01*
X136244535Y-83513289D01*
X136189105Y-83282406D01*
X136098240Y-83063037D01*
X136095654Y-83058817D01*
X135976759Y-82864798D01*
X135976755Y-82864792D01*
X135974176Y-82860584D01*
X135819969Y-82680031D01*
X135639416Y-82525824D01*
X135635208Y-82523245D01*
X135635202Y-82523241D01*
X135441183Y-82404346D01*
X135436963Y-82401760D01*
X135432393Y-82399867D01*
X135432389Y-82399865D01*
X135222167Y-82312789D01*
X135222165Y-82312788D01*
X135217594Y-82310895D01*
X135137391Y-82291640D01*
X134991524Y-82256620D01*
X134991518Y-82256619D01*
X134986711Y-82255465D01*
X134750000Y-82236835D01*
X134513289Y-82255465D01*
X134508482Y-82256619D01*
X134508476Y-82256620D01*
X134362609Y-82291640D01*
X134282406Y-82310895D01*
X134277835Y-82312788D01*
X134277833Y-82312789D01*
X134067611Y-82399865D01*
X134067607Y-82399867D01*
X134063037Y-82401760D01*
X134058817Y-82404346D01*
X133864798Y-82523241D01*
X133864792Y-82523245D01*
X133860584Y-82525824D01*
X133680031Y-82680031D01*
X133525824Y-82860584D01*
X133523245Y-82864792D01*
X133523241Y-82864798D01*
X133404346Y-83058817D01*
X133401760Y-83063037D01*
X133310895Y-83282406D01*
X133255465Y-83513289D01*
X133236835Y-83750000D01*
X132763165Y-83750000D01*
X132744535Y-83513289D01*
X132689105Y-83282406D01*
X132598240Y-83063037D01*
X132595654Y-83058817D01*
X132476759Y-82864798D01*
X132476755Y-82864792D01*
X132474176Y-82860584D01*
X132319969Y-82680031D01*
X132139416Y-82525824D01*
X132135208Y-82523245D01*
X132135202Y-82523241D01*
X131941183Y-82404346D01*
X131936963Y-82401760D01*
X131932393Y-82399867D01*
X131932389Y-82399865D01*
X131722167Y-82312789D01*
X131722165Y-82312788D01*
X131717594Y-82310895D01*
X131637391Y-82291640D01*
X131491524Y-82256620D01*
X131491518Y-82256619D01*
X131486711Y-82255465D01*
X131250000Y-82236835D01*
X131013289Y-82255465D01*
X131008482Y-82256619D01*
X131008476Y-82256620D01*
X130862609Y-82291640D01*
X130782406Y-82310895D01*
X130777835Y-82312788D01*
X130777833Y-82312789D01*
X130567611Y-82399865D01*
X130567607Y-82399867D01*
X130563037Y-82401760D01*
X130558817Y-82404346D01*
X130364798Y-82523241D01*
X130364792Y-82523245D01*
X130360584Y-82525824D01*
X130180031Y-82680031D01*
X130025824Y-82860584D01*
X130023245Y-82864792D01*
X130023241Y-82864798D01*
X129904346Y-83058817D01*
X129901760Y-83063037D01*
X129810895Y-83282406D01*
X129755465Y-83513289D01*
X129736835Y-83750000D01*
X128263165Y-83750000D01*
X128244535Y-83513289D01*
X128189105Y-83282406D01*
X128098240Y-83063037D01*
X128095654Y-83058817D01*
X127976759Y-82864798D01*
X127976755Y-82864792D01*
X127974176Y-82860584D01*
X127819969Y-82680031D01*
X127639416Y-82525824D01*
X127635208Y-82523245D01*
X127635202Y-82523241D01*
X127441183Y-82404346D01*
X127436963Y-82401760D01*
X127432393Y-82399867D01*
X127432389Y-82399865D01*
X127222167Y-82312789D01*
X127222165Y-82312788D01*
X127217594Y-82310895D01*
X127137391Y-82291640D01*
X126991524Y-82256620D01*
X126991518Y-82256619D01*
X126986711Y-82255465D01*
X126750000Y-82236835D01*
X126513289Y-82255465D01*
X126508482Y-82256619D01*
X126508476Y-82256620D01*
X126362609Y-82291640D01*
X126282406Y-82310895D01*
X126277835Y-82312788D01*
X126277833Y-82312789D01*
X126067611Y-82399865D01*
X126067607Y-82399867D01*
X126063037Y-82401760D01*
X126058817Y-82404346D01*
X125864798Y-82523241D01*
X125864792Y-82523245D01*
X125860584Y-82525824D01*
X125680031Y-82680031D01*
X125525824Y-82860584D01*
X125523245Y-82864792D01*
X125523241Y-82864798D01*
X125404346Y-83058817D01*
X125401760Y-83063037D01*
X125310895Y-83282406D01*
X125255465Y-83513289D01*
X125236835Y-83750000D01*
X124763165Y-83750000D01*
X124744535Y-83513289D01*
X124689105Y-83282406D01*
X124598240Y-83063037D01*
X124595654Y-83058817D01*
X124476759Y-82864798D01*
X124476755Y-82864792D01*
X124474176Y-82860584D01*
X124319969Y-82680031D01*
X124139416Y-82525824D01*
X124135208Y-82523245D01*
X124135202Y-82523241D01*
X123941183Y-82404346D01*
X123936963Y-82401760D01*
X123932393Y-82399867D01*
X123932389Y-82399865D01*
X123722167Y-82312789D01*
X123722165Y-82312788D01*
X123717594Y-82310895D01*
X123637391Y-82291640D01*
X123491524Y-82256620D01*
X123491518Y-82256619D01*
X123486711Y-82255465D01*
X123250000Y-82236835D01*
X123013289Y-82255465D01*
X123008482Y-82256619D01*
X123008476Y-82256620D01*
X122862609Y-82291640D01*
X122782406Y-82310895D01*
X122777835Y-82312788D01*
X122777833Y-82312789D01*
X122567611Y-82399865D01*
X122567607Y-82399867D01*
X122563037Y-82401760D01*
X122558817Y-82404346D01*
X122364798Y-82523241D01*
X122364792Y-82523245D01*
X122360584Y-82525824D01*
X122180031Y-82680031D01*
X122025824Y-82860584D01*
X122023245Y-82864792D01*
X122023241Y-82864798D01*
X121904346Y-83058817D01*
X121901760Y-83063037D01*
X121810895Y-83282406D01*
X121755465Y-83513289D01*
X121736835Y-83750000D01*
X120263165Y-83750000D01*
X120244535Y-83513289D01*
X120189105Y-83282406D01*
X120098240Y-83063037D01*
X120095654Y-83058817D01*
X119976759Y-82864798D01*
X119976755Y-82864792D01*
X119974176Y-82860584D01*
X119819969Y-82680031D01*
X119639416Y-82525824D01*
X119635208Y-82523245D01*
X119635202Y-82523241D01*
X119441183Y-82404346D01*
X119436963Y-82401760D01*
X119432393Y-82399867D01*
X119432389Y-82399865D01*
X119222167Y-82312789D01*
X119222165Y-82312788D01*
X119217594Y-82310895D01*
X119137391Y-82291640D01*
X118991524Y-82256620D01*
X118991518Y-82256619D01*
X118986711Y-82255465D01*
X118750000Y-82236835D01*
X118513289Y-82255465D01*
X118508482Y-82256619D01*
X118508476Y-82256620D01*
X118362609Y-82291640D01*
X118282406Y-82310895D01*
X118277835Y-82312788D01*
X118277833Y-82312789D01*
X118067611Y-82399865D01*
X118067607Y-82399867D01*
X118063037Y-82401760D01*
X118058817Y-82404346D01*
X117864798Y-82523241D01*
X117864792Y-82523245D01*
X117860584Y-82525824D01*
X117680031Y-82680031D01*
X117525824Y-82860584D01*
X117523245Y-82864792D01*
X117523241Y-82864798D01*
X117404346Y-83058817D01*
X117401760Y-83063037D01*
X117310895Y-83282406D01*
X117255465Y-83513289D01*
X117236835Y-83750000D01*
X116763165Y-83750000D01*
X116744535Y-83513289D01*
X116689105Y-83282406D01*
X116598240Y-83063037D01*
X116595654Y-83058817D01*
X116476759Y-82864798D01*
X116476755Y-82864792D01*
X116474176Y-82860584D01*
X116319969Y-82680031D01*
X116139416Y-82525824D01*
X116135208Y-82523245D01*
X116135202Y-82523241D01*
X115941183Y-82404346D01*
X115936963Y-82401760D01*
X115932393Y-82399867D01*
X115932389Y-82399865D01*
X115722167Y-82312789D01*
X115722165Y-82312788D01*
X115717594Y-82310895D01*
X115637391Y-82291640D01*
X115491524Y-82256620D01*
X115491518Y-82256619D01*
X115486711Y-82255465D01*
X115250000Y-82236835D01*
X115013289Y-82255465D01*
X115008482Y-82256619D01*
X115008476Y-82256620D01*
X114862609Y-82291640D01*
X114782406Y-82310895D01*
X114777835Y-82312788D01*
X114777833Y-82312789D01*
X114567611Y-82399865D01*
X114567607Y-82399867D01*
X114563037Y-82401760D01*
X114558817Y-82404346D01*
X114364798Y-82523241D01*
X114364792Y-82523245D01*
X114360584Y-82525824D01*
X114180031Y-82680031D01*
X114025824Y-82860584D01*
X114023245Y-82864792D01*
X114023241Y-82864798D01*
X113904346Y-83058817D01*
X113901760Y-83063037D01*
X113810895Y-83282406D01*
X113755465Y-83513289D01*
X113736835Y-83750000D01*
X112263165Y-83750000D01*
X112244535Y-83513289D01*
X112189105Y-83282406D01*
X112098240Y-83063037D01*
X112095654Y-83058817D01*
X111976759Y-82864798D01*
X111976755Y-82864792D01*
X111974176Y-82860584D01*
X111819969Y-82680031D01*
X111639416Y-82525824D01*
X111635208Y-82523245D01*
X111635202Y-82523241D01*
X111441183Y-82404346D01*
X111436963Y-82401760D01*
X111432393Y-82399867D01*
X111432389Y-82399865D01*
X111222167Y-82312789D01*
X111222165Y-82312788D01*
X111217594Y-82310895D01*
X111137391Y-82291640D01*
X110991524Y-82256620D01*
X110991518Y-82256619D01*
X110986711Y-82255465D01*
X110750000Y-82236835D01*
X110513289Y-82255465D01*
X110508482Y-82256619D01*
X110508476Y-82256620D01*
X110362609Y-82291640D01*
X110282406Y-82310895D01*
X110277835Y-82312788D01*
X110277833Y-82312789D01*
X110067611Y-82399865D01*
X110067607Y-82399867D01*
X110063037Y-82401760D01*
X110058817Y-82404346D01*
X109864798Y-82523241D01*
X109864792Y-82523245D01*
X109860584Y-82525824D01*
X109680031Y-82680031D01*
X109525824Y-82860584D01*
X109523245Y-82864792D01*
X109523241Y-82864798D01*
X109404346Y-83058817D01*
X109401760Y-83063037D01*
X109310895Y-83282406D01*
X109255465Y-83513289D01*
X109236835Y-83750000D01*
X108763165Y-83750000D01*
X108744535Y-83513289D01*
X108689105Y-83282406D01*
X108598240Y-83063037D01*
X108595654Y-83058817D01*
X108476759Y-82864798D01*
X108476755Y-82864792D01*
X108474176Y-82860584D01*
X108319969Y-82680031D01*
X108139416Y-82525824D01*
X108135208Y-82523245D01*
X108135202Y-82523241D01*
X107941183Y-82404346D01*
X107936963Y-82401760D01*
X107932393Y-82399867D01*
X107932389Y-82399865D01*
X107722167Y-82312789D01*
X107722165Y-82312788D01*
X107717594Y-82310895D01*
X107637391Y-82291640D01*
X107491524Y-82256620D01*
X107491518Y-82256619D01*
X107486711Y-82255465D01*
X107250000Y-82236835D01*
X107013289Y-82255465D01*
X107008482Y-82256619D01*
X107008476Y-82256620D01*
X106862609Y-82291640D01*
X106782406Y-82310895D01*
X106777835Y-82312788D01*
X106777833Y-82312789D01*
X106567611Y-82399865D01*
X106567607Y-82399867D01*
X106563037Y-82401760D01*
X106558817Y-82404346D01*
X106364798Y-82523241D01*
X106364792Y-82523245D01*
X106360584Y-82525824D01*
X106180031Y-82680031D01*
X106025824Y-82860584D01*
X106023245Y-82864792D01*
X106023241Y-82864798D01*
X105904346Y-83058817D01*
X105901760Y-83063037D01*
X105810895Y-83282406D01*
X105755465Y-83513289D01*
X105736835Y-83750000D01*
X104263165Y-83750000D01*
X104244535Y-83513289D01*
X104189105Y-83282406D01*
X104098240Y-83063037D01*
X104095654Y-83058817D01*
X103976759Y-82864798D01*
X103976755Y-82864792D01*
X103974176Y-82860584D01*
X103819969Y-82680031D01*
X103639416Y-82525824D01*
X103635208Y-82523245D01*
X103635202Y-82523241D01*
X103441183Y-82404346D01*
X103436963Y-82401760D01*
X103432393Y-82399867D01*
X103432389Y-82399865D01*
X103222167Y-82312789D01*
X103222165Y-82312788D01*
X103217594Y-82310895D01*
X103137391Y-82291640D01*
X102991524Y-82256620D01*
X102991518Y-82256619D01*
X102986711Y-82255465D01*
X102750000Y-82236835D01*
X102513289Y-82255465D01*
X102508482Y-82256619D01*
X102508476Y-82256620D01*
X102362609Y-82291640D01*
X102282406Y-82310895D01*
X102277835Y-82312788D01*
X102277833Y-82312789D01*
X102067611Y-82399865D01*
X102067607Y-82399867D01*
X102063037Y-82401760D01*
X102058817Y-82404346D01*
X101864798Y-82523241D01*
X101864792Y-82523245D01*
X101860584Y-82525824D01*
X101680031Y-82680031D01*
X101525824Y-82860584D01*
X101523245Y-82864792D01*
X101523241Y-82864798D01*
X101404346Y-83058817D01*
X101401760Y-83063037D01*
X101310895Y-83282406D01*
X101255465Y-83513289D01*
X101236835Y-83750000D01*
X100508000Y-83750000D01*
X100508000Y-67216695D01*
X118587251Y-67216695D01*
X118600110Y-67439715D01*
X118601247Y-67444761D01*
X118601248Y-67444767D01*
X118625304Y-67551508D01*
X118649222Y-67657639D01*
X118733266Y-67864616D01*
X118784942Y-67948944D01*
X118847291Y-68050688D01*
X118849987Y-68055088D01*
X118996250Y-68223938D01*
X119125478Y-68331225D01*
X119142405Y-68345278D01*
X119182040Y-68404180D01*
X119187505Y-68432006D01*
X119191085Y-68476017D01*
X119191500Y-68486233D01*
X119191500Y-68494293D01*
X119191925Y-68497937D01*
X119194789Y-68522507D01*
X119195222Y-68526882D01*
X119199817Y-68583368D01*
X119201140Y-68599637D01*
X119203396Y-68606601D01*
X119204587Y-68612560D01*
X119205971Y-68618415D01*
X119206818Y-68625681D01*
X119231735Y-68694327D01*
X119233152Y-68698455D01*
X119255649Y-68767899D01*
X119259445Y-68774154D01*
X119261951Y-68779628D01*
X119264670Y-68785058D01*
X119267167Y-68791937D01*
X119271180Y-68798057D01*
X119271180Y-68798058D01*
X119307186Y-68852976D01*
X119309523Y-68856680D01*
X119347405Y-68919107D01*
X119351121Y-68923315D01*
X119351122Y-68923316D01*
X119354803Y-68927484D01*
X119354776Y-68927508D01*
X119357429Y-68930500D01*
X119360132Y-68933733D01*
X119364144Y-68939852D01*
X119369456Y-68944884D01*
X119420383Y-68993128D01*
X119422825Y-68995506D01*
X119666230Y-69238911D01*
X119678616Y-69253323D01*
X119687149Y-69264918D01*
X119687154Y-69264923D01*
X119691492Y-69270818D01*
X119697070Y-69275557D01*
X119697073Y-69275560D01*
X119731768Y-69305035D01*
X119739284Y-69311965D01*
X119744979Y-69317660D01*
X119747861Y-69319940D01*
X119767251Y-69335281D01*
X119770655Y-69338072D01*
X119820703Y-69380591D01*
X119826285Y-69385333D01*
X119832801Y-69388661D01*
X119837850Y-69392028D01*
X119842979Y-69395195D01*
X119848716Y-69399734D01*
X119914875Y-69430655D01*
X119918769Y-69432558D01*
X119983808Y-69465769D01*
X119990916Y-69467508D01*
X119996559Y-69469607D01*
X120002322Y-69471524D01*
X120008950Y-69474622D01*
X120016112Y-69476112D01*
X120016113Y-69476112D01*
X120080412Y-69489486D01*
X120084696Y-69490456D01*
X120155610Y-69507808D01*
X120161212Y-69508156D01*
X120161215Y-69508156D01*
X120166764Y-69508500D01*
X120166762Y-69508536D01*
X120170755Y-69508775D01*
X120174947Y-69509149D01*
X120182115Y-69510640D01*
X120259520Y-69508546D01*
X120262928Y-69508500D01*
X121133629Y-69508500D01*
X121201750Y-69528502D01*
X121222724Y-69545405D01*
X122204595Y-70527276D01*
X122238621Y-70589588D01*
X122241500Y-70616371D01*
X122241500Y-73821268D01*
X122221498Y-73889389D01*
X122195138Y-73918909D01*
X122150536Y-73955285D01*
X122146613Y-73960027D01*
X122146610Y-73960030D01*
X122097341Y-74019586D01*
X122018217Y-74115230D01*
X122015288Y-74120647D01*
X122015286Y-74120650D01*
X121922416Y-74292410D01*
X121922414Y-74292415D01*
X121919486Y-74297830D01*
X121858102Y-74496129D01*
X121857458Y-74502254D01*
X121857458Y-74502255D01*
X121842190Y-74647523D01*
X121815177Y-74713180D01*
X121756955Y-74753810D01*
X121686010Y-74756513D01*
X121634302Y-74729520D01*
X121546637Y-74653448D01*
X121541451Y-74650448D01*
X121541447Y-74650445D01*
X121368742Y-74550533D01*
X121363546Y-74547527D01*
X121163729Y-74478139D01*
X121157794Y-74477278D01*
X121157792Y-74477278D01*
X120960336Y-74448648D01*
X120960333Y-74448648D01*
X120954396Y-74447787D01*
X120743101Y-74457567D01*
X120611923Y-74489181D01*
X120543299Y-74505719D01*
X120543297Y-74505720D01*
X120537466Y-74507125D01*
X120532008Y-74509607D01*
X120532004Y-74509608D01*
X120416959Y-74561916D01*
X120344913Y-74594674D01*
X120172389Y-74717054D01*
X120026119Y-74869850D01*
X119911380Y-75047548D01*
X119832314Y-75243737D01*
X119791772Y-75451337D01*
X119791500Y-75456899D01*
X119791500Y-76412846D01*
X119806548Y-76570566D01*
X119866092Y-76773534D01*
X119962942Y-76961580D01*
X120093604Y-77127920D01*
X120098135Y-77131852D01*
X120098138Y-77131855D01*
X120184058Y-77206412D01*
X120253363Y-77266552D01*
X120258549Y-77269552D01*
X120258553Y-77269555D01*
X120354957Y-77325326D01*
X120436454Y-77372473D01*
X120636271Y-77441861D01*
X120642206Y-77442722D01*
X120642208Y-77442722D01*
X120839664Y-77471352D01*
X120839667Y-77471352D01*
X120845604Y-77472213D01*
X121056899Y-77462433D01*
X121192488Y-77429756D01*
X121256701Y-77414281D01*
X121256703Y-77414280D01*
X121262534Y-77412875D01*
X121267992Y-77410393D01*
X121267996Y-77410392D01*
X121383041Y-77358084D01*
X121455087Y-77325326D01*
X121627611Y-77202946D01*
X121631754Y-77198618D01*
X121635574Y-77195321D01*
X121700211Y-77165951D01*
X121770465Y-77176190D01*
X121824032Y-77222785D01*
X121843385Y-77279283D01*
X121851593Y-77369467D01*
X121855218Y-77409303D01*
X121856956Y-77415209D01*
X121856957Y-77415213D01*
X121873733Y-77472213D01*
X121913827Y-77608440D01*
X122009999Y-77792400D01*
X122140071Y-77954177D01*
X122144788Y-77958135D01*
X122144790Y-77958137D01*
X122248681Y-78045312D01*
X122299089Y-78087609D01*
X122304481Y-78090573D01*
X122304485Y-78090576D01*
X122475598Y-78184646D01*
X122480995Y-78187613D01*
X122678861Y-78250379D01*
X122684978Y-78251065D01*
X122684982Y-78251066D01*
X122761598Y-78259659D01*
X122840413Y-78268500D01*
X123152237Y-78268500D01*
X123155293Y-78268200D01*
X123155300Y-78268200D01*
X123300466Y-78253966D01*
X123300469Y-78253965D01*
X123306592Y-78253365D01*
X123438546Y-78213526D01*
X123499407Y-78195152D01*
X123499410Y-78195151D01*
X123505315Y-78193368D01*
X123512635Y-78189476D01*
X123683153Y-78098809D01*
X123683155Y-78098808D01*
X123688599Y-78095913D01*
X123748471Y-78047083D01*
X123844689Y-77968610D01*
X123844692Y-77968607D01*
X123849464Y-77964715D01*
X123902660Y-77900413D01*
X123961492Y-77860676D01*
X124032470Y-77859053D01*
X124093057Y-77896062D01*
X124097939Y-77901777D01*
X124136206Y-77949371D01*
X124136211Y-77949376D01*
X124140071Y-77954177D01*
X124144788Y-77958135D01*
X124144790Y-77958137D01*
X124248681Y-78045312D01*
X124299089Y-78087609D01*
X124304481Y-78090573D01*
X124304485Y-78090576D01*
X124475598Y-78184646D01*
X124480995Y-78187613D01*
X124678861Y-78250379D01*
X124684978Y-78251065D01*
X124684982Y-78251066D01*
X124761598Y-78259659D01*
X124840413Y-78268500D01*
X125152237Y-78268500D01*
X125155293Y-78268200D01*
X125155300Y-78268200D01*
X125300466Y-78253966D01*
X125300469Y-78253965D01*
X125306592Y-78253365D01*
X125438546Y-78213526D01*
X125499407Y-78195152D01*
X125499410Y-78195151D01*
X125505315Y-78193368D01*
X125512635Y-78189476D01*
X125683153Y-78098809D01*
X125683155Y-78098808D01*
X125688599Y-78095913D01*
X125748471Y-78047083D01*
X125844689Y-77968610D01*
X125844692Y-77968607D01*
X125849464Y-77964715D01*
X125902660Y-77900413D01*
X125961492Y-77860676D01*
X126032470Y-77859053D01*
X126093057Y-77896062D01*
X126097939Y-77901777D01*
X126136206Y-77949371D01*
X126136211Y-77949376D01*
X126140071Y-77954177D01*
X126144788Y-77958135D01*
X126144790Y-77958137D01*
X126248681Y-78045312D01*
X126299089Y-78087609D01*
X126304481Y-78090573D01*
X126304485Y-78090576D01*
X126475598Y-78184646D01*
X126480995Y-78187613D01*
X126678861Y-78250379D01*
X126684978Y-78251065D01*
X126684982Y-78251066D01*
X126761598Y-78259659D01*
X126840413Y-78268500D01*
X127152237Y-78268500D01*
X127155293Y-78268200D01*
X127155300Y-78268200D01*
X127300466Y-78253966D01*
X127300469Y-78253965D01*
X127306592Y-78253365D01*
X127438546Y-78213526D01*
X127499407Y-78195152D01*
X127499410Y-78195151D01*
X127505315Y-78193368D01*
X127512635Y-78189476D01*
X127683153Y-78098809D01*
X127683155Y-78098808D01*
X127688599Y-78095913D01*
X127748471Y-78047083D01*
X127844689Y-77968610D01*
X127844692Y-77968607D01*
X127849464Y-77964715D01*
X127981783Y-77804770D01*
X127985876Y-77797201D01*
X128077584Y-77627590D01*
X128077586Y-77627585D01*
X128080514Y-77622170D01*
X128141898Y-77423871D01*
X128157810Y-77272477D01*
X128184823Y-77206820D01*
X128243045Y-77166190D01*
X128313990Y-77163487D01*
X128365698Y-77190480D01*
X128453363Y-77266552D01*
X128458549Y-77269552D01*
X128458553Y-77269555D01*
X128554957Y-77325326D01*
X128636454Y-77372473D01*
X128836271Y-77441861D01*
X128842206Y-77442722D01*
X128842208Y-77442722D01*
X129039664Y-77471352D01*
X129039667Y-77471352D01*
X129045604Y-77472213D01*
X129256899Y-77462433D01*
X129392488Y-77429756D01*
X129456701Y-77414281D01*
X129456703Y-77414280D01*
X129462534Y-77412875D01*
X129467992Y-77410393D01*
X129467996Y-77410392D01*
X129583041Y-77358084D01*
X129655087Y-77325326D01*
X129827611Y-77202946D01*
X129973881Y-77050150D01*
X130088620Y-76872452D01*
X130167686Y-76676263D01*
X130208228Y-76468663D01*
X130208500Y-76463101D01*
X130208500Y-75507154D01*
X130193452Y-75349434D01*
X130133908Y-75146466D01*
X130037058Y-74958420D01*
X129906396Y-74792080D01*
X129901865Y-74788148D01*
X129901862Y-74788145D01*
X129751167Y-74657379D01*
X129746637Y-74653448D01*
X129741451Y-74650448D01*
X129741447Y-74650445D01*
X129568742Y-74550533D01*
X129563546Y-74547527D01*
X129363729Y-74478139D01*
X129357794Y-74477278D01*
X129357792Y-74477278D01*
X129160336Y-74448648D01*
X129160333Y-74448648D01*
X129154396Y-74447787D01*
X128943101Y-74457567D01*
X128811923Y-74489181D01*
X128743299Y-74505719D01*
X128743297Y-74505720D01*
X128737466Y-74507125D01*
X128732008Y-74509607D01*
X128732004Y-74509608D01*
X128616959Y-74561916D01*
X128544913Y-74594674D01*
X128372389Y-74717054D01*
X128368247Y-74721381D01*
X128364426Y-74724679D01*
X128299789Y-74754049D01*
X128229535Y-74743810D01*
X128175968Y-74697215D01*
X128156615Y-74640717D01*
X128145341Y-74516836D01*
X128145340Y-74516833D01*
X128144782Y-74510697D01*
X128142298Y-74502255D01*
X128087912Y-74317469D01*
X128086173Y-74311560D01*
X127990001Y-74127600D01*
X127859929Y-73965823D01*
X127853026Y-73960030D01*
X127803509Y-73918481D01*
X127764182Y-73859371D01*
X127758500Y-73821959D01*
X127758500Y-70616371D01*
X127778502Y-70548250D01*
X127795405Y-70527276D01*
X128777276Y-69545405D01*
X128839588Y-69511379D01*
X128866371Y-69508500D01*
X130682930Y-69508500D01*
X130701880Y-69509933D01*
X130716115Y-69512099D01*
X130716119Y-69512099D01*
X130723349Y-69513199D01*
X130730641Y-69512606D01*
X130730644Y-69512606D01*
X130776018Y-69508915D01*
X130786233Y-69508500D01*
X130794293Y-69508500D01*
X130811680Y-69506473D01*
X130822507Y-69505211D01*
X130826882Y-69504778D01*
X130892339Y-69499454D01*
X130892342Y-69499453D01*
X130899637Y-69498860D01*
X130906601Y-69496604D01*
X130912560Y-69495413D01*
X130918415Y-69494029D01*
X130925681Y-69493182D01*
X130994327Y-69468265D01*
X130998455Y-69466848D01*
X131060936Y-69446607D01*
X131060938Y-69446606D01*
X131067899Y-69444351D01*
X131074154Y-69440555D01*
X131079628Y-69438049D01*
X131085058Y-69435330D01*
X131091937Y-69432833D01*
X131098058Y-69428820D01*
X131152976Y-69392814D01*
X131156680Y-69390477D01*
X131219107Y-69352595D01*
X131227484Y-69345197D01*
X131227508Y-69345224D01*
X131230500Y-69342571D01*
X131233733Y-69339868D01*
X131239852Y-69335856D01*
X131293128Y-69279617D01*
X131295506Y-69277175D01*
X131988911Y-68583770D01*
X132003323Y-68571384D01*
X132014918Y-68562851D01*
X132014923Y-68562846D01*
X132020818Y-68558508D01*
X132025557Y-68552930D01*
X132025560Y-68552927D01*
X132055035Y-68518232D01*
X132061965Y-68510716D01*
X132067660Y-68505021D01*
X132073265Y-68497937D01*
X132085281Y-68482749D01*
X132088072Y-68479345D01*
X132130591Y-68429297D01*
X132130592Y-68429295D01*
X132135333Y-68423715D01*
X132138661Y-68417199D01*
X132142028Y-68412150D01*
X132145195Y-68407021D01*
X132149734Y-68401284D01*
X132180655Y-68335125D01*
X132182561Y-68331225D01*
X132201482Y-68294171D01*
X132215769Y-68266192D01*
X132217508Y-68259084D01*
X132219607Y-68253441D01*
X132221524Y-68247678D01*
X132224622Y-68241050D01*
X132227495Y-68227240D01*
X132239486Y-68169588D01*
X132240457Y-68165299D01*
X132256473Y-68099845D01*
X132257808Y-68094390D01*
X132258500Y-68083236D01*
X132258536Y-68083238D01*
X132258775Y-68079245D01*
X132259149Y-68075053D01*
X132260640Y-68067885D01*
X132258546Y-67990479D01*
X132258500Y-67987072D01*
X132258500Y-66125400D01*
X135891500Y-66125400D01*
X135891837Y-66128646D01*
X135891837Y-66128650D01*
X135898477Y-66192642D01*
X135902474Y-66231166D01*
X135904655Y-66237702D01*
X135904655Y-66237704D01*
X135934134Y-66326063D01*
X135958450Y-66398946D01*
X136051522Y-66549348D01*
X136176697Y-66674305D01*
X136182927Y-66678145D01*
X136182928Y-66678146D01*
X136320090Y-66762694D01*
X136327262Y-66767115D01*
X136382396Y-66785402D01*
X136488611Y-66820632D01*
X136488613Y-66820632D01*
X136495139Y-66822797D01*
X136501975Y-66823497D01*
X136501978Y-66823498D01*
X136540386Y-66827433D01*
X136599600Y-66833500D01*
X137400400Y-66833500D01*
X137403646Y-66833163D01*
X137403650Y-66833163D01*
X137499308Y-66823238D01*
X137499312Y-66823237D01*
X137506166Y-66822526D01*
X137512702Y-66820345D01*
X137512704Y-66820345D01*
X137649787Y-66774610D01*
X137673946Y-66766550D01*
X137824348Y-66673478D01*
X137949305Y-66548303D01*
X137981075Y-66496764D01*
X138033846Y-66449271D01*
X138103918Y-66437847D01*
X138169042Y-66466121D01*
X138187418Y-66485045D01*
X138193604Y-66492920D01*
X138198135Y-66496852D01*
X138198138Y-66496855D01*
X138295539Y-66581375D01*
X138353363Y-66631552D01*
X138358549Y-66634552D01*
X138358553Y-66634555D01*
X138454957Y-66690326D01*
X138536454Y-66737473D01*
X138736271Y-66806861D01*
X138742206Y-66807722D01*
X138742208Y-66807722D01*
X138939664Y-66836352D01*
X138939667Y-66836352D01*
X138945604Y-66837213D01*
X139156899Y-66827433D01*
X139288077Y-66795819D01*
X139356701Y-66779281D01*
X139356703Y-66779280D01*
X139362534Y-66777875D01*
X139367992Y-66775393D01*
X139367996Y-66775392D01*
X139483041Y-66723084D01*
X139555087Y-66690326D01*
X139727611Y-66567946D01*
X139873881Y-66415150D01*
X139877130Y-66410119D01*
X139877135Y-66410112D01*
X139895033Y-66382393D01*
X139948789Y-66336016D01*
X140019085Y-66326063D01*
X140083602Y-66355696D01*
X140099970Y-66372909D01*
X140190262Y-66487857D01*
X140198499Y-66496506D01*
X140349123Y-66627212D01*
X140358847Y-66634147D01*
X140531467Y-66734010D01*
X140542331Y-66738984D01*
X140730727Y-66804407D01*
X140731716Y-66804648D01*
X140742008Y-66803180D01*
X140746000Y-66789615D01*
X140746000Y-66785402D01*
X141254000Y-66785402D01*
X141257973Y-66798933D01*
X141267399Y-66800288D01*
X141356537Y-66778806D01*
X141367832Y-66774917D01*
X141549382Y-66692371D01*
X141559724Y-66686424D01*
X141722397Y-66571032D01*
X141731425Y-66563239D01*
X141869342Y-66419169D01*
X141876738Y-66409804D01*
X141984921Y-66242259D01*
X141990417Y-66231655D01*
X142064961Y-66046688D01*
X142068355Y-66035230D01*
X142106857Y-65838072D01*
X142107934Y-65829209D01*
X142108000Y-65826500D01*
X142108000Y-65722115D01*
X142103525Y-65706876D01*
X142102135Y-65705671D01*
X142094452Y-65704000D01*
X141272115Y-65704000D01*
X141256876Y-65708475D01*
X141255671Y-65709865D01*
X141254000Y-65717548D01*
X141254000Y-66785402D01*
X140746000Y-66785402D01*
X140746000Y-65177885D01*
X141254000Y-65177885D01*
X141258475Y-65193124D01*
X141259865Y-65194329D01*
X141267548Y-65196000D01*
X142089885Y-65196000D01*
X142105124Y-65191525D01*
X142106329Y-65190135D01*
X142108000Y-65182452D01*
X142108000Y-65125168D01*
X142107715Y-65119192D01*
X142093529Y-64970506D01*
X142091270Y-64958772D01*
X142035128Y-64767401D01*
X142030698Y-64756325D01*
X141939381Y-64579022D01*
X141932931Y-64568976D01*
X141809738Y-64412143D01*
X141801501Y-64403494D01*
X141650877Y-64272788D01*
X141641153Y-64265853D01*
X141468533Y-64165990D01*
X141457669Y-64161016D01*
X141269273Y-64095593D01*
X141268284Y-64095352D01*
X141257992Y-64096820D01*
X141254000Y-64110385D01*
X141254000Y-65177885D01*
X140746000Y-65177885D01*
X140746000Y-64114598D01*
X140742027Y-64101067D01*
X140732601Y-64099712D01*
X140643463Y-64121194D01*
X140632168Y-64125083D01*
X140450618Y-64207629D01*
X140440276Y-64213576D01*
X140277603Y-64328968D01*
X140268575Y-64336761D01*
X140130658Y-64480831D01*
X140123259Y-64490200D01*
X140105582Y-64517577D01*
X140051828Y-64563955D01*
X139981532Y-64573909D01*
X139917015Y-64544278D01*
X139900644Y-64527063D01*
X139887357Y-64510148D01*
X139806396Y-64407080D01*
X139801865Y-64403148D01*
X139801862Y-64403145D01*
X139651167Y-64272379D01*
X139646637Y-64268448D01*
X139641451Y-64265448D01*
X139641447Y-64265445D01*
X139468742Y-64165533D01*
X139463546Y-64162527D01*
X139263729Y-64093139D01*
X139257794Y-64092278D01*
X139257792Y-64092278D01*
X139060336Y-64063648D01*
X139060333Y-64063648D01*
X139054396Y-64062787D01*
X138843101Y-64072567D01*
X138730466Y-64099712D01*
X138643299Y-64120719D01*
X138643297Y-64120720D01*
X138637466Y-64122125D01*
X138632008Y-64124607D01*
X138632004Y-64124608D01*
X138540990Y-64165990D01*
X138444913Y-64209674D01*
X138272389Y-64332054D01*
X138268247Y-64336381D01*
X138268241Y-64336386D01*
X138181194Y-64427317D01*
X138119639Y-64462694D01*
X138048730Y-64459175D01*
X137990979Y-64417879D01*
X137983032Y-64406491D01*
X137948478Y-64350652D01*
X137823303Y-64225695D01*
X137804890Y-64214345D01*
X137678968Y-64136725D01*
X137678966Y-64136724D01*
X137672738Y-64132885D01*
X137564005Y-64096820D01*
X137511389Y-64079368D01*
X137511387Y-64079368D01*
X137504861Y-64077203D01*
X137498025Y-64076503D01*
X137498022Y-64076502D01*
X137454969Y-64072091D01*
X137400400Y-64066500D01*
X136599600Y-64066500D01*
X136596354Y-64066837D01*
X136596350Y-64066837D01*
X136500692Y-64076762D01*
X136500688Y-64076763D01*
X136493834Y-64077474D01*
X136487298Y-64079655D01*
X136487296Y-64079655D01*
X136423117Y-64101067D01*
X136326054Y-64133450D01*
X136175652Y-64226522D01*
X136050695Y-64351697D01*
X136046855Y-64357927D01*
X136046854Y-64357928D01*
X135982005Y-64463133D01*
X135957885Y-64502262D01*
X135935757Y-64568976D01*
X135908239Y-64651942D01*
X135902203Y-64670139D01*
X135891500Y-64774600D01*
X135891500Y-66125400D01*
X132258500Y-66125400D01*
X132258500Y-65067070D01*
X132259933Y-65048120D01*
X132262099Y-65033885D01*
X132262099Y-65033881D01*
X132263199Y-65026651D01*
X132258915Y-64973982D01*
X132258500Y-64963767D01*
X132258500Y-64955707D01*
X132255209Y-64927480D01*
X132254778Y-64923121D01*
X132249453Y-64857660D01*
X132248860Y-64850364D01*
X132246605Y-64843403D01*
X132245418Y-64837463D01*
X132244029Y-64831588D01*
X132243182Y-64824319D01*
X132218264Y-64755670D01*
X132216847Y-64751542D01*
X132196607Y-64689064D01*
X132196606Y-64689062D01*
X132194351Y-64682101D01*
X132190555Y-64675846D01*
X132188049Y-64670372D01*
X132185330Y-64664942D01*
X132182833Y-64658063D01*
X132142814Y-64597024D01*
X132140467Y-64593305D01*
X132130406Y-64576725D01*
X132102595Y-64530893D01*
X132095197Y-64522516D01*
X132095224Y-64522492D01*
X132092571Y-64519500D01*
X132089868Y-64516267D01*
X132085856Y-64510148D01*
X132029617Y-64456872D01*
X132027175Y-64454494D01*
X131793770Y-64221089D01*
X131781384Y-64206677D01*
X131772851Y-64195082D01*
X131772846Y-64195077D01*
X131768508Y-64189182D01*
X131762930Y-64184443D01*
X131762927Y-64184440D01*
X131728232Y-64154965D01*
X131720716Y-64148035D01*
X131715021Y-64142340D01*
X131703070Y-64132885D01*
X131692749Y-64124719D01*
X131689345Y-64121928D01*
X131639297Y-64079409D01*
X131639295Y-64079408D01*
X131633715Y-64074667D01*
X131627199Y-64071339D01*
X131622150Y-64067972D01*
X131617021Y-64064805D01*
X131611284Y-64060266D01*
X131545125Y-64029345D01*
X131541225Y-64027439D01*
X131476192Y-63994231D01*
X131469084Y-63992492D01*
X131463441Y-63990393D01*
X131457678Y-63988476D01*
X131451050Y-63985378D01*
X131379583Y-63970513D01*
X131375299Y-63969543D01*
X131304390Y-63952192D01*
X131298788Y-63951844D01*
X131298785Y-63951844D01*
X131298507Y-63951827D01*
X131298388Y-63951784D01*
X131293242Y-63951001D01*
X131293398Y-63949976D01*
X131231755Y-63927647D01*
X131200515Y-63894509D01*
X131192822Y-63882617D01*
X131192820Y-63882614D01*
X131190014Y-63878277D01*
X131039670Y-63713051D01*
X131035619Y-63709852D01*
X131035615Y-63709848D01*
X130868414Y-63577800D01*
X130868410Y-63577798D01*
X130864359Y-63574598D01*
X130668789Y-63466638D01*
X130663920Y-63464914D01*
X130663916Y-63464912D01*
X130463087Y-63393795D01*
X130463083Y-63393794D01*
X130458212Y-63392069D01*
X130453119Y-63391162D01*
X130453116Y-63391161D01*
X130243373Y-63353800D01*
X130243367Y-63353799D01*
X130238284Y-63352894D01*
X130164452Y-63351992D01*
X130020081Y-63350228D01*
X130020079Y-63350228D01*
X130014911Y-63350165D01*
X129794091Y-63383955D01*
X129581756Y-63453357D01*
X129383607Y-63556507D01*
X129379474Y-63559610D01*
X129379471Y-63559612D01*
X129209100Y-63687530D01*
X129204965Y-63690635D01*
X129201393Y-63694373D01*
X129093729Y-63807037D01*
X129050629Y-63852138D01*
X128943201Y-64009621D01*
X128888293Y-64054621D01*
X128817768Y-64062792D01*
X128754021Y-64031538D01*
X128733324Y-64007054D01*
X128652822Y-63882617D01*
X128652820Y-63882614D01*
X128650014Y-63878277D01*
X128499670Y-63713051D01*
X128495619Y-63709852D01*
X128495615Y-63709848D01*
X128328414Y-63577800D01*
X128328410Y-63577798D01*
X128324359Y-63574598D01*
X128128789Y-63466638D01*
X128123920Y-63464914D01*
X128123916Y-63464912D01*
X127923087Y-63393795D01*
X127923083Y-63393794D01*
X127918212Y-63392069D01*
X127913119Y-63391162D01*
X127913116Y-63391161D01*
X127703373Y-63353800D01*
X127703367Y-63353799D01*
X127698284Y-63352894D01*
X127624452Y-63351992D01*
X127480081Y-63350228D01*
X127480079Y-63350228D01*
X127474911Y-63350165D01*
X127254091Y-63383955D01*
X127041756Y-63453357D01*
X126843607Y-63556507D01*
X126839474Y-63559610D01*
X126839471Y-63559612D01*
X126669100Y-63687530D01*
X126664965Y-63690635D01*
X126661393Y-63694373D01*
X126553729Y-63807037D01*
X126510629Y-63852138D01*
X126403201Y-64009621D01*
X126348293Y-64054621D01*
X126277768Y-64062792D01*
X126214021Y-64031538D01*
X126193324Y-64007054D01*
X126112822Y-63882617D01*
X126112820Y-63882614D01*
X126110014Y-63878277D01*
X125959670Y-63713051D01*
X125955619Y-63709852D01*
X125955615Y-63709848D01*
X125788414Y-63577800D01*
X125788410Y-63577798D01*
X125784359Y-63574598D01*
X125588789Y-63466638D01*
X125583920Y-63464914D01*
X125583916Y-63464912D01*
X125383087Y-63393795D01*
X125383083Y-63393794D01*
X125378212Y-63392069D01*
X125373119Y-63391162D01*
X125373116Y-63391161D01*
X125163373Y-63353800D01*
X125163367Y-63353799D01*
X125158284Y-63352894D01*
X125084452Y-63351992D01*
X124940081Y-63350228D01*
X124940079Y-63350228D01*
X124934911Y-63350165D01*
X124714091Y-63383955D01*
X124501756Y-63453357D01*
X124303607Y-63556507D01*
X124299474Y-63559610D01*
X124299471Y-63559612D01*
X124129100Y-63687530D01*
X124124965Y-63690635D01*
X124121393Y-63694373D01*
X124013729Y-63807037D01*
X123970629Y-63852138D01*
X123863201Y-64009621D01*
X123808293Y-64054621D01*
X123737768Y-64062792D01*
X123674021Y-64031538D01*
X123653324Y-64007054D01*
X123572822Y-63882617D01*
X123572820Y-63882614D01*
X123570014Y-63878277D01*
X123419670Y-63713051D01*
X123415619Y-63709852D01*
X123415615Y-63709848D01*
X123248414Y-63577800D01*
X123248410Y-63577798D01*
X123244359Y-63574598D01*
X123048789Y-63466638D01*
X123043920Y-63464914D01*
X123043916Y-63464912D01*
X122843087Y-63393795D01*
X122843083Y-63393794D01*
X122838212Y-63392069D01*
X122833119Y-63391162D01*
X122833116Y-63391161D01*
X122623373Y-63353800D01*
X122623367Y-63353799D01*
X122618284Y-63352894D01*
X122544452Y-63351992D01*
X122400081Y-63350228D01*
X122400079Y-63350228D01*
X122394911Y-63350165D01*
X122174091Y-63383955D01*
X121961756Y-63453357D01*
X121763607Y-63556507D01*
X121759474Y-63559610D01*
X121759471Y-63559612D01*
X121589100Y-63687530D01*
X121584965Y-63690635D01*
X121528537Y-63749684D01*
X121504283Y-63775064D01*
X121442759Y-63810494D01*
X121371846Y-63807037D01*
X121314060Y-63765791D01*
X121295207Y-63732243D01*
X121253767Y-63621703D01*
X121250615Y-63613295D01*
X121163261Y-63496739D01*
X121046705Y-63409385D01*
X120910316Y-63358255D01*
X120848134Y-63351500D01*
X119051866Y-63351500D01*
X118989684Y-63358255D01*
X118853295Y-63409385D01*
X118736739Y-63496739D01*
X118649385Y-63613295D01*
X118598255Y-63749684D01*
X118591500Y-63811866D01*
X118591500Y-65608134D01*
X118598255Y-65670316D01*
X118649385Y-65806705D01*
X118736739Y-65923261D01*
X118853295Y-66010615D01*
X118861704Y-66013767D01*
X118861705Y-66013768D01*
X118970451Y-66054535D01*
X119027216Y-66097176D01*
X119051916Y-66163738D01*
X119036709Y-66233087D01*
X119017316Y-66259568D01*
X118899942Y-66382393D01*
X118890629Y-66392138D01*
X118887720Y-66396403D01*
X118887714Y-66396411D01*
X118840161Y-66466121D01*
X118764743Y-66576680D01*
X118722216Y-66668296D01*
X118675533Y-66768868D01*
X118670688Y-66779305D01*
X118610989Y-66994570D01*
X118587251Y-67216695D01*
X100508000Y-67216695D01*
X100508000Y-66125400D01*
X108891500Y-66125400D01*
X108891837Y-66128646D01*
X108891837Y-66128650D01*
X108898477Y-66192642D01*
X108902474Y-66231166D01*
X108904655Y-66237702D01*
X108904655Y-66237704D01*
X108934134Y-66326063D01*
X108958450Y-66398946D01*
X109051522Y-66549348D01*
X109176697Y-66674305D01*
X109182927Y-66678145D01*
X109182928Y-66678146D01*
X109320090Y-66762694D01*
X109327262Y-66767115D01*
X109382396Y-66785402D01*
X109488611Y-66820632D01*
X109488613Y-66820632D01*
X109495139Y-66822797D01*
X109501975Y-66823497D01*
X109501978Y-66823498D01*
X109540386Y-66827433D01*
X109599600Y-66833500D01*
X110400400Y-66833500D01*
X110403646Y-66833163D01*
X110403650Y-66833163D01*
X110499308Y-66823238D01*
X110499312Y-66823237D01*
X110506166Y-66822526D01*
X110512702Y-66820345D01*
X110512704Y-66820345D01*
X110649787Y-66774610D01*
X110673946Y-66766550D01*
X110824348Y-66673478D01*
X110949305Y-66548303D01*
X110953148Y-66542069D01*
X110981355Y-66496310D01*
X111034127Y-66448817D01*
X111104199Y-66437395D01*
X111169323Y-66465669D01*
X111187702Y-66484597D01*
X111190262Y-66487856D01*
X111198499Y-66496506D01*
X111349123Y-66627212D01*
X111358847Y-66634147D01*
X111531467Y-66734010D01*
X111542331Y-66738984D01*
X111730727Y-66804407D01*
X111731716Y-66804648D01*
X111742008Y-66803180D01*
X111746000Y-66789615D01*
X111746000Y-66785402D01*
X112254000Y-66785402D01*
X112257973Y-66798933D01*
X112267399Y-66800288D01*
X112356537Y-66778806D01*
X112367832Y-66774917D01*
X112549382Y-66692371D01*
X112559724Y-66686424D01*
X112722397Y-66571032D01*
X112731425Y-66563239D01*
X112869342Y-66419169D01*
X112876738Y-66409804D01*
X112984921Y-66242259D01*
X112990417Y-66231655D01*
X113064961Y-66046688D01*
X113068355Y-66035230D01*
X113106857Y-65838072D01*
X113107934Y-65829209D01*
X113108000Y-65826500D01*
X113108000Y-65722115D01*
X113103525Y-65706876D01*
X113102135Y-65705671D01*
X113094452Y-65704000D01*
X112272115Y-65704000D01*
X112256876Y-65708475D01*
X112255671Y-65709865D01*
X112254000Y-65717548D01*
X112254000Y-66785402D01*
X111746000Y-66785402D01*
X111746000Y-65177885D01*
X112254000Y-65177885D01*
X112258475Y-65193124D01*
X112259865Y-65194329D01*
X112267548Y-65196000D01*
X113089885Y-65196000D01*
X113105124Y-65191525D01*
X113106329Y-65190135D01*
X113108000Y-65182452D01*
X113108000Y-65125168D01*
X113107715Y-65119192D01*
X113093529Y-64970506D01*
X113091270Y-64958772D01*
X113035128Y-64767401D01*
X113030698Y-64756325D01*
X112939381Y-64579022D01*
X112932931Y-64568976D01*
X112809738Y-64412143D01*
X112801501Y-64403494D01*
X112650877Y-64272788D01*
X112641153Y-64265853D01*
X112468533Y-64165990D01*
X112457669Y-64161016D01*
X112269273Y-64095593D01*
X112268284Y-64095352D01*
X112257992Y-64096820D01*
X112254000Y-64110385D01*
X112254000Y-65177885D01*
X111746000Y-65177885D01*
X111746000Y-64114598D01*
X111742027Y-64101067D01*
X111732601Y-64099712D01*
X111643463Y-64121194D01*
X111632168Y-64125083D01*
X111450618Y-64207629D01*
X111440276Y-64213576D01*
X111277603Y-64328968D01*
X111268575Y-64336761D01*
X111181465Y-64427757D01*
X111119910Y-64463133D01*
X111049000Y-64459614D01*
X110991250Y-64418317D01*
X110983315Y-64406947D01*
X110948478Y-64350652D01*
X110823303Y-64225695D01*
X110804890Y-64214345D01*
X110678968Y-64136725D01*
X110678966Y-64136724D01*
X110672738Y-64132885D01*
X110564005Y-64096820D01*
X110511389Y-64079368D01*
X110511387Y-64079368D01*
X110504861Y-64077203D01*
X110498025Y-64076503D01*
X110498022Y-64076502D01*
X110454969Y-64072091D01*
X110400400Y-64066500D01*
X109599600Y-64066500D01*
X109596354Y-64066837D01*
X109596350Y-64066837D01*
X109500692Y-64076762D01*
X109500688Y-64076763D01*
X109493834Y-64077474D01*
X109487298Y-64079655D01*
X109487296Y-64079655D01*
X109423117Y-64101067D01*
X109326054Y-64133450D01*
X109175652Y-64226522D01*
X109050695Y-64351697D01*
X109046855Y-64357927D01*
X109046854Y-64357928D01*
X108982005Y-64463133D01*
X108957885Y-64502262D01*
X108935757Y-64568976D01*
X108908239Y-64651942D01*
X108902203Y-64670139D01*
X108891500Y-64774600D01*
X108891500Y-66125400D01*
X100508000Y-66125400D01*
X100508000Y-54132703D01*
X101890743Y-54132703D01*
X101891302Y-54136947D01*
X101891302Y-54136951D01*
X101907810Y-54262340D01*
X101928268Y-54417734D01*
X102004129Y-54695036D01*
X102005813Y-54698984D01*
X102113168Y-54950672D01*
X102116923Y-54959476D01*
X102264561Y-55206161D01*
X102444313Y-55430528D01*
X102652851Y-55628423D01*
X102886317Y-55796186D01*
X102890112Y-55798195D01*
X102890113Y-55798196D01*
X102911869Y-55809715D01*
X103140392Y-55930712D01*
X103164699Y-55939607D01*
X103391092Y-56022455D01*
X103410373Y-56029511D01*
X103691264Y-56090755D01*
X103719841Y-56093004D01*
X103914282Y-56108307D01*
X103914291Y-56108307D01*
X103916739Y-56108500D01*
X104072271Y-56108500D01*
X104074407Y-56108354D01*
X104074418Y-56108354D01*
X104282548Y-56094165D01*
X104282554Y-56094164D01*
X104286825Y-56093873D01*
X104291020Y-56093004D01*
X104291022Y-56093004D01*
X104427583Y-56064724D01*
X104568342Y-56035574D01*
X104839343Y-55939607D01*
X105094812Y-55807750D01*
X105098313Y-55805289D01*
X105098317Y-55805287D01*
X105273527Y-55682147D01*
X105330023Y-55642441D01*
X105540622Y-55446740D01*
X105722713Y-55224268D01*
X105872927Y-54979142D01*
X105885425Y-54950672D01*
X105986757Y-54719830D01*
X105988483Y-54715898D01*
X106025488Y-54585993D01*
X106066068Y-54443534D01*
X106067244Y-54439406D01*
X106107751Y-54154784D01*
X106107845Y-54136951D01*
X106109235Y-53871583D01*
X106109235Y-53871576D01*
X106109257Y-53867297D01*
X106071732Y-53582266D01*
X105995871Y-53304964D01*
X105938633Y-53170772D01*
X105884763Y-53044476D01*
X105884761Y-53044472D01*
X105883077Y-53040524D01*
X105799170Y-52900326D01*
X105737643Y-52797521D01*
X105737640Y-52797517D01*
X105735439Y-52793839D01*
X105555687Y-52569472D01*
X105432289Y-52452372D01*
X105350258Y-52374527D01*
X105350255Y-52374525D01*
X105347149Y-52371577D01*
X105113683Y-52203814D01*
X105091843Y-52192250D01*
X105068654Y-52179972D01*
X104859608Y-52069288D01*
X104606143Y-51976533D01*
X104593658Y-51971964D01*
X104593656Y-51971963D01*
X104589627Y-51970489D01*
X104308736Y-51909245D01*
X104277685Y-51906801D01*
X104085718Y-51891693D01*
X104085709Y-51891693D01*
X104083261Y-51891500D01*
X103927729Y-51891500D01*
X103925593Y-51891646D01*
X103925582Y-51891646D01*
X103717452Y-51905835D01*
X103717446Y-51905836D01*
X103713175Y-51906127D01*
X103708980Y-51906996D01*
X103708978Y-51906996D01*
X103640568Y-51921163D01*
X103431658Y-51964426D01*
X103160657Y-52060393D01*
X102905188Y-52192250D01*
X102901687Y-52194711D01*
X102901683Y-52194713D01*
X102808960Y-52259880D01*
X102669977Y-52357559D01*
X102459378Y-52553260D01*
X102277287Y-52775732D01*
X102127073Y-53020858D01*
X102125347Y-53024791D01*
X102125346Y-53024792D01*
X102015964Y-53273972D01*
X102011517Y-53284102D01*
X101932756Y-53560594D01*
X101892249Y-53845216D01*
X101892227Y-53849505D01*
X101892226Y-53849512D01*
X101891159Y-54053207D01*
X101890743Y-54132703D01*
X100508000Y-54132703D01*
X100508000Y-54053207D01*
X100509746Y-54032303D01*
X100512264Y-54017335D01*
X100513071Y-54012539D01*
X100513224Y-54000000D01*
X100511143Y-53985465D01*
X100510044Y-53961012D01*
X100526784Y-53641588D01*
X100528162Y-53628471D01*
X100583276Y-53280494D01*
X100586018Y-53267594D01*
X100657376Y-53001284D01*
X100677204Y-52927285D01*
X100681279Y-52914744D01*
X100734641Y-52775732D01*
X100807531Y-52585845D01*
X100812895Y-52573796D01*
X100972843Y-52259880D01*
X100979438Y-52248458D01*
X101017216Y-52190285D01*
X101171321Y-51952986D01*
X101179071Y-51942319D01*
X101205115Y-51910158D01*
X101400783Y-51668527D01*
X101409608Y-51658726D01*
X101658726Y-51409608D01*
X101668527Y-51400783D01*
X101942319Y-51179071D01*
X101952988Y-51171319D01*
X102129532Y-51056670D01*
X102248458Y-50979438D01*
X102259880Y-50972843D01*
X102573796Y-50812895D01*
X102585845Y-50807531D01*
X102760387Y-50740531D01*
X102914745Y-50681279D01*
X102927287Y-50677203D01*
X102972871Y-50664989D01*
X103267594Y-50586018D01*
X103280494Y-50583276D01*
X103374190Y-50568436D01*
X103628472Y-50528162D01*
X103641587Y-50526784D01*
X103677820Y-50524885D01*
X103993406Y-50508346D01*
X104006594Y-50508346D01*
X104322180Y-50524885D01*
X104358413Y-50526784D01*
X104371528Y-50528162D01*
X104625810Y-50568436D01*
X104719506Y-50583276D01*
X104732406Y-50586018D01*
X105027130Y-50664989D01*
X105072713Y-50677203D01*
X105085255Y-50681279D01*
X105239613Y-50740531D01*
X105414155Y-50807531D01*
X105426204Y-50812895D01*
X105740120Y-50972843D01*
X105751542Y-50979438D01*
X105870469Y-51056670D01*
X106047012Y-51171319D01*
X106057681Y-51179071D01*
X106331473Y-51400783D01*
X106341274Y-51409608D01*
X106590392Y-51658726D01*
X106599217Y-51668527D01*
X106794886Y-51910158D01*
X106820929Y-51942319D01*
X106828679Y-51952986D01*
X106982784Y-52190285D01*
X107020562Y-52248458D01*
X107027157Y-52259880D01*
X107187105Y-52573796D01*
X107192469Y-52585845D01*
X107265360Y-52775732D01*
X107318721Y-52914744D01*
X107322796Y-52927285D01*
X107342624Y-53001284D01*
X107413982Y-53267594D01*
X107416724Y-53280494D01*
X107471838Y-53628471D01*
X107473216Y-53641585D01*
X107488970Y-53942172D01*
X107489764Y-53957329D01*
X107488436Y-53983312D01*
X107488195Y-53984856D01*
X107488195Y-53984860D01*
X107486814Y-53993730D01*
X107487978Y-54002632D01*
X107487978Y-54002635D01*
X107490936Y-54025251D01*
X107492000Y-54041589D01*
X107492000Y-54946793D01*
X107490254Y-54967697D01*
X107486929Y-54987461D01*
X107486870Y-54992322D01*
X107486853Y-54993730D01*
X107486776Y-55000000D01*
X107487467Y-55004828D01*
X107487475Y-55004947D01*
X107488575Y-55016417D01*
X107499150Y-55231666D01*
X107504681Y-55344259D01*
X107555256Y-55685202D01*
X107556006Y-55688196D01*
X107619340Y-55941038D01*
X107639005Y-56019547D01*
X107640042Y-56022446D01*
X107640045Y-56022455D01*
X107670833Y-56108500D01*
X107755122Y-56344073D01*
X107756438Y-56346856D01*
X107756442Y-56346865D01*
X107793735Y-56425714D01*
X107902489Y-56655654D01*
X107904072Y-56658295D01*
X108078098Y-56948641D01*
X108078104Y-56948650D01*
X108079687Y-56951291D01*
X108081530Y-56953776D01*
X108165764Y-57067352D01*
X108285009Y-57228136D01*
X108516478Y-57483522D01*
X108771864Y-57714991D01*
X109048709Y-57920313D01*
X109051350Y-57921896D01*
X109051359Y-57921902D01*
X109249040Y-58040387D01*
X109344346Y-58097511D01*
X109347125Y-58098825D01*
X109347128Y-58098827D01*
X109653135Y-58243558D01*
X109653144Y-58243562D01*
X109655927Y-58244878D01*
X109818190Y-58302937D01*
X109977545Y-58359955D01*
X109977554Y-58359958D01*
X109980453Y-58360995D01*
X109983449Y-58361745D01*
X109983454Y-58361747D01*
X110269644Y-58433434D01*
X110314798Y-58444744D01*
X110655741Y-58495319D01*
X110658827Y-58495471D01*
X110658831Y-58495471D01*
X110967828Y-58510651D01*
X110982544Y-58512244D01*
X110987461Y-58513071D01*
X110993753Y-58513148D01*
X110995133Y-58513165D01*
X110995138Y-58513165D01*
X111000000Y-58513224D01*
X111004828Y-58512533D01*
X111004947Y-58512525D01*
X111016417Y-58511425D01*
X111341169Y-58495471D01*
X111341173Y-58495471D01*
X111344259Y-58495319D01*
X111685202Y-58444744D01*
X111730356Y-58433434D01*
X112016546Y-58361747D01*
X112016551Y-58361745D01*
X112019547Y-58360995D01*
X112022446Y-58359958D01*
X112022455Y-58359955D01*
X112181810Y-58302936D01*
X112344073Y-58244878D01*
X112346856Y-58243562D01*
X112346865Y-58243558D01*
X112652872Y-58098827D01*
X112652875Y-58098825D01*
X112655654Y-58097511D01*
X112750960Y-58040387D01*
X112948641Y-57921902D01*
X112948650Y-57921896D01*
X112951291Y-57920313D01*
X113228136Y-57714991D01*
X113483522Y-57483522D01*
X113714991Y-57228136D01*
X113834237Y-57067352D01*
X113918470Y-56953776D01*
X113920313Y-56951291D01*
X113921896Y-56948650D01*
X113921902Y-56948641D01*
X114095928Y-56658295D01*
X114097511Y-56655654D01*
X114206265Y-56425714D01*
X114243558Y-56346865D01*
X114243562Y-56346856D01*
X114244878Y-56344073D01*
X114329167Y-56108500D01*
X114359955Y-56022455D01*
X114359958Y-56022446D01*
X114360995Y-56019547D01*
X114380661Y-55941038D01*
X114443994Y-55688196D01*
X114444744Y-55685202D01*
X114495319Y-55344259D01*
X114500851Y-55231666D01*
X114510651Y-55032172D01*
X114512244Y-55017456D01*
X114512244Y-55017454D01*
X114513071Y-55012539D01*
X114513150Y-55006041D01*
X114513165Y-55004859D01*
X114513165Y-55004855D01*
X114513224Y-55000000D01*
X114509273Y-54972412D01*
X114508000Y-54954549D01*
X114508000Y-52049328D01*
X114509500Y-52029943D01*
X114511805Y-52015141D01*
X114511805Y-52015139D01*
X114513186Y-52006270D01*
X114512022Y-51997366D01*
X114511195Y-51991041D01*
X114510452Y-51965713D01*
X114510545Y-51964426D01*
X114522543Y-51796657D01*
X114525101Y-51778863D01*
X114566520Y-51588462D01*
X114571586Y-51571212D01*
X114639682Y-51388642D01*
X114647149Y-51372290D01*
X114682810Y-51306980D01*
X114740534Y-51201266D01*
X114750248Y-51186152D01*
X114867023Y-51030158D01*
X114878796Y-51016572D01*
X115016572Y-50878796D01*
X115030158Y-50867023D01*
X115076484Y-50832344D01*
X115186152Y-50750248D01*
X115201266Y-50740534D01*
X115363530Y-50651932D01*
X115372290Y-50647149D01*
X115388642Y-50639682D01*
X115571212Y-50571586D01*
X115588460Y-50566521D01*
X115778863Y-50525101D01*
X115796658Y-50522543D01*
X115845557Y-50519046D01*
X115958631Y-50510959D01*
X115976533Y-50511703D01*
X115984858Y-50511805D01*
X115993730Y-50513186D01*
X116002632Y-50512022D01*
X116002635Y-50512022D01*
X116025251Y-50509064D01*
X116041589Y-50508000D01*
X120361850Y-50508000D01*
X120429971Y-50528002D01*
G37*
%TD.AperFunction*%
%TD*%
M02*
