%TF.GenerationSoftware,KiCad,Pcbnew,(6.0.2)*%
%TF.CreationDate,2022-05-16T10:21:06+01:00*%
%TF.ProjectId,led-tester,6c65642d-7465-4737-9465-722e6b696361,rev?*%
%TF.SameCoordinates,Original*%
%TF.FileFunction,Soldermask,Top*%
%TF.FilePolarity,Negative*%
%FSLAX46Y46*%
G04 Gerber Fmt 4.6, Leading zero omitted, Abs format (unit mm)*
G04 Created by KiCad (PCBNEW (6.0.2)) date 2022-05-16 10:21:06*
%MOMM*%
%LPD*%
G01*
G04 APERTURE LIST*
G04 Aperture macros list*
%AMRoundRect*
0 Rectangle with rounded corners*
0 $1 Rounding radius*
0 $2 $3 $4 $5 $6 $7 $8 $9 X,Y pos of 4 corners*
0 Add a 4 corners polygon primitive as box body*
4,1,4,$2,$3,$4,$5,$6,$7,$8,$9,$2,$3,0*
0 Add four circle primitives for the rounded corners*
1,1,$1+$1,$2,$3*
1,1,$1+$1,$4,$5*
1,1,$1+$1,$6,$7*
1,1,$1+$1,$8,$9*
0 Add four rect primitives between the rounded corners*
20,1,$1+$1,$2,$3,$4,$5,0*
20,1,$1+$1,$4,$5,$6,$7,0*
20,1,$1+$1,$6,$7,$8,$9,0*
20,1,$1+$1,$8,$9,$2,$3,0*%
G04 Aperture macros list end*
%ADD10C,2.000000*%
%ADD11RoundRect,0.200000X0.200000X0.275000X-0.200000X0.275000X-0.200000X-0.275000X0.200000X-0.275000X0*%
%ADD12R,0.400000X1.350000*%
%ADD13R,1.200000X1.900000*%
%ADD14C,1.450000*%
%ADD15R,1.500000X1.900000*%
%ADD16O,1.200000X1.900000*%
%ADD17RoundRect,0.200000X-0.275000X0.200000X-0.275000X-0.200000X0.275000X-0.200000X0.275000X0.200000X0*%
%ADD18C,3.200000*%
%ADD19RoundRect,0.250000X-0.250000X-0.475000X0.250000X-0.475000X0.250000X0.475000X-0.250000X0.475000X0*%
%ADD20R,1.700000X1.700000*%
%ADD21O,1.700000X1.700000*%
%ADD22O,1.200000X2.000000*%
%ADD23O,1.300000X1.100000*%
%ADD24RoundRect,0.250000X-0.475000X0.250000X-0.475000X-0.250000X0.475000X-0.250000X0.475000X0.250000X0*%
%ADD25RoundRect,0.250000X-0.375000X-0.850000X0.375000X-0.850000X0.375000X0.850000X-0.375000X0.850000X0*%
%ADD26RoundRect,0.150000X-0.150000X0.512500X-0.150000X-0.512500X0.150000X-0.512500X0.150000X0.512500X0*%
%ADD27RoundRect,0.150000X-0.512500X-0.150000X0.512500X-0.150000X0.512500X0.150000X-0.512500X0.150000X0*%
%ADD28RoundRect,0.250000X-0.350000X-0.625000X0.350000X-0.625000X0.350000X0.625000X-0.350000X0.625000X0*%
%ADD29O,1.200000X1.750000*%
G04 APERTURE END LIST*
D10*
%TO.C,SW2*%
X102750000Y-83750000D03*
X102750000Y-90250000D03*
X107250000Y-90250000D03*
X107250000Y-83750000D03*
%TD*%
D11*
%TO.C,R9*%
X138075000Y-78500000D03*
X136425000Y-78500000D03*
%TD*%
D12*
%TO.C,J1*%
X126300000Y-54162500D03*
X125650000Y-54162500D03*
X125000000Y-54162500D03*
X124350000Y-54162500D03*
X123700000Y-54162500D03*
D13*
X122100000Y-51462500D03*
D14*
X127500000Y-54162500D03*
D13*
X127900000Y-51462500D03*
D15*
X124000000Y-51462500D03*
D16*
X128500000Y-51462500D03*
D14*
X122500000Y-54162500D03*
D15*
X126000000Y-51462500D03*
D16*
X121500000Y-51462500D03*
%TD*%
D17*
%TO.C,R3*%
X124000000Y-95175000D03*
X124000000Y-96825000D03*
%TD*%
D18*
%TO.C,H1*%
X104000000Y-54000000D03*
%TD*%
D19*
%TO.C,C1*%
X113325000Y-79110000D03*
X115225000Y-79110000D03*
%TD*%
D17*
%TO.C,R1*%
X120000000Y-95175000D03*
X120000000Y-96825000D03*
%TD*%
D10*
%TO.C,SW3*%
X110750000Y-83750000D03*
X110750000Y-90250000D03*
X115250000Y-83750000D03*
X115250000Y-90250000D03*
%TD*%
D20*
%TO.C,J4*%
X119950000Y-64710000D03*
D21*
X119950000Y-67250000D03*
X122490000Y-64710000D03*
X122490000Y-67250000D03*
X125030000Y-64710000D03*
X125030000Y-67250000D03*
X127570000Y-64710000D03*
X127570000Y-67250000D03*
X130110000Y-64710000D03*
X130110000Y-67250000D03*
%TD*%
D10*
%TO.C,SW5*%
X126750000Y-83750000D03*
X126750000Y-90250000D03*
X131250000Y-83750000D03*
X131250000Y-90250000D03*
%TD*%
D18*
%TO.C,H3*%
X146000000Y-54000000D03*
%TD*%
D17*
%TO.C,R2*%
X122000000Y-95175000D03*
X122000000Y-96825000D03*
%TD*%
D10*
%TO.C,SW4*%
X118750000Y-90250000D03*
X118750000Y-83750000D03*
X123250000Y-90250000D03*
X123250000Y-83750000D03*
%TD*%
D22*
%TO.C,SW1*%
X129100000Y-75960000D03*
X120900000Y-75960000D03*
D23*
X123000000Y-74710000D03*
X125000000Y-74710000D03*
X127000000Y-74710000D03*
X123000000Y-77210000D03*
X125000000Y-77210000D03*
X127000000Y-77210000D03*
%TD*%
D10*
%TO.C,SW6*%
X134750000Y-83750000D03*
X134750000Y-90250000D03*
X139250000Y-83750000D03*
X139250000Y-90250000D03*
%TD*%
D17*
%TO.C,R6*%
X130000000Y-95175000D03*
X130000000Y-96825000D03*
%TD*%
%TO.C,R5*%
X128000000Y-95175000D03*
X128000000Y-96825000D03*
%TD*%
D10*
%TO.C,SW7*%
X142750000Y-90250000D03*
X142750000Y-83750000D03*
X147250000Y-90250000D03*
X147250000Y-83750000D03*
%TD*%
D24*
%TO.C,C2*%
X117275000Y-72550000D03*
X117275000Y-74450000D03*
%TD*%
D18*
%TO.C,H2*%
X146000000Y-96000000D03*
%TD*%
D17*
%TO.C,R4*%
X126000000Y-95175000D03*
X126000000Y-96825000D03*
%TD*%
D25*
%TO.C,L1*%
X113200000Y-72550000D03*
X115350000Y-72550000D03*
%TD*%
D11*
%TO.C,R7*%
X134075000Y-73500000D03*
X132425000Y-73500000D03*
%TD*%
%TO.C,R8*%
X134075000Y-78500000D03*
X132425000Y-78500000D03*
%TD*%
D26*
%TO.C,U1*%
X115225000Y-74910000D03*
X114275000Y-74910000D03*
X113325000Y-74910000D03*
X113325000Y-77185000D03*
X115225000Y-77185000D03*
%TD*%
D27*
%TO.C,U2*%
X134112500Y-75050000D03*
X134112500Y-76000000D03*
X134112500Y-76950000D03*
X136387500Y-76950000D03*
X136387500Y-75050000D03*
%TD*%
D11*
%TO.C,R10*%
X134075000Y-72000000D03*
X132425000Y-72000000D03*
%TD*%
D18*
%TO.C,H4*%
X104000000Y-96000000D03*
%TD*%
D28*
%TO.C,J3*%
X137000000Y-65450000D03*
D29*
X139000000Y-65450000D03*
X141000000Y-65450000D03*
%TD*%
D28*
%TO.C,J2*%
X110000000Y-65450000D03*
D29*
X112000000Y-65450000D03*
%TD*%
M02*
