%TF.GenerationSoftware,KiCad,Pcbnew,(6.0.2)*%
%TF.CreationDate,2022-05-15T12:29:40+01:00*%
%TF.ProjectId,led-tester,6c65642d-7465-4737-9465-722e6b696361,rev?*%
%TF.SameCoordinates,Original*%
%TF.FileFunction,Copper,L1,Top*%
%TF.FilePolarity,Positive*%
%FSLAX46Y46*%
G04 Gerber Fmt 4.6, Leading zero omitted, Abs format (unit mm)*
G04 Created by KiCad (PCBNEW (6.0.2)) date 2022-05-15 12:29:40*
%MOMM*%
%LPD*%
G01*
G04 APERTURE LIST*
G04 Aperture macros list*
%AMRoundRect*
0 Rectangle with rounded corners*
0 $1 Rounding radius*
0 $2 $3 $4 $5 $6 $7 $8 $9 X,Y pos of 4 corners*
0 Add a 4 corners polygon primitive as box body*
4,1,4,$2,$3,$4,$5,$6,$7,$8,$9,$2,$3,0*
0 Add four circle primitives for the rounded corners*
1,1,$1+$1,$2,$3*
1,1,$1+$1,$4,$5*
1,1,$1+$1,$6,$7*
1,1,$1+$1,$8,$9*
0 Add four rect primitives between the rounded corners*
20,1,$1+$1,$2,$3,$4,$5,0*
20,1,$1+$1,$4,$5,$6,$7,0*
20,1,$1+$1,$6,$7,$8,$9,0*
20,1,$1+$1,$8,$9,$2,$3,0*%
G04 Aperture macros list end*
%TA.AperFunction,ComponentPad*%
%ADD10C,2.000000*%
%TD*%
%TA.AperFunction,SMDPad,CuDef*%
%ADD11RoundRect,0.200000X0.200000X0.275000X-0.200000X0.275000X-0.200000X-0.275000X0.200000X-0.275000X0*%
%TD*%
%TA.AperFunction,SMDPad,CuDef*%
%ADD12R,0.400000X1.350000*%
%TD*%
%TA.AperFunction,SMDPad,CuDef*%
%ADD13R,1.200000X1.900000*%
%TD*%
%TA.AperFunction,ComponentPad*%
%ADD14C,1.450000*%
%TD*%
%TA.AperFunction,SMDPad,CuDef*%
%ADD15R,1.500000X1.900000*%
%TD*%
%TA.AperFunction,ComponentPad*%
%ADD16O,1.200000X1.900000*%
%TD*%
%TA.AperFunction,SMDPad,CuDef*%
%ADD17RoundRect,0.200000X-0.275000X0.200000X-0.275000X-0.200000X0.275000X-0.200000X0.275000X0.200000X0*%
%TD*%
%TA.AperFunction,SMDPad,CuDef*%
%ADD18RoundRect,0.250000X-0.250000X-0.475000X0.250000X-0.475000X0.250000X0.475000X-0.250000X0.475000X0*%
%TD*%
%TA.AperFunction,ComponentPad*%
%ADD19R,1.700000X1.700000*%
%TD*%
%TA.AperFunction,ComponentPad*%
%ADD20O,1.700000X1.700000*%
%TD*%
%TA.AperFunction,ComponentPad*%
%ADD21O,1.200000X2.000000*%
%TD*%
%TA.AperFunction,ComponentPad*%
%ADD22O,1.300000X1.100000*%
%TD*%
%TA.AperFunction,SMDPad,CuDef*%
%ADD23RoundRect,0.250000X-0.475000X0.250000X-0.475000X-0.250000X0.475000X-0.250000X0.475000X0.250000X0*%
%TD*%
%TA.AperFunction,SMDPad,CuDef*%
%ADD24RoundRect,0.250000X-0.375000X-0.850000X0.375000X-0.850000X0.375000X0.850000X-0.375000X0.850000X0*%
%TD*%
%TA.AperFunction,SMDPad,CuDef*%
%ADD25RoundRect,0.150000X-0.150000X0.512500X-0.150000X-0.512500X0.150000X-0.512500X0.150000X0.512500X0*%
%TD*%
%TA.AperFunction,SMDPad,CuDef*%
%ADD26RoundRect,0.150000X-0.512500X-0.150000X0.512500X-0.150000X0.512500X0.150000X-0.512500X0.150000X0*%
%TD*%
%TA.AperFunction,ComponentPad*%
%ADD27RoundRect,0.250000X-0.350000X-0.625000X0.350000X-0.625000X0.350000X0.625000X-0.350000X0.625000X0*%
%TD*%
%TA.AperFunction,ComponentPad*%
%ADD28O,1.200000X1.750000*%
%TD*%
%TA.AperFunction,ViaPad*%
%ADD29C,0.600000*%
%TD*%
%TA.AperFunction,Conductor*%
%ADD30C,0.500000*%
%TD*%
%TA.AperFunction,Conductor*%
%ADD31C,0.200000*%
%TD*%
%TA.AperFunction,Conductor*%
%ADD32C,0.250000*%
%TD*%
G04 APERTURE END LIST*
D10*
%TO.P,SW2,1,1*%
%TO.N,LED-*%
X102750000Y-83750000D03*
X102750000Y-90250000D03*
%TO.P,SW2,2,2*%
%TO.N,Net-(R1-Pad1)*%
X107250000Y-90250000D03*
X107250000Y-83750000D03*
%TD*%
D11*
%TO.P,R9,1*%
%TO.N,Net-(J3-Pad2)*%
X138075000Y-78500000D03*
%TO.P,R9,2*%
%TO.N,Net-(R8-Pad1)*%
X136425000Y-78500000D03*
%TD*%
D12*
%TO.P,J1,1,VBUS*%
%TO.N,+5V*%
X126300000Y-54162500D03*
%TO.P,J1,2,D-*%
%TO.N,unconnected-(J1-Pad2)*%
X125650000Y-54162500D03*
%TO.P,J1,3,D+*%
%TO.N,unconnected-(J1-Pad3)*%
X125000000Y-54162500D03*
%TO.P,J1,4,ID*%
%TO.N,unconnected-(J1-Pad4)*%
X124350000Y-54162500D03*
%TO.P,J1,5,GND*%
%TO.N,GND*%
X123700000Y-54162500D03*
D13*
%TO.P,J1,6,Shield*%
%TO.N,unconnected-(J1-Pad6)*%
X122100000Y-51462500D03*
D14*
X127500000Y-54162500D03*
D13*
X127900000Y-51462500D03*
D15*
X124000000Y-51462500D03*
D16*
X128500000Y-51462500D03*
D14*
X122500000Y-54162500D03*
D15*
X126000000Y-51462500D03*
D16*
X121500000Y-51462500D03*
%TD*%
D17*
%TO.P,R3,2*%
%TO.N,GND*%
X124000000Y-96825000D03*
%TO.P,R3,1*%
%TO.N,Net-(R3-Pad1)*%
X124000000Y-95175000D03*
%TD*%
D18*
%TO.P,C1,1*%
%TO.N,+5V*%
X113325000Y-79110000D03*
%TO.P,C1,2*%
%TO.N,GND*%
X115225000Y-79110000D03*
%TD*%
D17*
%TO.P,R1,1*%
%TO.N,Net-(R1-Pad1)*%
X120000000Y-95175000D03*
%TO.P,R1,2*%
%TO.N,GND*%
X120000000Y-96825000D03*
%TD*%
D10*
%TO.P,SW3,1,1*%
%TO.N,LED-*%
X110750000Y-83750000D03*
X110750000Y-90250000D03*
%TO.P,SW3,2,2*%
%TO.N,Net-(R2-Pad1)*%
X115250000Y-83750000D03*
X115250000Y-90250000D03*
%TD*%
D19*
%TO.P,J4,1,Pin_1*%
%TO.N,Net-(J4-Pad1)*%
X119950000Y-64710000D03*
D20*
%TO.P,J4,2,Pin_2*%
%TO.N,Net-(J4-Pad10)*%
X119950000Y-67250000D03*
%TO.P,J4,3,Pin_3*%
%TO.N,Net-(J4-Pad1)*%
X122490000Y-64710000D03*
%TO.P,J4,4,Pin_4*%
%TO.N,Net-(J4-Pad10)*%
X122490000Y-67250000D03*
%TO.P,J4,5,Pin_5*%
%TO.N,Net-(J4-Pad1)*%
X125030000Y-64710000D03*
%TO.P,J4,6,Pin_6*%
%TO.N,Net-(J4-Pad10)*%
X125030000Y-67250000D03*
%TO.P,J4,7,Pin_7*%
%TO.N,Net-(J4-Pad1)*%
X127570000Y-64710000D03*
%TO.P,J4,8,Pin_8*%
%TO.N,Net-(J4-Pad10)*%
X127570000Y-67250000D03*
%TO.P,J4,9,Pin_9*%
%TO.N,Net-(J4-Pad1)*%
X130110000Y-64710000D03*
%TO.P,J4,10,Pin_10*%
%TO.N,Net-(J4-Pad10)*%
X130110000Y-67250000D03*
%TD*%
D10*
%TO.P,SW5,1,1*%
%TO.N,LED-*%
X126750000Y-83750000D03*
X126750000Y-90250000D03*
%TO.P,SW5,2,2*%
%TO.N,Net-(SW5-Pad2)*%
X131250000Y-83750000D03*
X131250000Y-90250000D03*
%TD*%
D17*
%TO.P,R2,2*%
%TO.N,GND*%
X122000000Y-96825000D03*
%TO.P,R2,1*%
%TO.N,Net-(R2-Pad1)*%
X122000000Y-95175000D03*
%TD*%
D10*
%TO.P,SW4,1,1*%
%TO.N,LED-*%
X118750000Y-90250000D03*
X118750000Y-83750000D03*
%TO.P,SW4,2,2*%
%TO.N,Net-(R3-Pad1)*%
X123250000Y-90250000D03*
X123250000Y-83750000D03*
%TD*%
D21*
%TO.P,SW1,*%
%TO.N,*%
X129100000Y-75960000D03*
X120900000Y-75960000D03*
D22*
%TO.P,SW1,1,A*%
%TO.N,Net-(J4-Pad10)*%
X123000000Y-74710000D03*
%TO.P,SW1,2,B*%
%TO.N,LED+*%
X125000000Y-74710000D03*
%TO.P,SW1,3,C*%
%TO.N,Net-(J4-Pad1)*%
X127000000Y-74710000D03*
%TO.P,SW1,4,A*%
X123000000Y-77210000D03*
%TO.P,SW1,5,B*%
%TO.N,LED-*%
X125000000Y-77210000D03*
%TO.P,SW1,6,C*%
%TO.N,Net-(J4-Pad10)*%
X127000000Y-77210000D03*
%TD*%
D10*
%TO.P,SW6,1,1*%
%TO.N,LED-*%
X134750000Y-83750000D03*
X134750000Y-90250000D03*
%TO.P,SW6,2,2*%
%TO.N,Net-(SW6-Pad2)*%
X139250000Y-83750000D03*
X139250000Y-90250000D03*
%TD*%
D17*
%TO.P,R6,1*%
%TO.N,Net-(SW7-Pad2)*%
X130000000Y-95175000D03*
%TO.P,R6,2*%
%TO.N,GND*%
X130000000Y-96825000D03*
%TD*%
%TO.P,R5,2*%
%TO.N,GND*%
X128000000Y-96825000D03*
%TO.P,R5,1*%
%TO.N,Net-(SW6-Pad2)*%
X128000000Y-95175000D03*
%TD*%
D10*
%TO.P,SW7,1,1*%
%TO.N,LED-*%
X142750000Y-90250000D03*
X142750000Y-83750000D03*
%TO.P,SW7,2,2*%
%TO.N,Net-(SW7-Pad2)*%
X147250000Y-90250000D03*
X147250000Y-83750000D03*
%TD*%
D23*
%TO.P,C2,1*%
%TO.N,LED+*%
X117275000Y-72550000D03*
%TO.P,C2,2*%
%TO.N,GND*%
X117275000Y-74450000D03*
%TD*%
D17*
%TO.P,R4,1*%
%TO.N,Net-(SW5-Pad2)*%
X126000000Y-95175000D03*
%TO.P,R4,2*%
%TO.N,GND*%
X126000000Y-96825000D03*
%TD*%
D24*
%TO.P,L1,1*%
%TO.N,Net-(L1-Pad1)*%
X113200000Y-72550000D03*
%TO.P,L1,2*%
%TO.N,LED+*%
X115350000Y-72550000D03*
%TD*%
D11*
%TO.P,R7,1*%
%TO.N,Net-(R7-Pad1)*%
X134075000Y-73500000D03*
%TO.P,R7,2*%
%TO.N,LED+*%
X132425000Y-73500000D03*
%TD*%
%TO.P,R8,1*%
%TO.N,Net-(R8-Pad1)*%
X134075000Y-78500000D03*
%TO.P,R8,2*%
%TO.N,LED-*%
X132425000Y-78500000D03*
%TD*%
D25*
%TO.P,U1,1,EN*%
%TO.N,+5V*%
X115225000Y-74910000D03*
%TO.P,U1,2,GND*%
%TO.N,GND*%
X114275000Y-74910000D03*
%TO.P,U1,3,SW*%
%TO.N,Net-(L1-Pad1)*%
X113325000Y-74910000D03*
%TO.P,U1,4,VIN*%
%TO.N,+5V*%
X113325000Y-77185000D03*
%TO.P,U1,5,FB*%
%TO.N,LED-*%
X115225000Y-77185000D03*
%TD*%
D26*
%TO.P,U2,1,+*%
%TO.N,Net-(R7-Pad1)*%
X134112500Y-75050000D03*
%TO.P,U2,2,V-*%
%TO.N,GND*%
X134112500Y-76000000D03*
%TO.P,U2,3,-*%
%TO.N,Net-(R8-Pad1)*%
X134112500Y-76950000D03*
%TO.P,U2,4*%
%TO.N,Net-(J3-Pad2)*%
X136387500Y-76950000D03*
%TO.P,U2,5,V+*%
%TO.N,+5V*%
X136387500Y-75050000D03*
%TD*%
D11*
%TO.P,R10,1*%
%TO.N,GND*%
X134075000Y-72000000D03*
%TO.P,R10,2*%
%TO.N,LED+*%
X132425000Y-72000000D03*
%TD*%
D27*
%TO.P,J3,1,Pin_1*%
%TO.N,+5V*%
X137000000Y-65450000D03*
D28*
%TO.P,J3,2,Pin_2*%
%TO.N,Net-(J3-Pad2)*%
X139000000Y-65450000D03*
%TO.P,J3,3,Pin_3*%
%TO.N,GND*%
X141000000Y-65450000D03*
%TD*%
D27*
%TO.P,J2,1,Pin_1*%
%TO.N,+5V*%
X110000000Y-65450000D03*
D28*
%TO.P,J2,2,Pin_2*%
%TO.N,GND*%
X112000000Y-65450000D03*
%TD*%
D29*
%TO.N,GND*%
X121000000Y-96825000D03*
X123000000Y-96825000D03*
X125000000Y-96825000D03*
X127000000Y-96825000D03*
X129000000Y-96825000D03*
X117275000Y-73650000D03*
X133350000Y-72000000D03*
X133150000Y-76000000D03*
X114275000Y-73910000D03*
X123700000Y-55310000D03*
X123700000Y-53010000D03*
X114375000Y-79110000D03*
%TD*%
D30*
%TO.N,LED+*%
X124550000Y-72550000D02*
X115350000Y-72550000D01*
D31*
%TO.N,LED-*%
X116750000Y-77185000D02*
X118750000Y-79185000D01*
X115225000Y-77185000D02*
X116750000Y-77185000D01*
X118750000Y-79185000D02*
X118750000Y-81000000D01*
D30*
%TO.N,Net-(J3-Pad2)*%
X139000000Y-76000000D02*
X138000000Y-77000000D01*
X139000000Y-65450000D02*
X139000000Y-76000000D01*
D32*
%TO.N,LED-*%
X126290000Y-78500000D02*
X132425000Y-78500000D01*
X125000000Y-77210000D02*
X126290000Y-78500000D01*
%TO.N,LED+*%
X126210000Y-73500000D02*
X132425000Y-73500000D01*
X125000000Y-74710000D02*
X126210000Y-73500000D01*
D30*
%TO.N,LED-*%
X142250000Y-81000000D02*
X142750000Y-81500000D01*
X142750000Y-81500000D02*
X142750000Y-83750000D01*
X102750000Y-81500000D02*
X103250000Y-81000000D01*
X103250000Y-81000000D02*
X142250000Y-81000000D01*
X102750000Y-83750000D02*
X102750000Y-81500000D01*
X134750000Y-83750000D02*
X134750000Y-81000000D01*
X126750000Y-83750000D02*
X126750000Y-81000000D01*
X125000000Y-81000000D02*
X125000000Y-77210000D01*
X118750000Y-83750000D02*
X118750000Y-81000000D01*
X110750000Y-83750000D02*
X110750000Y-81000000D01*
%TO.N,GND*%
X120000000Y-96825000D02*
X130000000Y-96825000D01*
%TO.N,Net-(R1-Pad1)*%
X107250000Y-91500000D02*
X107250000Y-90250000D01*
X107750000Y-92000000D02*
X107250000Y-91500000D01*
X115250000Y-93000000D02*
X114250000Y-92000000D01*
X119500000Y-93000000D02*
X115250000Y-93000000D01*
X120000000Y-93500000D02*
X119500000Y-93000000D01*
X114250000Y-92000000D02*
X107750000Y-92000000D01*
X120000000Y-95175000D02*
X120000000Y-93500000D01*
%TO.N,Net-(R2-Pad1)*%
X115250000Y-91500000D02*
X115250000Y-90250000D01*
X115750000Y-92000000D02*
X115250000Y-91500000D01*
X122000000Y-92500000D02*
X121500000Y-92000000D01*
X121500000Y-92000000D02*
X115750000Y-92000000D01*
X122000000Y-95175000D02*
X122000000Y-92500000D01*
%TO.N,Net-(R3-Pad1)*%
X124000000Y-92500000D02*
X124000000Y-95175000D01*
X123250000Y-91750000D02*
X124000000Y-92500000D01*
X123250000Y-90250000D02*
X123250000Y-91750000D01*
%TO.N,Net-(SW7-Pad2)*%
X147250000Y-91500000D02*
X147250000Y-90250000D01*
X139000000Y-92000000D02*
X146750000Y-92000000D01*
X132750000Y-93000000D02*
X138000000Y-93000000D01*
X130500000Y-94000000D02*
X131750000Y-94000000D01*
X138000000Y-93000000D02*
X139000000Y-92000000D01*
X146750000Y-92000000D02*
X147250000Y-91500000D01*
X130000000Y-94500000D02*
X130500000Y-94000000D01*
X130000000Y-95175000D02*
X130000000Y-94500000D01*
X131750000Y-94000000D02*
X132750000Y-93000000D01*
%TO.N,Net-(SW6-Pad2)*%
X137500000Y-92000000D02*
X139250000Y-90250000D01*
X132250000Y-92000000D02*
X137500000Y-92000000D01*
X131250000Y-93000000D02*
X132250000Y-92000000D01*
X128000000Y-93500000D02*
X128500000Y-93000000D01*
X128000000Y-95175000D02*
X128000000Y-93500000D01*
X128500000Y-93000000D02*
X131250000Y-93000000D01*
%TO.N,Net-(SW5-Pad2)*%
X126000000Y-92500000D02*
X126000000Y-95175000D01*
X126500000Y-92000000D02*
X126000000Y-92500000D01*
X131250000Y-91500000D02*
X130750000Y-92000000D01*
X131250000Y-90250000D02*
X131250000Y-91500000D01*
X130750000Y-92000000D02*
X126500000Y-92000000D01*
%TO.N,Net-(SW7-Pad2)*%
X147250000Y-83750000D02*
X147250000Y-90250000D01*
%TO.N,Net-(SW6-Pad2)*%
X139250000Y-83750000D02*
X139250000Y-90250000D01*
%TO.N,Net-(SW5-Pad2)*%
X131250000Y-83750000D02*
X131250000Y-90250000D01*
%TO.N,Net-(R3-Pad1)*%
X123250000Y-83750000D02*
X123250000Y-90250000D01*
%TO.N,Net-(R2-Pad1)*%
X115250000Y-83750000D02*
X115250000Y-90250000D01*
%TO.N,Net-(R1-Pad1)*%
X107250000Y-83750000D02*
X107250000Y-90250000D01*
%TO.N,GND*%
X134112500Y-76000000D02*
X133150000Y-76000000D01*
X123700000Y-54162500D02*
X123700000Y-53010000D01*
X134075000Y-72000000D02*
X133350000Y-72000000D01*
X123700000Y-55310000D02*
X123700000Y-54162500D01*
X114375000Y-79110000D02*
X115225000Y-79110000D01*
X114275000Y-74910000D02*
X114275000Y-73910000D01*
X117275000Y-74450000D02*
X117275000Y-73650000D01*
%TO.N,LED+*%
X124550000Y-72550000D02*
X125000000Y-73000000D01*
X132425000Y-73500000D02*
X132425000Y-72000000D01*
X125000000Y-73000000D02*
X125000000Y-74710000D01*
%TO.N,Net-(L1-Pad1)*%
X113325000Y-74910000D02*
X113325000Y-72675000D01*
X113325000Y-72675000D02*
X113200000Y-72550000D01*
%TO.N,Net-(R7-Pad1)*%
X134162500Y-73467500D02*
X134125000Y-73430000D01*
X134112500Y-73537500D02*
X134075000Y-73500000D01*
X134112500Y-75050000D02*
X134112500Y-73537500D01*
%TO.N,unconnected-(J1-Pad6)*%
X127500000Y-53110000D02*
X127900000Y-52710000D01*
X121500000Y-51462500D02*
X128500000Y-51462500D01*
X127500000Y-54162500D02*
X127500000Y-53110000D01*
X122100000Y-52710000D02*
X122100000Y-51462500D01*
X127900000Y-52710000D02*
X127900000Y-51462500D01*
X122500000Y-54162500D02*
X122500000Y-53110000D01*
X122500000Y-53110000D02*
X122100000Y-52710000D01*
%TO.N,Net-(J3-Pad2)*%
X137985000Y-76950000D02*
X138075000Y-77040000D01*
X138075000Y-77040000D02*
X138075000Y-78500000D01*
X136387500Y-76950000D02*
X137985000Y-76950000D01*
%TO.N,Net-(R8-Pad1)*%
X134112500Y-76950000D02*
X134112500Y-78462500D01*
X136425000Y-78500000D02*
X134075000Y-78500000D01*
X134112500Y-78462500D02*
X134075000Y-78500000D01*
%TO.N,LED-*%
X110750000Y-90250000D02*
X110750000Y-83750000D01*
X118750000Y-90250000D02*
X118750000Y-83750000D01*
X126750000Y-90250000D02*
X126750000Y-83750000D01*
X142750000Y-90250000D02*
X142750000Y-83750000D01*
X102750000Y-90250000D02*
X102750000Y-83750000D01*
X134750000Y-90250000D02*
X134750000Y-83750000D01*
%TO.N,Net-(J4-Pad1)*%
X123000000Y-77210000D02*
X123000000Y-76500000D01*
X123500000Y-76000000D02*
X126500000Y-76000000D01*
X123000000Y-76500000D02*
X123500000Y-76000000D01*
X120030000Y-64710000D02*
X130190000Y-64710000D01*
X126500000Y-76000000D02*
X127000000Y-75500000D01*
X127000000Y-75500000D02*
X127000000Y-74710000D01*
%TO.N,Net-(J4-Pad10)*%
X130110000Y-67250000D02*
X119950000Y-67250000D01*
%TD*%
%TA.AperFunction,Conductor*%
%TO.N,+5V*%
G36*
X120777601Y-50218954D02*
G01*
X120858383Y-50272930D01*
X120912359Y-50353712D01*
X120931313Y-50449000D01*
X120912359Y-50544288D01*
X120878969Y-50600189D01*
X120875732Y-50603359D01*
X120778446Y-50754317D01*
X120773685Y-50767399D01*
X120728348Y-50891961D01*
X120717022Y-50923078D01*
X120699500Y-51061783D01*
X120699500Y-51857655D01*
X120700276Y-51864571D01*
X120700276Y-51864575D01*
X120701895Y-51879004D01*
X120714454Y-51990972D01*
X120773515Y-52160573D01*
X120868684Y-52312875D01*
X120995230Y-52440307D01*
X121146864Y-52536537D01*
X121159976Y-52541206D01*
X121159978Y-52541207D01*
X121201548Y-52556009D01*
X121316049Y-52596781D01*
X121444553Y-52612104D01*
X121536921Y-52642205D01*
X121610744Y-52705366D01*
X121654776Y-52791970D01*
X121661299Y-52822332D01*
X121664551Y-52843962D01*
X121667679Y-52850475D01*
X121668975Y-52857573D01*
X121676513Y-52872084D01*
X121676514Y-52872087D01*
X121695114Y-52907894D01*
X121698605Y-52914879D01*
X121723191Y-52966079D01*
X121728094Y-52971383D01*
X121731421Y-52977788D01*
X121735725Y-52982828D01*
X121771267Y-53018370D01*
X121778044Y-53025419D01*
X121802511Y-53051888D01*
X121802513Y-53051890D01*
X121815146Y-53065556D01*
X121822838Y-53070024D01*
X121823632Y-53070735D01*
X121875075Y-53122178D01*
X121929051Y-53202960D01*
X121948005Y-53298248D01*
X121929051Y-53393536D01*
X121877366Y-53470889D01*
X121877308Y-53470931D01*
X121869468Y-53479638D01*
X121869466Y-53479640D01*
X121755864Y-53605807D01*
X121755860Y-53605812D01*
X121747130Y-53615508D01*
X121649856Y-53783992D01*
X121589738Y-53969018D01*
X121569402Y-54162500D01*
X121589738Y-54355982D01*
X121649856Y-54541008D01*
X121747130Y-54709492D01*
X121755860Y-54719188D01*
X121755864Y-54719193D01*
X121852700Y-54826739D01*
X121877308Y-54854069D01*
X121946896Y-54904627D01*
X122024139Y-54960749D01*
X122024144Y-54960752D01*
X122034701Y-54968422D01*
X122046625Y-54973731D01*
X122046627Y-54973732D01*
X122156828Y-55022796D01*
X122212429Y-55047551D01*
X122402726Y-55088000D01*
X122597274Y-55088000D01*
X122787571Y-55047551D01*
X122849922Y-55019791D01*
X122944681Y-54998350D01*
X123040432Y-55014804D01*
X123122599Y-55066648D01*
X123178671Y-55145989D01*
X123200112Y-55240749D01*
X123197232Y-55285575D01*
X123194391Y-55303823D01*
X123212980Y-55445979D01*
X123270720Y-55577203D01*
X123362970Y-55686948D01*
X123482313Y-55766390D01*
X123499246Y-55771680D01*
X123499248Y-55771681D01*
X123602224Y-55803852D01*
X123619157Y-55809142D01*
X123685992Y-55810367D01*
X123744760Y-55811445D01*
X123744762Y-55811445D01*
X123762499Y-55811770D01*
X123900817Y-55774060D01*
X123915932Y-55764779D01*
X123915935Y-55764778D01*
X124007876Y-55708326D01*
X124007878Y-55708325D01*
X124022991Y-55699045D01*
X124046987Y-55672535D01*
X124107297Y-55605904D01*
X124119200Y-55592754D01*
X124181710Y-55463733D01*
X124205496Y-55322354D01*
X124205647Y-55310000D01*
X124204560Y-55302409D01*
X124217184Y-55206854D01*
X124265800Y-55122737D01*
X124342905Y-55063628D01*
X124436761Y-55038526D01*
X124452933Y-55038000D01*
X124569748Y-55038000D01*
X124581734Y-55035616D01*
X124581742Y-55035615D01*
X124626423Y-55026727D01*
X124723577Y-55026727D01*
X124768258Y-55035615D01*
X124768266Y-55035616D01*
X124780252Y-55038000D01*
X125219748Y-55038000D01*
X125231734Y-55035616D01*
X125231742Y-55035615D01*
X125276423Y-55026727D01*
X125373577Y-55026727D01*
X125418258Y-55035615D01*
X125418266Y-55035616D01*
X125430252Y-55038000D01*
X125869748Y-55038000D01*
X125881737Y-55035615D01*
X125881739Y-55035615D01*
X125904181Y-55031151D01*
X125904182Y-55031151D01*
X125928231Y-55026367D01*
X125994552Y-54982052D01*
X126038867Y-54915731D01*
X126050500Y-54857248D01*
X126050500Y-53467752D01*
X126038867Y-53409269D01*
X125994552Y-53342948D01*
X125928231Y-53298633D01*
X125904182Y-53293849D01*
X125904181Y-53293849D01*
X125881739Y-53289385D01*
X125881737Y-53289385D01*
X125869748Y-53287000D01*
X125430252Y-53287000D01*
X125418266Y-53289384D01*
X125418258Y-53289385D01*
X125373577Y-53298273D01*
X125276423Y-53298273D01*
X125231742Y-53289385D01*
X125231734Y-53289384D01*
X125219748Y-53287000D01*
X124780252Y-53287000D01*
X124768266Y-53289384D01*
X124768258Y-53289385D01*
X124723577Y-53298273D01*
X124626423Y-53298273D01*
X124581742Y-53289385D01*
X124581734Y-53289384D01*
X124569748Y-53287000D01*
X124453347Y-53287000D01*
X124358059Y-53268046D01*
X124277277Y-53214070D01*
X124223301Y-53133288D01*
X124204347Y-53038000D01*
X124204884Y-53025989D01*
X124205496Y-53022354D01*
X124205647Y-53010000D01*
X124189507Y-52897298D01*
X124194761Y-52800287D01*
X124236740Y-52712669D01*
X124309054Y-52647786D01*
X124400693Y-52615515D01*
X124435992Y-52613000D01*
X124769748Y-52613000D01*
X124781737Y-52610615D01*
X124781739Y-52610615D01*
X124804181Y-52606151D01*
X124804182Y-52606151D01*
X124828231Y-52601367D01*
X124861660Y-52579030D01*
X124951419Y-52541849D01*
X125048574Y-52541848D01*
X125138340Y-52579030D01*
X125171769Y-52601367D01*
X125195818Y-52606151D01*
X125195819Y-52606151D01*
X125218261Y-52610615D01*
X125218263Y-52610615D01*
X125230252Y-52613000D01*
X126769748Y-52613000D01*
X126781734Y-52610616D01*
X126781742Y-52610615D01*
X126799565Y-52607069D01*
X126896720Y-52607068D01*
X126986480Y-52644246D01*
X127055180Y-52712944D01*
X127092361Y-52802703D01*
X127092362Y-52899858D01*
X127085556Y-52926367D01*
X127073759Y-52963669D01*
X127071283Y-52971089D01*
X127057902Y-53009192D01*
X127057900Y-53009199D01*
X127052481Y-53024631D01*
X127052198Y-53031845D01*
X127050020Y-53038730D01*
X127049500Y-53045337D01*
X127049500Y-53095603D01*
X127049308Y-53105380D01*
X127047162Y-53159994D01*
X127049441Y-53168591D01*
X127049500Y-53169657D01*
X127049500Y-53218954D01*
X127030546Y-53314242D01*
X126976570Y-53395024D01*
X126946859Y-53420399D01*
X126877308Y-53470931D01*
X126868576Y-53480629D01*
X126755864Y-53605807D01*
X126755860Y-53605812D01*
X126747130Y-53615508D01*
X126649856Y-53783992D01*
X126589738Y-53969018D01*
X126569402Y-54162500D01*
X126589738Y-54355982D01*
X126649856Y-54541008D01*
X126747130Y-54709492D01*
X126755860Y-54719188D01*
X126755864Y-54719193D01*
X126852700Y-54826739D01*
X126877308Y-54854069D01*
X126946896Y-54904627D01*
X127024139Y-54960749D01*
X127024144Y-54960752D01*
X127034701Y-54968422D01*
X127046625Y-54973731D01*
X127046627Y-54973732D01*
X127156828Y-55022796D01*
X127212429Y-55047551D01*
X127402726Y-55088000D01*
X127597274Y-55088000D01*
X127787571Y-55047551D01*
X127843172Y-55022796D01*
X127953373Y-54973732D01*
X127953375Y-54973731D01*
X127965299Y-54968422D01*
X127975856Y-54960752D01*
X127975861Y-54960749D01*
X128053104Y-54904627D01*
X128122692Y-54854069D01*
X128147300Y-54826739D01*
X128244136Y-54719193D01*
X128244140Y-54719188D01*
X128252870Y-54709492D01*
X128350144Y-54541008D01*
X128410262Y-54355982D01*
X128430598Y-54162500D01*
X128410262Y-53969018D01*
X128350144Y-53783992D01*
X128252870Y-53615508D01*
X128244140Y-53605812D01*
X128244136Y-53605807D01*
X128122692Y-53470931D01*
X128124162Y-53469607D01*
X128076249Y-53405440D01*
X128052336Y-53311274D01*
X128066279Y-53215125D01*
X128115956Y-53131630D01*
X128124925Y-53122178D01*
X128189232Y-53057871D01*
X128211147Y-53038398D01*
X128217493Y-53033395D01*
X128232110Y-53021872D01*
X128264383Y-52975177D01*
X128268910Y-52968842D01*
X128292907Y-52936353D01*
X128302634Y-52923184D01*
X128305027Y-52916368D01*
X128309131Y-52910431D01*
X128322525Y-52868082D01*
X128326241Y-52856331D01*
X128328717Y-52848911D01*
X128342098Y-52810808D01*
X128342100Y-52810801D01*
X128347519Y-52795369D01*
X128347799Y-52788239D01*
X128347886Y-52787893D01*
X128349234Y-52783631D01*
X128396040Y-52698494D01*
X128471864Y-52637750D01*
X128560614Y-52611083D01*
X128672983Y-52599273D01*
X128686161Y-52594787D01*
X128829816Y-52545883D01*
X128829817Y-52545882D01*
X128842993Y-52541397D01*
X128877991Y-52519866D01*
X128984103Y-52454586D01*
X128984107Y-52454583D01*
X128995955Y-52447294D01*
X129124268Y-52321641D01*
X129146376Y-52287337D01*
X129169930Y-52250787D01*
X129221554Y-52170683D01*
X129275407Y-52022723D01*
X129278215Y-52015009D01*
X129278216Y-52015007D01*
X129282978Y-52001922D01*
X129300500Y-51863217D01*
X129300500Y-51067345D01*
X129299146Y-51055268D01*
X129287097Y-50947859D01*
X129285546Y-50934028D01*
X129226485Y-50764427D01*
X129203228Y-50727208D01*
X129138695Y-50623933D01*
X129138692Y-50623930D01*
X129131316Y-50612125D01*
X129122327Y-50603073D01*
X129078297Y-50517216D01*
X129070421Y-50420381D01*
X129100202Y-50327902D01*
X129163105Y-50253860D01*
X129249555Y-50209526D01*
X129317771Y-50200000D01*
X133977277Y-50200000D01*
X133977277Y-50201268D01*
X133980343Y-50200705D01*
X133999642Y-50205143D01*
X134014001Y-50201894D01*
X134017246Y-50202640D01*
X134017345Y-50201137D01*
X134017346Y-50201137D01*
X134040278Y-50202640D01*
X134218666Y-50214332D01*
X134250953Y-50218583D01*
X134449873Y-50258151D01*
X134481334Y-50266581D01*
X134673372Y-50331770D01*
X134703462Y-50344233D01*
X134885363Y-50433936D01*
X134913571Y-50450222D01*
X135082198Y-50562895D01*
X135108039Y-50582723D01*
X135260522Y-50716448D01*
X135283552Y-50739478D01*
X135417277Y-50891961D01*
X135437105Y-50917802D01*
X135549778Y-51086429D01*
X135566064Y-51114637D01*
X135655767Y-51296538D01*
X135668230Y-51326628D01*
X135733419Y-51518666D01*
X135741849Y-51550127D01*
X135781417Y-51749047D01*
X135785668Y-51781334D01*
X135791035Y-51863217D01*
X135798502Y-51977141D01*
X135798841Y-51982317D01*
X135794857Y-51999642D01*
X135799088Y-52018341D01*
X135798591Y-52035099D01*
X135800000Y-52049536D01*
X135800000Y-54977277D01*
X135798732Y-54977277D01*
X135799295Y-54980344D01*
X135794857Y-54999642D01*
X135795414Y-55002104D01*
X135800275Y-55091763D01*
X135813108Y-55328447D01*
X135814086Y-55346489D01*
X135870224Y-55688916D01*
X135963056Y-56023266D01*
X136091493Y-56345619D01*
X136254030Y-56652195D01*
X136448761Y-56939402D01*
X136673402Y-57203870D01*
X136925321Y-57442501D01*
X136930704Y-57446593D01*
X137196192Y-57648412D01*
X137196200Y-57648418D01*
X137201564Y-57652495D01*
X137498891Y-57831391D01*
X137813818Y-57977092D01*
X137820199Y-57979242D01*
X137820204Y-57979244D01*
X138136267Y-58085738D01*
X138136273Y-58085740D01*
X138142652Y-58087889D01*
X138346136Y-58132679D01*
X138474949Y-58161033D01*
X138474951Y-58161033D01*
X138481537Y-58162483D01*
X138826501Y-58200000D01*
X139173499Y-58200000D01*
X139518463Y-58162483D01*
X139525049Y-58161033D01*
X139525051Y-58161033D01*
X139653864Y-58132679D01*
X139857348Y-58087889D01*
X139863727Y-58085740D01*
X139863733Y-58085738D01*
X140179796Y-57979244D01*
X140179801Y-57979242D01*
X140186182Y-57977092D01*
X140501109Y-57831391D01*
X140798436Y-57652495D01*
X140803800Y-57648418D01*
X140803808Y-57648412D01*
X141069296Y-57446593D01*
X141074679Y-57442501D01*
X141326598Y-57203870D01*
X141551239Y-56939402D01*
X141745970Y-56652195D01*
X141908507Y-56345619D01*
X142036944Y-56023266D01*
X142129776Y-55688916D01*
X142144176Y-55601081D01*
X142184825Y-55353134D01*
X142184826Y-55353127D01*
X142185914Y-55346489D01*
X142186893Y-55328447D01*
X142198230Y-55119328D01*
X142204514Y-55003424D01*
X142205142Y-55000716D01*
X142205143Y-55000000D01*
X142202016Y-54986293D01*
X142201545Y-54982082D01*
X142200000Y-54954390D01*
X142200000Y-54045741D01*
X142200209Y-54042095D01*
X144145028Y-54042095D01*
X144145885Y-54051076D01*
X144145885Y-54051082D01*
X144157754Y-54175477D01*
X144170534Y-54309431D01*
X144172678Y-54318195D01*
X144172679Y-54318198D01*
X144212457Y-54480756D01*
X144234364Y-54570285D01*
X144335182Y-54819192D01*
X144339735Y-54826968D01*
X144339737Y-54826972D01*
X144377626Y-54891681D01*
X144470875Y-55050938D01*
X144476503Y-55057975D01*
X144476504Y-55057977D01*
X144528294Y-55122737D01*
X144638601Y-55260669D01*
X144834846Y-55443991D01*
X144842250Y-55449127D01*
X144842252Y-55449129D01*
X145048091Y-55591925D01*
X145055499Y-55597064D01*
X145063570Y-55601079D01*
X145063573Y-55601081D01*
X145287863Y-55712663D01*
X145295938Y-55716680D01*
X145551126Y-55800335D01*
X145560004Y-55801876D01*
X145560010Y-55801878D01*
X145808218Y-55844974D01*
X145815717Y-55846276D01*
X145882335Y-55849592D01*
X145897472Y-55850346D01*
X145897475Y-55850346D01*
X145900567Y-55850500D01*
X146068223Y-55850500D01*
X146072727Y-55850173D01*
X146072733Y-55850173D01*
X146131311Y-55845923D01*
X146267846Y-55836016D01*
X146377666Y-55811770D01*
X146521276Y-55780064D01*
X146521279Y-55780063D01*
X146530080Y-55778120D01*
X146765530Y-55688916D01*
X146772781Y-55686169D01*
X146772783Y-55686168D01*
X146781211Y-55682975D01*
X147015976Y-55552574D01*
X147229458Y-55389650D01*
X147417185Y-55197614D01*
X147494232Y-55091763D01*
X147569917Y-54987784D01*
X147569920Y-54987780D01*
X147575225Y-54980491D01*
X147700265Y-54742828D01*
X147708612Y-54719193D01*
X147786685Y-54498107D01*
X147786685Y-54498106D01*
X147789688Y-54489603D01*
X147791432Y-54480756D01*
X147839876Y-54234973D01*
X147839877Y-54234966D01*
X147841620Y-54226122D01*
X147854972Y-53957905D01*
X147829466Y-53690569D01*
X147808725Y-53605807D01*
X147767783Y-53438488D01*
X147767782Y-53438484D01*
X147765636Y-53429715D01*
X147664818Y-53180808D01*
X147654821Y-53163733D01*
X147573834Y-53025419D01*
X147529125Y-52949062D01*
X147518962Y-52936353D01*
X147432131Y-52827777D01*
X147361399Y-52739331D01*
X147165154Y-52556009D01*
X147150558Y-52545883D01*
X146951909Y-52408075D01*
X146951908Y-52408074D01*
X146944501Y-52402936D01*
X146936430Y-52398921D01*
X146936427Y-52398919D01*
X146712137Y-52287337D01*
X146712134Y-52287336D01*
X146704062Y-52283320D01*
X146448874Y-52199665D01*
X146439996Y-52198124D01*
X146439990Y-52198122D01*
X146191782Y-52155026D01*
X146191781Y-52155026D01*
X146184283Y-52153724D01*
X146117665Y-52150408D01*
X146102528Y-52149654D01*
X146102525Y-52149654D01*
X146099433Y-52149500D01*
X145931777Y-52149500D01*
X145927273Y-52149827D01*
X145927267Y-52149827D01*
X145868689Y-52154077D01*
X145732154Y-52163984D01*
X145723354Y-52165927D01*
X145723353Y-52165927D01*
X145478724Y-52219936D01*
X145478721Y-52219937D01*
X145469920Y-52221880D01*
X145315166Y-52280511D01*
X145229743Y-52312875D01*
X145218789Y-52317025D01*
X144984024Y-52447426D01*
X144770542Y-52610350D01*
X144582815Y-52802386D01*
X144577509Y-52809676D01*
X144577507Y-52809678D01*
X144432285Y-53009192D01*
X144424775Y-53019509D01*
X144299735Y-53257172D01*
X144296732Y-53265675D01*
X144296731Y-53265678D01*
X144224716Y-53469607D01*
X144210312Y-53510397D01*
X144208569Y-53519241D01*
X144208568Y-53519244D01*
X144160124Y-53765027D01*
X144160123Y-53765034D01*
X144158380Y-53773878D01*
X144157932Y-53782881D01*
X144157931Y-53782888D01*
X144157258Y-53796408D01*
X144145028Y-54042095D01*
X142200209Y-54042095D01*
X142201633Y-54017271D01*
X142201957Y-54014458D01*
X142205142Y-54000716D01*
X142205143Y-54000000D01*
X142203097Y-53991030D01*
X142202065Y-53957950D01*
X142202068Y-53957905D01*
X142217698Y-53639753D01*
X142220093Y-53615436D01*
X142271221Y-53270758D01*
X142275988Y-53246792D01*
X142360656Y-52908779D01*
X142367750Y-52885395D01*
X142485138Y-52557319D01*
X142494488Y-52534744D01*
X142643476Y-52219735D01*
X142654987Y-52198201D01*
X142834129Y-51899321D01*
X142847698Y-51879014D01*
X143055284Y-51599116D01*
X143070764Y-51580254D01*
X143304779Y-51322058D01*
X143322058Y-51304779D01*
X143417315Y-51218443D01*
X143580254Y-51070764D01*
X143599116Y-51055284D01*
X143879014Y-50847698D01*
X143899321Y-50834129D01*
X144198201Y-50654987D01*
X144219735Y-50643476D01*
X144534752Y-50494484D01*
X144557319Y-50485138D01*
X144885395Y-50367750D01*
X144908779Y-50360656D01*
X145246792Y-50275988D01*
X145270758Y-50271221D01*
X145615436Y-50220093D01*
X145639754Y-50217698D01*
X145830507Y-50208327D01*
X145987787Y-50200600D01*
X146012213Y-50200600D01*
X146169493Y-50208327D01*
X146360246Y-50217698D01*
X146384564Y-50220093D01*
X146729242Y-50271221D01*
X146753208Y-50275988D01*
X147091221Y-50360656D01*
X147114605Y-50367750D01*
X147442681Y-50485138D01*
X147465248Y-50494484D01*
X147780265Y-50643476D01*
X147801799Y-50654987D01*
X148100679Y-50834129D01*
X148120986Y-50847698D01*
X148400884Y-51055284D01*
X148419746Y-51070764D01*
X148582685Y-51218443D01*
X148677942Y-51304779D01*
X148695221Y-51322058D01*
X148929236Y-51580254D01*
X148944716Y-51599116D01*
X149152302Y-51879014D01*
X149165871Y-51899321D01*
X149345013Y-52198201D01*
X149356524Y-52219735D01*
X149505512Y-52534744D01*
X149514862Y-52557319D01*
X149632250Y-52885395D01*
X149639344Y-52908779D01*
X149724012Y-53246792D01*
X149728779Y-53270758D01*
X149779907Y-53615436D01*
X149782302Y-53639754D01*
X149798478Y-53969018D01*
X149799080Y-53981277D01*
X149794857Y-53999642D01*
X149799088Y-54018342D01*
X149798591Y-54035103D01*
X149800000Y-54049537D01*
X149800000Y-80751000D01*
X149781046Y-80846288D01*
X149727070Y-80927070D01*
X149646288Y-80981046D01*
X149551000Y-81000000D01*
X142990243Y-81000000D01*
X142894955Y-80981046D01*
X142814173Y-80927070D01*
X142597871Y-80710768D01*
X142578398Y-80688853D01*
X142573395Y-80682507D01*
X142561872Y-80667890D01*
X142515177Y-80635617D01*
X142508842Y-80631090D01*
X142494520Y-80620511D01*
X142463184Y-80597366D01*
X142456368Y-80594973D01*
X142450431Y-80590869D01*
X142434839Y-80585938D01*
X142434837Y-80585937D01*
X142396331Y-80573759D01*
X142388911Y-80571283D01*
X142350808Y-80557902D01*
X142350801Y-80557900D01*
X142335369Y-80552481D01*
X142328155Y-80552198D01*
X142321270Y-80550020D01*
X142314663Y-80549500D01*
X142264397Y-80549500D01*
X142254620Y-80549308D01*
X142251369Y-80549180D01*
X142200006Y-80547162D01*
X142191409Y-80549441D01*
X142190343Y-80549500D01*
X134807078Y-80549500D01*
X134800533Y-80549243D01*
X134785745Y-80545815D01*
X134744092Y-80548764D01*
X134742486Y-80548878D01*
X134724899Y-80549500D01*
X126807078Y-80549500D01*
X126800533Y-80549243D01*
X126785745Y-80545815D01*
X126744092Y-80548764D01*
X126742486Y-80548878D01*
X126724899Y-80549500D01*
X125699500Y-80549500D01*
X125604212Y-80530546D01*
X125523430Y-80476570D01*
X125469454Y-80395788D01*
X125450500Y-80300500D01*
X125450500Y-78721967D01*
X125469454Y-78626679D01*
X125523430Y-78545897D01*
X125604212Y-78491921D01*
X125699500Y-78472967D01*
X125794788Y-78491921D01*
X125875570Y-78545897D01*
X126042109Y-78712436D01*
X126056784Y-78728452D01*
X126077545Y-78753194D01*
X126096411Y-78764086D01*
X126096412Y-78764087D01*
X126105528Y-78769350D01*
X126123846Y-78781019D01*
X126150316Y-78799553D01*
X126164359Y-78803316D01*
X126176955Y-78810588D01*
X126208790Y-78816201D01*
X126229975Y-78820898D01*
X126261193Y-78829263D01*
X126282890Y-78827365D01*
X126282891Y-78827365D01*
X126293381Y-78826447D01*
X126315082Y-78825500D01*
X131648653Y-78825500D01*
X131743941Y-78844454D01*
X131824723Y-78898430D01*
X131870511Y-78961453D01*
X131896950Y-79013342D01*
X131986658Y-79103050D01*
X132099696Y-79160646D01*
X132119052Y-79163712D01*
X132119053Y-79163712D01*
X132128537Y-79165214D01*
X132193481Y-79175500D01*
X132424917Y-79175500D01*
X132656518Y-79175499D01*
X132750304Y-79160646D01*
X132863342Y-79103050D01*
X132953050Y-79013342D01*
X133010646Y-78900304D01*
X133013562Y-78881892D01*
X133060659Y-78797794D01*
X133136956Y-78737646D01*
X133230464Y-78711275D01*
X133326945Y-78722694D01*
X133411713Y-78770166D01*
X133471861Y-78846463D01*
X133486378Y-78881511D01*
X133489354Y-78900304D01*
X133546950Y-79013342D01*
X133636658Y-79103050D01*
X133749696Y-79160646D01*
X133769052Y-79163712D01*
X133769053Y-79163712D01*
X133778537Y-79165214D01*
X133843481Y-79175500D01*
X134074917Y-79175500D01*
X134306518Y-79175499D01*
X134400304Y-79160646D01*
X134513342Y-79103050D01*
X134592962Y-79023430D01*
X134673744Y-78969454D01*
X134769032Y-78950500D01*
X135730968Y-78950500D01*
X135826256Y-78969454D01*
X135907038Y-79023430D01*
X135986658Y-79103050D01*
X136099696Y-79160646D01*
X136119052Y-79163712D01*
X136119053Y-79163712D01*
X136128537Y-79165214D01*
X136193481Y-79175500D01*
X136424917Y-79175500D01*
X136656518Y-79175499D01*
X136750304Y-79160646D01*
X136863342Y-79103050D01*
X136953050Y-79013342D01*
X137010646Y-78900304D01*
X137013562Y-78881892D01*
X137060659Y-78797794D01*
X137136956Y-78737646D01*
X137230464Y-78711275D01*
X137326945Y-78722694D01*
X137411713Y-78770166D01*
X137471861Y-78846463D01*
X137486378Y-78881511D01*
X137489354Y-78900304D01*
X137546950Y-79013342D01*
X137636658Y-79103050D01*
X137749696Y-79160646D01*
X137769052Y-79163712D01*
X137769053Y-79163712D01*
X137778537Y-79165214D01*
X137843481Y-79175500D01*
X138074917Y-79175500D01*
X138306518Y-79175499D01*
X138400304Y-79160646D01*
X138513342Y-79103050D01*
X138603050Y-79013342D01*
X138660646Y-78900304D01*
X138675500Y-78806519D01*
X138675499Y-78193482D01*
X138660646Y-78099696D01*
X138603050Y-77986658D01*
X138589195Y-77972803D01*
X138577673Y-77956944D01*
X138580359Y-77954993D01*
X138544454Y-77901256D01*
X138525500Y-77805968D01*
X138525500Y-77214743D01*
X138544454Y-77119455D01*
X138598430Y-77038673D01*
X139289232Y-76347871D01*
X139311147Y-76328398D01*
X139317493Y-76323395D01*
X139332110Y-76311872D01*
X139364385Y-76265174D01*
X139368881Y-76258882D01*
X139402635Y-76213183D01*
X139405029Y-76206366D01*
X139409131Y-76200431D01*
X139426231Y-76146361D01*
X139428706Y-76138945D01*
X139442096Y-76100817D01*
X139442098Y-76100807D01*
X139447520Y-76085369D01*
X139447804Y-76078152D01*
X139449980Y-76071270D01*
X139450500Y-76064663D01*
X139450500Y-76014422D01*
X139450692Y-76004645D01*
X139452108Y-75968608D01*
X139452839Y-75950006D01*
X139450559Y-75941407D01*
X139450500Y-75940338D01*
X139450500Y-66508977D01*
X139469454Y-66413689D01*
X139525284Y-66331073D01*
X139614326Y-66243877D01*
X139614326Y-66243876D01*
X139624268Y-66234141D01*
X139633638Y-66219603D01*
X139690243Y-66131768D01*
X139721554Y-66083183D01*
X139766267Y-65960335D01*
X139816666Y-65877281D01*
X139895016Y-65819833D01*
X139989386Y-65796740D01*
X140085411Y-65811519D01*
X140168470Y-65861921D01*
X140225918Y-65940271D01*
X140235397Y-65963613D01*
X140273515Y-66073073D01*
X140368684Y-66225375D01*
X140495230Y-66352807D01*
X140506981Y-66360265D01*
X140506983Y-66360266D01*
X140535739Y-66378515D01*
X140646864Y-66449037D01*
X140659976Y-66453706D01*
X140659978Y-66453707D01*
X140709280Y-66471262D01*
X140816049Y-66509281D01*
X140829872Y-66510929D01*
X140829875Y-66510930D01*
X140919902Y-66521665D01*
X140994376Y-66530545D01*
X141008220Y-66529090D01*
X141008223Y-66529090D01*
X141096965Y-66519763D01*
X141172983Y-66511773D01*
X141192450Y-66505146D01*
X141329816Y-66458383D01*
X141329817Y-66458382D01*
X141342993Y-66453897D01*
X141408350Y-66413689D01*
X141484103Y-66367086D01*
X141484107Y-66367083D01*
X141495955Y-66359794D01*
X141624268Y-66234141D01*
X141633638Y-66219603D01*
X141690243Y-66131768D01*
X141721554Y-66083183D01*
X141782978Y-65914422D01*
X141800500Y-65775717D01*
X141800500Y-65129845D01*
X141785546Y-64996528D01*
X141726485Y-64826927D01*
X141631316Y-64674625D01*
X141504770Y-64547193D01*
X141455935Y-64516201D01*
X141364886Y-64458420D01*
X141353136Y-64450963D01*
X141340024Y-64446294D01*
X141340022Y-64446293D01*
X141290720Y-64428738D01*
X141183951Y-64390719D01*
X141170128Y-64389071D01*
X141170125Y-64389070D01*
X141080098Y-64378335D01*
X141005624Y-64369455D01*
X140991780Y-64370910D01*
X140991777Y-64370910D01*
X140903035Y-64380237D01*
X140827017Y-64388227D01*
X140813840Y-64392713D01*
X140813839Y-64392713D01*
X140670184Y-64441617D01*
X140670183Y-64441618D01*
X140657007Y-64446103D01*
X140645150Y-64453397D01*
X140645151Y-64453397D01*
X140515897Y-64532914D01*
X140515893Y-64532917D01*
X140504045Y-64540206D01*
X140494101Y-64549943D01*
X140494102Y-64549943D01*
X140396499Y-64645523D01*
X140375732Y-64665859D01*
X140368196Y-64677553D01*
X140368194Y-64677555D01*
X140347285Y-64710000D01*
X140278446Y-64816817D01*
X140233733Y-64939665D01*
X140183334Y-65022719D01*
X140104984Y-65080167D01*
X140010614Y-65103260D01*
X139914589Y-65088481D01*
X139831530Y-65038079D01*
X139774082Y-64959729D01*
X139764602Y-64936385D01*
X139731064Y-64840076D01*
X139726485Y-64826927D01*
X139631316Y-64674625D01*
X139504770Y-64547193D01*
X139455935Y-64516201D01*
X139364886Y-64458420D01*
X139353136Y-64450963D01*
X139340024Y-64446294D01*
X139340022Y-64446293D01*
X139290720Y-64428738D01*
X139183951Y-64390719D01*
X139170128Y-64389071D01*
X139170125Y-64389070D01*
X139080098Y-64378335D01*
X139005624Y-64369455D01*
X138991780Y-64370910D01*
X138991777Y-64370910D01*
X138903035Y-64380237D01*
X138827017Y-64388227D01*
X138813840Y-64392713D01*
X138813839Y-64392713D01*
X138670184Y-64441617D01*
X138670183Y-64441618D01*
X138657007Y-64446103D01*
X138645150Y-64453397D01*
X138645151Y-64453397D01*
X138515897Y-64532914D01*
X138515893Y-64532917D01*
X138504045Y-64540206D01*
X138494101Y-64549943D01*
X138494102Y-64549943D01*
X138448712Y-64594392D01*
X138367370Y-64647519D01*
X138271888Y-64665474D01*
X138176804Y-64645523D01*
X138096592Y-64590704D01*
X138049011Y-64522117D01*
X138033482Y-64488967D01*
X137955695Y-64363265D01*
X137937847Y-64340746D01*
X137833230Y-64236311D01*
X137810675Y-64218498D01*
X137684839Y-64140932D01*
X137658799Y-64128789D01*
X137517662Y-64081976D01*
X137491232Y-64076310D01*
X137406682Y-64067647D01*
X137394013Y-64067000D01*
X137278527Y-64067000D01*
X137258069Y-64071069D01*
X137254000Y-64091527D01*
X137254000Y-66808472D01*
X137258069Y-66828930D01*
X137278527Y-66832999D01*
X137393926Y-66832999D01*
X137406768Y-66832334D01*
X137492506Y-66823439D01*
X137518989Y-66817720D01*
X137660007Y-66770673D01*
X137686038Y-66758479D01*
X137811735Y-66680695D01*
X137834254Y-66662847D01*
X137938689Y-66558230D01*
X137956502Y-66535675D01*
X138034065Y-66409843D01*
X138048674Y-66378515D01*
X138106124Y-66300165D01*
X138189183Y-66249765D01*
X138285208Y-66234986D01*
X138379578Y-66258079D01*
X138451026Y-66308294D01*
X138477182Y-66334633D01*
X138530877Y-66415602D01*
X138549500Y-66510088D01*
X138549500Y-75710257D01*
X138530546Y-75805545D01*
X138476570Y-75886326D01*
X137936328Y-76426569D01*
X137855546Y-76480546D01*
X137760258Y-76499500D01*
X137141024Y-76499500D01*
X137045736Y-76480546D01*
X137031675Y-76474205D01*
X137018879Y-76467950D01*
X137018878Y-76467950D01*
X137001518Y-76459464D01*
X136982398Y-76456675D01*
X136982396Y-76456674D01*
X136951661Y-76452191D01*
X136933218Y-76449500D01*
X135841782Y-76449500D01*
X135772888Y-76459642D01*
X135668145Y-76511068D01*
X135653605Y-76525633D01*
X135653604Y-76525634D01*
X135643648Y-76535608D01*
X135585707Y-76593650D01*
X135534464Y-76698482D01*
X135531675Y-76717602D01*
X135531674Y-76717604D01*
X135529751Y-76730788D01*
X135524500Y-76766782D01*
X135524500Y-77133218D01*
X135534642Y-77202112D01*
X135586068Y-77306855D01*
X135600633Y-77321395D01*
X135600634Y-77321396D01*
X135627537Y-77348252D01*
X135668650Y-77389293D01*
X135709132Y-77409081D01*
X135738303Y-77423340D01*
X135773482Y-77440536D01*
X135792602Y-77443325D01*
X135792604Y-77443326D01*
X135808791Y-77445687D01*
X135841782Y-77450500D01*
X135850804Y-77450500D01*
X135858191Y-77451036D01*
X135951859Y-77476834D01*
X136028523Y-77536514D01*
X136076513Y-77620989D01*
X136088523Y-77717398D01*
X136062725Y-77811066D01*
X136003045Y-77887730D01*
X135999978Y-77890163D01*
X135986658Y-77896950D01*
X135907038Y-77976570D01*
X135826256Y-78030546D01*
X135730968Y-78049500D01*
X134812000Y-78049500D01*
X134716712Y-78030546D01*
X134635930Y-77976570D01*
X134581954Y-77895788D01*
X134563000Y-77800500D01*
X134563000Y-77671594D01*
X134581954Y-77576306D01*
X134635930Y-77495524D01*
X134716057Y-77441985D01*
X134727112Y-77440358D01*
X134831855Y-77388932D01*
X134863083Y-77357650D01*
X134899755Y-77320913D01*
X134914293Y-77306350D01*
X134965536Y-77201518D01*
X134975500Y-77133218D01*
X134975500Y-76766782D01*
X134965358Y-76697888D01*
X134913932Y-76593145D01*
X134916298Y-76591984D01*
X134888875Y-76531385D01*
X134885741Y-76434281D01*
X134914985Y-76356688D01*
X134914293Y-76356350D01*
X134944950Y-76293632D01*
X134957050Y-76268879D01*
X134957050Y-76268878D01*
X134965536Y-76251518D01*
X134969209Y-76226346D01*
X134974198Y-76192142D01*
X134975500Y-76183218D01*
X134975500Y-75816782D01*
X134965358Y-75747888D01*
X134954782Y-75726346D01*
X134913932Y-75643145D01*
X134916298Y-75641984D01*
X134888875Y-75581385D01*
X134885741Y-75484281D01*
X134914985Y-75406688D01*
X134914293Y-75406350D01*
X134965536Y-75301518D01*
X134968796Y-75279177D01*
X134974198Y-75242142D01*
X134975500Y-75233218D01*
X134975500Y-74866782D01*
X134965358Y-74797888D01*
X134942270Y-74750862D01*
X134923002Y-74711619D01*
X134913932Y-74693145D01*
X134831350Y-74610707D01*
X134744329Y-74568170D01*
X134743873Y-74567947D01*
X134743871Y-74567946D01*
X134726518Y-74559464D01*
X134725647Y-74559337D01*
X134653028Y-74520030D01*
X134591789Y-74444606D01*
X134564074Y-74351487D01*
X134563000Y-74328382D01*
X134563000Y-74144156D01*
X134581954Y-74048868D01*
X134600320Y-74016072D01*
X134603050Y-74013342D01*
X134660646Y-73900304D01*
X134675500Y-73806519D01*
X134675499Y-73193482D01*
X134660646Y-73099696D01*
X134616066Y-73012204D01*
X134611947Y-73004119D01*
X134611945Y-73004116D01*
X134603050Y-72986658D01*
X134542462Y-72926070D01*
X134488486Y-72845288D01*
X134469532Y-72750000D01*
X134488486Y-72654712D01*
X134542462Y-72573930D01*
X134603050Y-72513342D01*
X134660646Y-72400304D01*
X134675500Y-72306519D01*
X134675499Y-71693482D01*
X134660646Y-71599696D01*
X134603050Y-71486658D01*
X134513342Y-71396950D01*
X134400304Y-71339354D01*
X134380948Y-71336288D01*
X134380947Y-71336288D01*
X134365446Y-71333833D01*
X134306519Y-71324500D01*
X134075083Y-71324500D01*
X133843482Y-71324501D01*
X133749696Y-71339354D01*
X133636658Y-71396950D01*
X133606067Y-71427541D01*
X133525285Y-71481517D01*
X133429997Y-71500471D01*
X133425510Y-71500138D01*
X133424739Y-71499907D01*
X133354105Y-71499475D01*
X133299114Y-71499139D01*
X133299111Y-71499139D01*
X133281376Y-71499031D01*
X133264322Y-71503905D01*
X133176537Y-71528994D01*
X133079708Y-71536955D01*
X132987204Y-71507255D01*
X132932042Y-71465650D01*
X132863342Y-71396950D01*
X132750304Y-71339354D01*
X132730948Y-71336288D01*
X132730947Y-71336288D01*
X132715446Y-71333833D01*
X132656519Y-71324500D01*
X132425083Y-71324500D01*
X132193482Y-71324501D01*
X132099696Y-71339354D01*
X131986658Y-71396950D01*
X131896950Y-71486658D01*
X131839354Y-71599696D01*
X131824500Y-71693481D01*
X131824501Y-72306518D01*
X131839354Y-72400304D01*
X131896950Y-72513342D01*
X131910805Y-72527197D01*
X131922327Y-72543056D01*
X131919641Y-72545007D01*
X131955546Y-72598744D01*
X131974500Y-72694032D01*
X131974500Y-72805968D01*
X131955546Y-72901256D01*
X131919641Y-72954993D01*
X131922327Y-72956944D01*
X131910805Y-72972803D01*
X131896950Y-72986658D01*
X131870512Y-73038546D01*
X131810366Y-73114840D01*
X131725599Y-73162313D01*
X131648653Y-73174500D01*
X126235070Y-73174500D01*
X126213367Y-73173552D01*
X126202900Y-73172636D01*
X126202899Y-73172636D01*
X126181193Y-73170737D01*
X126149975Y-73179102D01*
X126128790Y-73183799D01*
X126096955Y-73189412D01*
X126084359Y-73196684D01*
X126070316Y-73200447D01*
X126052475Y-73212939D01*
X126043846Y-73218981D01*
X126025528Y-73230650D01*
X126016415Y-73235911D01*
X126016413Y-73235912D01*
X125997545Y-73246806D01*
X125983541Y-73263496D01*
X125983539Y-73263497D01*
X125976783Y-73271549D01*
X125962109Y-73287564D01*
X125875570Y-73374103D01*
X125794788Y-73428079D01*
X125699500Y-73447033D01*
X125604212Y-73428079D01*
X125523430Y-73374103D01*
X125469454Y-73293321D01*
X125450500Y-73198033D01*
X125450500Y-73041470D01*
X125452226Y-73012204D01*
X125453176Y-73004175D01*
X125455364Y-72985690D01*
X125445175Y-72929898D01*
X125443894Y-72922201D01*
X125437884Y-72882232D01*
X125437883Y-72882229D01*
X125435449Y-72866038D01*
X125432321Y-72859525D01*
X125431025Y-72852427D01*
X125416519Y-72824501D01*
X125404886Y-72802106D01*
X125401391Y-72795113D01*
X125376809Y-72743921D01*
X125371906Y-72738617D01*
X125368579Y-72732212D01*
X125364275Y-72727172D01*
X125328733Y-72691630D01*
X125321956Y-72684581D01*
X125297489Y-72658112D01*
X125297487Y-72658110D01*
X125284854Y-72644444D01*
X125277162Y-72639976D01*
X125276368Y-72639265D01*
X124897871Y-72260768D01*
X124878398Y-72238853D01*
X124873395Y-72232507D01*
X124861872Y-72217890D01*
X124815177Y-72185617D01*
X124808842Y-72181090D01*
X124776353Y-72157093D01*
X124763184Y-72147366D01*
X124756368Y-72144973D01*
X124750431Y-72140869D01*
X124734839Y-72135938D01*
X124734837Y-72135937D01*
X124696331Y-72123759D01*
X124688911Y-72121283D01*
X124650808Y-72107902D01*
X124650801Y-72107900D01*
X124635369Y-72102481D01*
X124628155Y-72102198D01*
X124621270Y-72100020D01*
X124614663Y-72099500D01*
X124564397Y-72099500D01*
X124554620Y-72099308D01*
X124551369Y-72099180D01*
X124500006Y-72097162D01*
X124491409Y-72099441D01*
X124490343Y-72099500D01*
X118287645Y-72099500D01*
X118192357Y-72080546D01*
X118111575Y-72026570D01*
X118087356Y-71998437D01*
X118083210Y-71992824D01*
X118072150Y-71977850D01*
X117963184Y-71897366D01*
X117835369Y-71852481D01*
X117803834Y-71849500D01*
X116746166Y-71849500D01*
X116714631Y-71852481D01*
X116586816Y-71897366D01*
X116571842Y-71908426D01*
X116555393Y-71917135D01*
X116554915Y-71916232D01*
X116484533Y-71949353D01*
X116387486Y-71953932D01*
X116296074Y-71921024D01*
X116224214Y-71855639D01*
X116182845Y-71767731D01*
X116175500Y-71707698D01*
X116175500Y-71646166D01*
X116172519Y-71614631D01*
X116127634Y-71486816D01*
X116047150Y-71377850D01*
X115938184Y-71297366D01*
X115810369Y-71252481D01*
X115778834Y-71249500D01*
X114921166Y-71249500D01*
X114889631Y-71252481D01*
X114761816Y-71297366D01*
X114652850Y-71377850D01*
X114572366Y-71486816D01*
X114527481Y-71614631D01*
X114524500Y-71646166D01*
X114524500Y-73160449D01*
X114505546Y-73255737D01*
X114451570Y-73336519D01*
X114370788Y-73390495D01*
X114274010Y-73409444D01*
X114273002Y-73409438D01*
X114177833Y-73389913D01*
X114097377Y-73335453D01*
X114043886Y-73254349D01*
X114025500Y-73160443D01*
X114025500Y-71646166D01*
X114022519Y-71614631D01*
X113977634Y-71486816D01*
X113897150Y-71377850D01*
X113788184Y-71297366D01*
X113660369Y-71252481D01*
X113628834Y-71249500D01*
X112771166Y-71249500D01*
X112739631Y-71252481D01*
X112611816Y-71297366D01*
X112502850Y-71377850D01*
X112422366Y-71486816D01*
X112377481Y-71614631D01*
X112374500Y-71646166D01*
X112374500Y-73453834D01*
X112377481Y-73485369D01*
X112422366Y-73613184D01*
X112502850Y-73722150D01*
X112611816Y-73802634D01*
X112676930Y-73825500D01*
X112708003Y-73836412D01*
X112791628Y-73885868D01*
X112849962Y-73963561D01*
X112874124Y-74057664D01*
X112874500Y-74071347D01*
X112874500Y-74156476D01*
X112855546Y-74251764D01*
X112849205Y-74265825D01*
X112834464Y-74295982D01*
X112824500Y-74364282D01*
X112824500Y-75455718D01*
X112834642Y-75524612D01*
X112843170Y-75541981D01*
X112843170Y-75541982D01*
X112851902Y-75559766D01*
X112886068Y-75629355D01*
X112900633Y-75643895D01*
X112900634Y-75643896D01*
X112927537Y-75670752D01*
X112968650Y-75711793D01*
X113073482Y-75763036D01*
X113092602Y-75765825D01*
X113092604Y-75765826D01*
X113123339Y-75770309D01*
X113141782Y-75773000D01*
X113508218Y-75773000D01*
X113577112Y-75762858D01*
X113607603Y-75747888D01*
X113681855Y-75711432D01*
X113683016Y-75713798D01*
X113743615Y-75686375D01*
X113840719Y-75683241D01*
X113918312Y-75712485D01*
X113918650Y-75711793D01*
X114023482Y-75763036D01*
X114042602Y-75765825D01*
X114042604Y-75765826D01*
X114073339Y-75770309D01*
X114091782Y-75773000D01*
X114458218Y-75773000D01*
X114527112Y-75762858D01*
X114557603Y-75747888D01*
X114592981Y-75730518D01*
X114631855Y-75711432D01*
X114656869Y-75686375D01*
X114673252Y-75669963D01*
X114714293Y-75628850D01*
X114755458Y-75544636D01*
X114757050Y-75541379D01*
X114757050Y-75541378D01*
X114765536Y-75524018D01*
X114768364Y-75504637D01*
X114774198Y-75464642D01*
X114775500Y-75455718D01*
X114775500Y-74364282D01*
X114765358Y-74295388D01*
X114756829Y-74278016D01*
X114751087Y-74259537D01*
X114752294Y-74259162D01*
X114732900Y-74186270D01*
X114744182Y-74094715D01*
X114748974Y-74079701D01*
X114756710Y-74063733D01*
X114759654Y-74046236D01*
X114765046Y-74029340D01*
X114768217Y-74030352D01*
X114792146Y-73967362D01*
X114858778Y-73896656D01*
X114947396Y-73856832D01*
X115003192Y-73850500D01*
X115778834Y-73850500D01*
X115810369Y-73847519D01*
X115938184Y-73802634D01*
X115953669Y-73791197D01*
X115994462Y-73761066D01*
X116082370Y-73719698D01*
X116149350Y-73716539D01*
X116140944Y-73698676D01*
X116136367Y-73601629D01*
X116147665Y-73556144D01*
X116167491Y-73499687D01*
X116167491Y-73499686D01*
X116172519Y-73485369D01*
X116175500Y-73453834D01*
X116175500Y-73392302D01*
X116194454Y-73297014D01*
X116248430Y-73216232D01*
X116329212Y-73162256D01*
X116424500Y-73143302D01*
X116519788Y-73162256D01*
X116568956Y-73190046D01*
X116571842Y-73191574D01*
X116586816Y-73202634D01*
X116631187Y-73218216D01*
X116714810Y-73267669D01*
X116773145Y-73345362D01*
X116797308Y-73439464D01*
X116789726Y-73501896D01*
X116791447Y-73502164D01*
X116790525Y-73508084D01*
X116777588Y-73591174D01*
X116744199Y-73682412D01*
X116678437Y-73753927D01*
X116614052Y-73787801D01*
X116586816Y-73797366D01*
X116571844Y-73808424D01*
X116571843Y-73808425D01*
X116530538Y-73838934D01*
X116442630Y-73880302D01*
X116375650Y-73883461D01*
X116384056Y-73901324D01*
X116388633Y-73998371D01*
X116377335Y-74043856D01*
X116375575Y-74048868D01*
X116352481Y-74114631D01*
X116349500Y-74146166D01*
X116349500Y-74753834D01*
X116352481Y-74785369D01*
X116397366Y-74913184D01*
X116477850Y-75022150D01*
X116586816Y-75102634D01*
X116714631Y-75147519D01*
X116746166Y-75150500D01*
X117803834Y-75150500D01*
X117835369Y-75147519D01*
X117963184Y-75102634D01*
X118072150Y-75022150D01*
X118152634Y-74913184D01*
X118197519Y-74785369D01*
X118200500Y-74753834D01*
X118200500Y-74146166D01*
X118197519Y-74114631D01*
X118152634Y-73986816D01*
X118072150Y-73877850D01*
X117963184Y-73797366D01*
X117945620Y-73791198D01*
X117945618Y-73791197D01*
X117935761Y-73787735D01*
X117852137Y-73738278D01*
X117793804Y-73660584D01*
X117771783Y-73588103D01*
X117762838Y-73525647D01*
X117760323Y-73508084D01*
X117760765Y-73508021D01*
X117753546Y-73426342D01*
X117782679Y-73333657D01*
X117845063Y-73259177D01*
X117918586Y-73218296D01*
X117963184Y-73202634D01*
X118072150Y-73122150D01*
X118087356Y-73101563D01*
X118159216Y-73036177D01*
X118250627Y-73003267D01*
X118287645Y-73000500D01*
X124260257Y-73000500D01*
X124355545Y-73019454D01*
X124436327Y-73073430D01*
X124476570Y-73113673D01*
X124530546Y-73194455D01*
X124549500Y-73289743D01*
X124549500Y-73907854D01*
X124530546Y-74003142D01*
X124476570Y-74083924D01*
X124437026Y-74116089D01*
X124415315Y-74130323D01*
X124405369Y-74140822D01*
X124405368Y-74140823D01*
X124319439Y-74231532D01*
X124294960Y-74257372D01*
X124287693Y-74269883D01*
X124214611Y-74395703D01*
X124150361Y-74468580D01*
X124063113Y-74511322D01*
X123966150Y-74517423D01*
X123874233Y-74485953D01*
X123801356Y-74421703D01*
X123770175Y-74368127D01*
X123762012Y-74348942D01*
X123762010Y-74348938D01*
X123756346Y-74335627D01*
X123652617Y-74194676D01*
X123630046Y-74175500D01*
X123530267Y-74090732D01*
X123530268Y-74090732D01*
X123519245Y-74081368D01*
X123472824Y-74057664D01*
X123376263Y-74008357D01*
X123376260Y-74008356D01*
X123363384Y-74001781D01*
X123339273Y-73995881D01*
X123204171Y-73962822D01*
X123204170Y-73962822D01*
X123193394Y-73960185D01*
X123182352Y-73959500D01*
X122856178Y-73959500D01*
X122726172Y-73974657D01*
X122561669Y-74034369D01*
X122549576Y-74042297D01*
X122549573Y-74042299D01*
X122505268Y-74071347D01*
X122415315Y-74130323D01*
X122405367Y-74140824D01*
X122405365Y-74140826D01*
X122319439Y-74231532D01*
X122294960Y-74257372D01*
X122207061Y-74408702D01*
X122156333Y-74576193D01*
X122155437Y-74590628D01*
X122155437Y-74590631D01*
X122147899Y-74712136D01*
X122145497Y-74750862D01*
X122147948Y-74765126D01*
X122147948Y-74765127D01*
X122160120Y-74835963D01*
X122175134Y-74923340D01*
X122243654Y-75084373D01*
X122347383Y-75225324D01*
X122480755Y-75338632D01*
X122493632Y-75345207D01*
X122493633Y-75345208D01*
X122623737Y-75411643D01*
X122623740Y-75411644D01*
X122636616Y-75418219D01*
X122650666Y-75421657D01*
X122789863Y-75455718D01*
X122806606Y-75459815D01*
X122817648Y-75460500D01*
X122817667Y-75460500D01*
X122828638Y-75462169D01*
X122828444Y-75463447D01*
X122911112Y-75485288D01*
X122988397Y-75544162D01*
X123037268Y-75628131D01*
X123050286Y-75724410D01*
X123025469Y-75818341D01*
X122977834Y-75885063D01*
X122710768Y-76152129D01*
X122688854Y-76171601D01*
X122667890Y-76188128D01*
X122635617Y-76234823D01*
X122631096Y-76241149D01*
X122597366Y-76286816D01*
X122594973Y-76293632D01*
X122590869Y-76299569D01*
X122585938Y-76315161D01*
X122585937Y-76315163D01*
X122573759Y-76353669D01*
X122571283Y-76361089D01*
X122557902Y-76399192D01*
X122557900Y-76399199D01*
X122552481Y-76414631D01*
X122552198Y-76421845D01*
X122550020Y-76428730D01*
X122549500Y-76435337D01*
X122549500Y-76439840D01*
X122546680Y-76454312D01*
X122509851Y-76544217D01*
X122438798Y-76614927D01*
X122415315Y-76630323D01*
X122363223Y-76685312D01*
X122321002Y-76729882D01*
X122294960Y-76757372D01*
X122207061Y-76908702D01*
X122202868Y-76922545D01*
X122202868Y-76922546D01*
X122196905Y-76942235D01*
X122156333Y-77076193D01*
X122155437Y-77090628D01*
X122155437Y-77090631D01*
X122151954Y-77146773D01*
X122145497Y-77250862D01*
X122147948Y-77265126D01*
X122147948Y-77265127D01*
X122155118Y-77306855D01*
X122175134Y-77423340D01*
X122243654Y-77584373D01*
X122347383Y-77725324D01*
X122358405Y-77734687D01*
X122358405Y-77734688D01*
X122364327Y-77739719D01*
X122480755Y-77838632D01*
X122493632Y-77845207D01*
X122493633Y-77845208D01*
X122623737Y-77911643D01*
X122623740Y-77911644D01*
X122636616Y-77918219D01*
X122650666Y-77921657D01*
X122754309Y-77947018D01*
X122806606Y-77959815D01*
X122817648Y-77960500D01*
X123143822Y-77960500D01*
X123273828Y-77945343D01*
X123438331Y-77885631D01*
X123450424Y-77877703D01*
X123450427Y-77877701D01*
X123529236Y-77826031D01*
X123584685Y-77789677D01*
X123640538Y-77730718D01*
X123695088Y-77673134D01*
X123695092Y-77673129D01*
X123705040Y-77662628D01*
X123755180Y-77576306D01*
X123785389Y-77524297D01*
X123849639Y-77451420D01*
X123936887Y-77408678D01*
X124033850Y-77402577D01*
X124125767Y-77434047D01*
X124198644Y-77498297D01*
X124229825Y-77551873D01*
X124243654Y-77584373D01*
X124347383Y-77725324D01*
X124358405Y-77734687D01*
X124358405Y-77734688D01*
X124364327Y-77739719D01*
X124410769Y-77779174D01*
X124461716Y-77822457D01*
X124522064Y-77898597D01*
X124548680Y-77992035D01*
X124549500Y-78012221D01*
X124549500Y-80300500D01*
X124530546Y-80395788D01*
X124476570Y-80476570D01*
X124395788Y-80530546D01*
X124300500Y-80549500D01*
X119299500Y-80549500D01*
X119204212Y-80530546D01*
X119123430Y-80476570D01*
X119069454Y-80395788D01*
X119050500Y-80300500D01*
X119050500Y-79235265D01*
X119052425Y-79229658D01*
X119050675Y-79183036D01*
X119050500Y-79173696D01*
X119050500Y-79157052D01*
X119051050Y-79157052D01*
X119051592Y-79151872D01*
X119051529Y-79151594D01*
X119049498Y-79151670D01*
X119049088Y-79140762D01*
X119048226Y-79117792D01*
X119039424Y-79097304D01*
X119039378Y-79097082D01*
X119039293Y-79096872D01*
X119035209Y-79074947D01*
X119023148Y-79055381D01*
X119021392Y-79050829D01*
X119012080Y-79032904D01*
X119010976Y-79031091D01*
X119004036Y-79014937D01*
X119000022Y-79010051D01*
X118987468Y-78997497D01*
X118976468Y-78979652D01*
X118958168Y-78965736D01*
X118956618Y-78964027D01*
X118935973Y-78946002D01*
X116998029Y-77008058D01*
X116995425Y-77002731D01*
X116961223Y-76971004D01*
X116954494Y-76964523D01*
X116942723Y-76952752D01*
X116943112Y-76952363D01*
X116939837Y-76948321D01*
X116939591Y-76948165D01*
X116938209Y-76949655D01*
X116930210Y-76942235D01*
X116913354Y-76926599D01*
X116892640Y-76918335D01*
X116892452Y-76918211D01*
X116892244Y-76918124D01*
X116873854Y-76905508D01*
X116851487Y-76900200D01*
X116847023Y-76898222D01*
X116827768Y-76892132D01*
X116825700Y-76891629D01*
X116809378Y-76885117D01*
X116803085Y-76884500D01*
X116785329Y-76884500D01*
X116764934Y-76879660D01*
X116742152Y-76882760D01*
X116739852Y-76882648D01*
X116712501Y-76884500D01*
X115974223Y-76884500D01*
X115878935Y-76865546D01*
X115798153Y-76811570D01*
X115744177Y-76730788D01*
X115725888Y-76653680D01*
X115725500Y-76648380D01*
X115725500Y-76639282D01*
X115715358Y-76570388D01*
X115706141Y-76551614D01*
X115681780Y-76501998D01*
X115663932Y-76465645D01*
X115649087Y-76450825D01*
X115608908Y-76410717D01*
X115603336Y-76405155D01*
X120099500Y-76405155D01*
X120100276Y-76412071D01*
X120100276Y-76412075D01*
X120101372Y-76421845D01*
X120114454Y-76538472D01*
X120141078Y-76614927D01*
X120168850Y-76694676D01*
X120173515Y-76708073D01*
X120268684Y-76860375D01*
X120395230Y-76987807D01*
X120406981Y-76995265D01*
X120406983Y-76995266D01*
X120432285Y-77011323D01*
X120546864Y-77084037D01*
X120559976Y-77088706D01*
X120559978Y-77088707D01*
X120609280Y-77106262D01*
X120716049Y-77144281D01*
X120729872Y-77145929D01*
X120729875Y-77145930D01*
X120804877Y-77154873D01*
X120894376Y-77165545D01*
X120908220Y-77164090D01*
X120908223Y-77164090D01*
X120996965Y-77154763D01*
X121072983Y-77146773D01*
X121086161Y-77142287D01*
X121229816Y-77093383D01*
X121229817Y-77093382D01*
X121242993Y-77088897D01*
X121277991Y-77067366D01*
X121384103Y-77002086D01*
X121384107Y-77002083D01*
X121395955Y-76994794D01*
X121524268Y-76869141D01*
X121545867Y-76835627D01*
X121584371Y-76775880D01*
X121621554Y-76718183D01*
X121667487Y-76591984D01*
X121678215Y-76562509D01*
X121678216Y-76562507D01*
X121682978Y-76549422D01*
X121700500Y-76410717D01*
X121700500Y-75514845D01*
X121699006Y-75501521D01*
X121694327Y-75459815D01*
X121685546Y-75381528D01*
X121637007Y-75242142D01*
X121631065Y-75225078D01*
X121631064Y-75225075D01*
X121626485Y-75211927D01*
X121531316Y-75059625D01*
X121404770Y-74932193D01*
X121368352Y-74909081D01*
X121287637Y-74857858D01*
X121253136Y-74835963D01*
X121240024Y-74831294D01*
X121240022Y-74831293D01*
X121151258Y-74799686D01*
X121083951Y-74775719D01*
X121070128Y-74774071D01*
X121070125Y-74774070D01*
X120980098Y-74763335D01*
X120905624Y-74754455D01*
X120891780Y-74755910D01*
X120891777Y-74755910D01*
X120804085Y-74765127D01*
X120727017Y-74773227D01*
X120713840Y-74777713D01*
X120713839Y-74777713D01*
X120570184Y-74826617D01*
X120570183Y-74826618D01*
X120557007Y-74831103D01*
X120545150Y-74838397D01*
X120545151Y-74838397D01*
X120415897Y-74917914D01*
X120415893Y-74917917D01*
X120404045Y-74925206D01*
X120275732Y-75050859D01*
X120268196Y-75062553D01*
X120268194Y-75062555D01*
X120249492Y-75091575D01*
X120178446Y-75201817D01*
X120167017Y-75233218D01*
X120132058Y-75329268D01*
X120117022Y-75370578D01*
X120099500Y-75509283D01*
X120099500Y-76405155D01*
X115603336Y-76405155D01*
X115581350Y-76383207D01*
X115527098Y-76356688D01*
X115493879Y-76340450D01*
X115493878Y-76340450D01*
X115476518Y-76331964D01*
X115457398Y-76329175D01*
X115457396Y-76329174D01*
X115417300Y-76323325D01*
X115408218Y-76322000D01*
X115041782Y-76322000D01*
X114972888Y-76332142D01*
X114955519Y-76340670D01*
X114955518Y-76340670D01*
X114938497Y-76349027D01*
X114868145Y-76383568D01*
X114853605Y-76398133D01*
X114853604Y-76398134D01*
X114844216Y-76407539D01*
X114785707Y-76466150D01*
X114734464Y-76570982D01*
X114731675Y-76590102D01*
X114731674Y-76590104D01*
X114729616Y-76604212D01*
X114724500Y-76639282D01*
X114724500Y-77730718D01*
X114734642Y-77799612D01*
X114743170Y-77816981D01*
X114743170Y-77816982D01*
X114772982Y-77877701D01*
X114786068Y-77904355D01*
X114794297Y-77912569D01*
X114831248Y-77994220D01*
X114834384Y-78091324D01*
X114800121Y-78182237D01*
X114736665Y-78250943D01*
X114652850Y-78312850D01*
X114572366Y-78421816D01*
X114566199Y-78439377D01*
X114566198Y-78439379D01*
X114565040Y-78442677D01*
X114559427Y-78452168D01*
X114557489Y-78455828D01*
X114557316Y-78455737D01*
X114515583Y-78526302D01*
X114437889Y-78584635D01*
X114343787Y-78608796D01*
X114328591Y-78609167D01*
X114306376Y-78609031D01*
X114289322Y-78613905D01*
X114185585Y-78643553D01*
X114185583Y-78643554D01*
X114168529Y-78648428D01*
X114047280Y-78724930D01*
X113952377Y-78832388D01*
X113944839Y-78848442D01*
X113944839Y-78848443D01*
X113899035Y-78946002D01*
X113891447Y-78962163D01*
X113888719Y-78979687D01*
X113888718Y-78979689D01*
X113883479Y-79013342D01*
X113869391Y-79103823D01*
X113887980Y-79245979D01*
X113945720Y-79377203D01*
X114037970Y-79486948D01*
X114157313Y-79566390D01*
X114174246Y-79571680D01*
X114174248Y-79571681D01*
X114226647Y-79588051D01*
X114294157Y-79609142D01*
X114334322Y-79609878D01*
X114429245Y-79630574D01*
X114509024Y-79686022D01*
X114557268Y-79764289D01*
X114557489Y-79764172D01*
X114559275Y-79767546D01*
X114564693Y-79776335D01*
X114572366Y-79798184D01*
X114652850Y-79907150D01*
X114761816Y-79987634D01*
X114889631Y-80032519D01*
X114921166Y-80035500D01*
X115528834Y-80035500D01*
X115560369Y-80032519D01*
X115688184Y-79987634D01*
X115797150Y-79907150D01*
X115877634Y-79798184D01*
X115922519Y-79670369D01*
X115925500Y-79638834D01*
X115925500Y-78581166D01*
X115922519Y-78549631D01*
X115877634Y-78421816D01*
X115797150Y-78312850D01*
X115713339Y-78250946D01*
X115647956Y-78179090D01*
X115615045Y-78087679D01*
X115619622Y-77990632D01*
X115655549Y-77912609D01*
X115664293Y-77903850D01*
X115700288Y-77830212D01*
X115707050Y-77816379D01*
X115707050Y-77816378D01*
X115715536Y-77799018D01*
X115725500Y-77730718D01*
X115725500Y-77721701D01*
X115725879Y-77716478D01*
X115751680Y-77622812D01*
X115811362Y-77546149D01*
X115895838Y-77498161D01*
X115974226Y-77485500D01*
X116522389Y-77485500D01*
X116617677Y-77504454D01*
X116698459Y-77558430D01*
X118376570Y-79236541D01*
X118430546Y-79317323D01*
X118449500Y-79412611D01*
X118449500Y-80300500D01*
X118430546Y-80395788D01*
X118376570Y-80476570D01*
X118295788Y-80530546D01*
X118200500Y-80549500D01*
X110807078Y-80549500D01*
X110800533Y-80549243D01*
X110785745Y-80545815D01*
X110744092Y-80548764D01*
X110742486Y-80548878D01*
X110724899Y-80549500D01*
X103291470Y-80549500D01*
X103262204Y-80547774D01*
X103254173Y-80546823D01*
X103254169Y-80546823D01*
X103235690Y-80544636D01*
X103217386Y-80547979D01*
X103217379Y-80547979D01*
X103179883Y-80554827D01*
X103172173Y-80556110D01*
X103132227Y-80562116D01*
X103132216Y-80562119D01*
X103116038Y-80564551D01*
X103109528Y-80567677D01*
X103102427Y-80568974D01*
X103052025Y-80595155D01*
X103045119Y-80598605D01*
X102993921Y-80623191D01*
X102988620Y-80628092D01*
X102982212Y-80631420D01*
X102977172Y-80635725D01*
X102941630Y-80671267D01*
X102934581Y-80678044D01*
X102908112Y-80702511D01*
X102908110Y-80702513D01*
X102894444Y-80715146D01*
X102889976Y-80722838D01*
X102889265Y-80723632D01*
X102685827Y-80927070D01*
X102605045Y-80981046D01*
X102509757Y-81000000D01*
X100449000Y-81000000D01*
X100353712Y-80981046D01*
X100272930Y-80927070D01*
X100218954Y-80846288D01*
X100200000Y-80751000D01*
X100200000Y-67235262D01*
X118894520Y-67235262D01*
X118895539Y-67247397D01*
X118895539Y-67247399D01*
X118898811Y-67286359D01*
X118911759Y-67440553D01*
X118968544Y-67638586D01*
X118974110Y-67649416D01*
X118974111Y-67649419D01*
X118994934Y-67689936D01*
X119062712Y-67821818D01*
X119190677Y-67983270D01*
X119347564Y-68116791D01*
X119527398Y-68217297D01*
X119723329Y-68280959D01*
X119735417Y-68282400D01*
X119735420Y-68282401D01*
X119861803Y-68297470D01*
X119927894Y-68305351D01*
X120133300Y-68289546D01*
X120202125Y-68270330D01*
X120320004Y-68237418D01*
X120320008Y-68237416D01*
X120331725Y-68234145D01*
X120342585Y-68228659D01*
X120342588Y-68228658D01*
X120422285Y-68188400D01*
X120515610Y-68141258D01*
X120525202Y-68133764D01*
X120525205Y-68133762D01*
X120668353Y-68021923D01*
X120668355Y-68021922D01*
X120677951Y-68014424D01*
X120812564Y-67858472D01*
X120818579Y-67847884D01*
X120818582Y-67847880D01*
X120830722Y-67826509D01*
X120894269Y-67753018D01*
X120981102Y-67709440D01*
X121047226Y-67700500D01*
X121390182Y-67700500D01*
X121485470Y-67719454D01*
X121566252Y-67773430D01*
X121598181Y-67813001D01*
X121602712Y-67821818D01*
X121610270Y-67831354D01*
X121610272Y-67831357D01*
X121639071Y-67867692D01*
X121730677Y-67983270D01*
X121887564Y-68116791D01*
X122067398Y-68217297D01*
X122263329Y-68280959D01*
X122275417Y-68282400D01*
X122275420Y-68282401D01*
X122401803Y-68297470D01*
X122467894Y-68305351D01*
X122673300Y-68289546D01*
X122742125Y-68270330D01*
X122860004Y-68237418D01*
X122860008Y-68237416D01*
X122871725Y-68234145D01*
X122882585Y-68228659D01*
X122882588Y-68228658D01*
X122962285Y-68188400D01*
X123055610Y-68141258D01*
X123065202Y-68133764D01*
X123065205Y-68133762D01*
X123208353Y-68021923D01*
X123208355Y-68021922D01*
X123217951Y-68014424D01*
X123352564Y-67858472D01*
X123358579Y-67847884D01*
X123358582Y-67847880D01*
X123370722Y-67826509D01*
X123434269Y-67753018D01*
X123521102Y-67709440D01*
X123587226Y-67700500D01*
X123930182Y-67700500D01*
X124025470Y-67719454D01*
X124106252Y-67773430D01*
X124138181Y-67813001D01*
X124142712Y-67821818D01*
X124150270Y-67831354D01*
X124150272Y-67831357D01*
X124179071Y-67867692D01*
X124270677Y-67983270D01*
X124427564Y-68116791D01*
X124607398Y-68217297D01*
X124803329Y-68280959D01*
X124815417Y-68282400D01*
X124815420Y-68282401D01*
X124941803Y-68297470D01*
X125007894Y-68305351D01*
X125213300Y-68289546D01*
X125282125Y-68270330D01*
X125400004Y-68237418D01*
X125400008Y-68237416D01*
X125411725Y-68234145D01*
X125422585Y-68228659D01*
X125422588Y-68228658D01*
X125502285Y-68188400D01*
X125595610Y-68141258D01*
X125605202Y-68133764D01*
X125605205Y-68133762D01*
X125748353Y-68021923D01*
X125748355Y-68021922D01*
X125757951Y-68014424D01*
X125892564Y-67858472D01*
X125898579Y-67847884D01*
X125898582Y-67847880D01*
X125910722Y-67826509D01*
X125974269Y-67753018D01*
X126061102Y-67709440D01*
X126127226Y-67700500D01*
X126470182Y-67700500D01*
X126565470Y-67719454D01*
X126646252Y-67773430D01*
X126678181Y-67813001D01*
X126682712Y-67821818D01*
X126690270Y-67831354D01*
X126690272Y-67831357D01*
X126719071Y-67867692D01*
X126810677Y-67983270D01*
X126967564Y-68116791D01*
X127147398Y-68217297D01*
X127343329Y-68280959D01*
X127355417Y-68282400D01*
X127355420Y-68282401D01*
X127481803Y-68297470D01*
X127547894Y-68305351D01*
X127753300Y-68289546D01*
X127822125Y-68270330D01*
X127940004Y-68237418D01*
X127940008Y-68237416D01*
X127951725Y-68234145D01*
X127962585Y-68228659D01*
X127962588Y-68228658D01*
X128042285Y-68188400D01*
X128135610Y-68141258D01*
X128145202Y-68133764D01*
X128145205Y-68133762D01*
X128288353Y-68021923D01*
X128288355Y-68021922D01*
X128297951Y-68014424D01*
X128432564Y-67858472D01*
X128438579Y-67847884D01*
X128438582Y-67847880D01*
X128450722Y-67826509D01*
X128514269Y-67753018D01*
X128601102Y-67709440D01*
X128667226Y-67700500D01*
X129010182Y-67700500D01*
X129105470Y-67719454D01*
X129186252Y-67773430D01*
X129218181Y-67813001D01*
X129222712Y-67821818D01*
X129230270Y-67831354D01*
X129230272Y-67831357D01*
X129259071Y-67867692D01*
X129350677Y-67983270D01*
X129507564Y-68116791D01*
X129687398Y-68217297D01*
X129883329Y-68280959D01*
X129895417Y-68282400D01*
X129895420Y-68282401D01*
X130021803Y-68297470D01*
X130087894Y-68305351D01*
X130293300Y-68289546D01*
X130362125Y-68270330D01*
X130480004Y-68237418D01*
X130480008Y-68237416D01*
X130491725Y-68234145D01*
X130502585Y-68228659D01*
X130502588Y-68228658D01*
X130582285Y-68188400D01*
X130675610Y-68141258D01*
X130685202Y-68133764D01*
X130685205Y-68133762D01*
X130828353Y-68021923D01*
X130828355Y-68021922D01*
X130837951Y-68014424D01*
X130972564Y-67858472D01*
X130987968Y-67831357D01*
X131068306Y-67689936D01*
X131068306Y-67689935D01*
X131074323Y-67679344D01*
X131139351Y-67483863D01*
X131165171Y-67279474D01*
X131165583Y-67250000D01*
X131145480Y-67044970D01*
X131085935Y-66847749D01*
X131069969Y-66817720D01*
X130994938Y-66676607D01*
X130989218Y-66665849D01*
X130859011Y-66506200D01*
X130700275Y-66374882D01*
X130673243Y-66360266D01*
X130529764Y-66282687D01*
X130529761Y-66282686D01*
X130519055Y-66276897D01*
X130423649Y-66247364D01*
X130324487Y-66216668D01*
X130239065Y-66170384D01*
X130197320Y-66118926D01*
X135892001Y-66118926D01*
X135892666Y-66131768D01*
X135901561Y-66217506D01*
X135907280Y-66243989D01*
X135954327Y-66385007D01*
X135966521Y-66411038D01*
X136044305Y-66536735D01*
X136062153Y-66559254D01*
X136166770Y-66663689D01*
X136189325Y-66681502D01*
X136315161Y-66759068D01*
X136341201Y-66771211D01*
X136482338Y-66818024D01*
X136508768Y-66823690D01*
X136593318Y-66832353D01*
X136605987Y-66833000D01*
X136721473Y-66833000D01*
X136741931Y-66828931D01*
X136746000Y-66808473D01*
X136746000Y-65728527D01*
X136741931Y-65708069D01*
X136721473Y-65704000D01*
X135916528Y-65704000D01*
X135896070Y-65708069D01*
X135892001Y-65728527D01*
X135892001Y-66118926D01*
X130197320Y-66118926D01*
X130177857Y-66094934D01*
X130150183Y-66001804D01*
X130160254Y-65905173D01*
X130206538Y-65819751D01*
X130281988Y-65758543D01*
X130331158Y-65738976D01*
X130480001Y-65697419D01*
X130480007Y-65697417D01*
X130491725Y-65694145D01*
X130502585Y-65688659D01*
X130502588Y-65688658D01*
X130602416Y-65638231D01*
X130675610Y-65601258D01*
X130685202Y-65593764D01*
X130685205Y-65593762D01*
X130828353Y-65481923D01*
X130828355Y-65481922D01*
X130837951Y-65474424D01*
X130972564Y-65318472D01*
X130987968Y-65291357D01*
X131056071Y-65171473D01*
X135892000Y-65171473D01*
X135896069Y-65191931D01*
X135916527Y-65196000D01*
X136721473Y-65196000D01*
X136741931Y-65191931D01*
X136746000Y-65171473D01*
X136746000Y-64091528D01*
X136741931Y-64071070D01*
X136721473Y-64067001D01*
X136606074Y-64067001D01*
X136593232Y-64067666D01*
X136507494Y-64076561D01*
X136481011Y-64082280D01*
X136339993Y-64129327D01*
X136313962Y-64141521D01*
X136188265Y-64219305D01*
X136165746Y-64237153D01*
X136061311Y-64341770D01*
X136043498Y-64364325D01*
X135965932Y-64490161D01*
X135953789Y-64516201D01*
X135906976Y-64657338D01*
X135901310Y-64683768D01*
X135892647Y-64768318D01*
X135892000Y-64780987D01*
X135892000Y-65171473D01*
X131056071Y-65171473D01*
X131068306Y-65149936D01*
X131068306Y-65149935D01*
X131074323Y-65139344D01*
X131139351Y-64943863D01*
X131165171Y-64739474D01*
X131165583Y-64710000D01*
X131145480Y-64504970D01*
X131085935Y-64307749D01*
X130989218Y-64125849D01*
X130859011Y-63966200D01*
X130700275Y-63834882D01*
X130646524Y-63805819D01*
X130529764Y-63742687D01*
X130529761Y-63742686D01*
X130519055Y-63736897D01*
X130489800Y-63727841D01*
X130333891Y-63679579D01*
X130333889Y-63679579D01*
X130322254Y-63675977D01*
X130117369Y-63654443D01*
X129912203Y-63673114D01*
X129714572Y-63731280D01*
X129532002Y-63826726D01*
X129371447Y-63955815D01*
X129239024Y-64113630D01*
X129233160Y-64124296D01*
X129233157Y-64124301D01*
X129229774Y-64130455D01*
X129167260Y-64204826D01*
X129081044Y-64249613D01*
X129011573Y-64259500D01*
X128669896Y-64259500D01*
X128574608Y-64240546D01*
X128493826Y-64186570D01*
X128463468Y-64145551D01*
X128461673Y-64146744D01*
X128454938Y-64136606D01*
X128449218Y-64125849D01*
X128319011Y-63966200D01*
X128160275Y-63834882D01*
X128106524Y-63805819D01*
X127989764Y-63742687D01*
X127989761Y-63742686D01*
X127979055Y-63736897D01*
X127949800Y-63727841D01*
X127793891Y-63679579D01*
X127793889Y-63679579D01*
X127782254Y-63675977D01*
X127577369Y-63654443D01*
X127372203Y-63673114D01*
X127174572Y-63731280D01*
X126992002Y-63826726D01*
X126831447Y-63955815D01*
X126699024Y-64113630D01*
X126693160Y-64124296D01*
X126693157Y-64124301D01*
X126689774Y-64130455D01*
X126627260Y-64204826D01*
X126541044Y-64249613D01*
X126471573Y-64259500D01*
X126129896Y-64259500D01*
X126034608Y-64240546D01*
X125953826Y-64186570D01*
X125923468Y-64145551D01*
X125921673Y-64146744D01*
X125914938Y-64136606D01*
X125909218Y-64125849D01*
X125779011Y-63966200D01*
X125620275Y-63834882D01*
X125566524Y-63805819D01*
X125449764Y-63742687D01*
X125449761Y-63742686D01*
X125439055Y-63736897D01*
X125409800Y-63727841D01*
X125253891Y-63679579D01*
X125253889Y-63679579D01*
X125242254Y-63675977D01*
X125037369Y-63654443D01*
X124832203Y-63673114D01*
X124634572Y-63731280D01*
X124452002Y-63826726D01*
X124291447Y-63955815D01*
X124159024Y-64113630D01*
X124153160Y-64124296D01*
X124153157Y-64124301D01*
X124149774Y-64130455D01*
X124087260Y-64204826D01*
X124001044Y-64249613D01*
X123931573Y-64259500D01*
X123589896Y-64259500D01*
X123494608Y-64240546D01*
X123413826Y-64186570D01*
X123383468Y-64145551D01*
X123381673Y-64146744D01*
X123374938Y-64136606D01*
X123369218Y-64125849D01*
X123239011Y-63966200D01*
X123080275Y-63834882D01*
X123026524Y-63805819D01*
X122909764Y-63742687D01*
X122909761Y-63742686D01*
X122899055Y-63736897D01*
X122869800Y-63727841D01*
X122713891Y-63679579D01*
X122713889Y-63679579D01*
X122702254Y-63675977D01*
X122497369Y-63654443D01*
X122292203Y-63673114D01*
X122094572Y-63731280D01*
X121912002Y-63826726D01*
X121751447Y-63955815D01*
X121619024Y-64113630D01*
X121613160Y-64124296D01*
X121613157Y-64124301D01*
X121609774Y-64130455D01*
X121547260Y-64204826D01*
X121461044Y-64249613D01*
X121391573Y-64259500D01*
X121249500Y-64259500D01*
X121154212Y-64240546D01*
X121073430Y-64186570D01*
X121019454Y-64105788D01*
X121000500Y-64010500D01*
X121000500Y-63840252D01*
X120996687Y-63821080D01*
X120993651Y-63805819D01*
X120993651Y-63805818D01*
X120988867Y-63781769D01*
X120944552Y-63715448D01*
X120878231Y-63671133D01*
X120854182Y-63666349D01*
X120854181Y-63666349D01*
X120831739Y-63661885D01*
X120831737Y-63661885D01*
X120819748Y-63659500D01*
X119080252Y-63659500D01*
X119068263Y-63661885D01*
X119068261Y-63661885D01*
X119045819Y-63666349D01*
X119045818Y-63666349D01*
X119021769Y-63671133D01*
X118955448Y-63715448D01*
X118911133Y-63781769D01*
X118906349Y-63805818D01*
X118906349Y-63805819D01*
X118903314Y-63821080D01*
X118899500Y-63840252D01*
X118899500Y-65579748D01*
X118901885Y-65591737D01*
X118901885Y-65591739D01*
X118904870Y-65606746D01*
X118911133Y-65638231D01*
X118955448Y-65704552D01*
X119021769Y-65748867D01*
X119045818Y-65753651D01*
X119045819Y-65753651D01*
X119068261Y-65758115D01*
X119068263Y-65758115D01*
X119080252Y-65760500D01*
X119562114Y-65760500D01*
X119657402Y-65779454D01*
X119738184Y-65833430D01*
X119792160Y-65914212D01*
X119811114Y-66009500D01*
X119792160Y-66104788D01*
X119738184Y-66185570D01*
X119657402Y-66239546D01*
X119632418Y-66248369D01*
X119554572Y-66271280D01*
X119372002Y-66366726D01*
X119211447Y-66495815D01*
X119203619Y-66505144D01*
X119203617Y-66505146D01*
X119183526Y-66529090D01*
X119079024Y-66653630D01*
X119073160Y-66664296D01*
X119073159Y-66664298D01*
X118988815Y-66817720D01*
X118979776Y-66834162D01*
X118976098Y-66845756D01*
X118976096Y-66845761D01*
X118971765Y-66859415D01*
X118917484Y-67030532D01*
X118894520Y-67235262D01*
X100200000Y-67235262D01*
X100200000Y-66118926D01*
X108892001Y-66118926D01*
X108892666Y-66131768D01*
X108901561Y-66217506D01*
X108907280Y-66243989D01*
X108954327Y-66385007D01*
X108966521Y-66411038D01*
X109044305Y-66536735D01*
X109062153Y-66559254D01*
X109166770Y-66663689D01*
X109189325Y-66681502D01*
X109315161Y-66759068D01*
X109341201Y-66771211D01*
X109482338Y-66818024D01*
X109508768Y-66823690D01*
X109593318Y-66832353D01*
X109605987Y-66833000D01*
X109721473Y-66833000D01*
X109741931Y-66828931D01*
X109746000Y-66808473D01*
X109746000Y-66808472D01*
X110254000Y-66808472D01*
X110258069Y-66828930D01*
X110278527Y-66832999D01*
X110393926Y-66832999D01*
X110406768Y-66832334D01*
X110492506Y-66823439D01*
X110518989Y-66817720D01*
X110660007Y-66770673D01*
X110686038Y-66758479D01*
X110811735Y-66680695D01*
X110834254Y-66662847D01*
X110938689Y-66558230D01*
X110956502Y-66535675D01*
X111034065Y-66409843D01*
X111048674Y-66378515D01*
X111106124Y-66300165D01*
X111189183Y-66249765D01*
X111285208Y-66234986D01*
X111379578Y-66258079D01*
X111451026Y-66308294D01*
X111485419Y-66342928D01*
X111485422Y-66342931D01*
X111495230Y-66352807D01*
X111506981Y-66360265D01*
X111506983Y-66360266D01*
X111535739Y-66378515D01*
X111646864Y-66449037D01*
X111659976Y-66453706D01*
X111659978Y-66453707D01*
X111709280Y-66471262D01*
X111816049Y-66509281D01*
X111829872Y-66510929D01*
X111829875Y-66510930D01*
X111919902Y-66521665D01*
X111994376Y-66530545D01*
X112008220Y-66529090D01*
X112008223Y-66529090D01*
X112096965Y-66519763D01*
X112172983Y-66511773D01*
X112192450Y-66505146D01*
X112329816Y-66458383D01*
X112329817Y-66458382D01*
X112342993Y-66453897D01*
X112408350Y-66413689D01*
X112484103Y-66367086D01*
X112484107Y-66367083D01*
X112495955Y-66359794D01*
X112624268Y-66234141D01*
X112633638Y-66219603D01*
X112690243Y-66131768D01*
X112721554Y-66083183D01*
X112782978Y-65914422D01*
X112800500Y-65775717D01*
X112800500Y-65129845D01*
X112785546Y-64996528D01*
X112726485Y-64826927D01*
X112631316Y-64674625D01*
X112504770Y-64547193D01*
X112455935Y-64516201D01*
X112364886Y-64458420D01*
X112353136Y-64450963D01*
X112340024Y-64446294D01*
X112340022Y-64446293D01*
X112290720Y-64428738D01*
X112183951Y-64390719D01*
X112170128Y-64389071D01*
X112170125Y-64389070D01*
X112080098Y-64378335D01*
X112005624Y-64369455D01*
X111991780Y-64370910D01*
X111991777Y-64370910D01*
X111903035Y-64380237D01*
X111827017Y-64388227D01*
X111813840Y-64392713D01*
X111813839Y-64392713D01*
X111670184Y-64441617D01*
X111670183Y-64441618D01*
X111657007Y-64446103D01*
X111645150Y-64453397D01*
X111645151Y-64453397D01*
X111515897Y-64532914D01*
X111515893Y-64532917D01*
X111504045Y-64540206D01*
X111494101Y-64549943D01*
X111494102Y-64549943D01*
X111448712Y-64594392D01*
X111367370Y-64647519D01*
X111271888Y-64665474D01*
X111176804Y-64645523D01*
X111096592Y-64590704D01*
X111049011Y-64522117D01*
X111033482Y-64488967D01*
X110955695Y-64363265D01*
X110937847Y-64340746D01*
X110833230Y-64236311D01*
X110810675Y-64218498D01*
X110684839Y-64140932D01*
X110658799Y-64128789D01*
X110517662Y-64081976D01*
X110491232Y-64076310D01*
X110406682Y-64067647D01*
X110394013Y-64067000D01*
X110278527Y-64067000D01*
X110258069Y-64071069D01*
X110254000Y-64091527D01*
X110254000Y-66808472D01*
X109746000Y-66808472D01*
X109746000Y-65728527D01*
X109741931Y-65708069D01*
X109721473Y-65704000D01*
X108916528Y-65704000D01*
X108896070Y-65708069D01*
X108892001Y-65728527D01*
X108892001Y-66118926D01*
X100200000Y-66118926D01*
X100200000Y-65171473D01*
X108892000Y-65171473D01*
X108896069Y-65191931D01*
X108916527Y-65196000D01*
X109721473Y-65196000D01*
X109741931Y-65191931D01*
X109746000Y-65171473D01*
X109746000Y-64091528D01*
X109741931Y-64071070D01*
X109721473Y-64067001D01*
X109606074Y-64067001D01*
X109593232Y-64067666D01*
X109507494Y-64076561D01*
X109481011Y-64082280D01*
X109339993Y-64129327D01*
X109313962Y-64141521D01*
X109188265Y-64219305D01*
X109165746Y-64237153D01*
X109061311Y-64341770D01*
X109043498Y-64364325D01*
X108965932Y-64490161D01*
X108953789Y-64516201D01*
X108906976Y-64657338D01*
X108901310Y-64683768D01*
X108892647Y-64768318D01*
X108892000Y-64780987D01*
X108892000Y-65171473D01*
X100200000Y-65171473D01*
X100200000Y-54045741D01*
X100200209Y-54042095D01*
X102145028Y-54042095D01*
X102145885Y-54051076D01*
X102145885Y-54051082D01*
X102157754Y-54175477D01*
X102170534Y-54309431D01*
X102172678Y-54318195D01*
X102172679Y-54318198D01*
X102212457Y-54480756D01*
X102234364Y-54570285D01*
X102335182Y-54819192D01*
X102339735Y-54826968D01*
X102339737Y-54826972D01*
X102377626Y-54891681D01*
X102470875Y-55050938D01*
X102476503Y-55057975D01*
X102476504Y-55057977D01*
X102528294Y-55122737D01*
X102638601Y-55260669D01*
X102834846Y-55443991D01*
X102842250Y-55449127D01*
X102842252Y-55449129D01*
X103048091Y-55591925D01*
X103055499Y-55597064D01*
X103063570Y-55601079D01*
X103063573Y-55601081D01*
X103287863Y-55712663D01*
X103295938Y-55716680D01*
X103551126Y-55800335D01*
X103560004Y-55801876D01*
X103560010Y-55801878D01*
X103808218Y-55844974D01*
X103815717Y-55846276D01*
X103882335Y-55849592D01*
X103897472Y-55850346D01*
X103897475Y-55850346D01*
X103900567Y-55850500D01*
X104068223Y-55850500D01*
X104072727Y-55850173D01*
X104072733Y-55850173D01*
X104131311Y-55845923D01*
X104267846Y-55836016D01*
X104377666Y-55811770D01*
X104521276Y-55780064D01*
X104521279Y-55780063D01*
X104530080Y-55778120D01*
X104765530Y-55688916D01*
X104772781Y-55686169D01*
X104772783Y-55686168D01*
X104781211Y-55682975D01*
X105015976Y-55552574D01*
X105229458Y-55389650D01*
X105417185Y-55197614D01*
X105494232Y-55091763D01*
X105569917Y-54987784D01*
X105569920Y-54987780D01*
X105575225Y-54980491D01*
X105700265Y-54742828D01*
X105708612Y-54719193D01*
X105786685Y-54498107D01*
X105786685Y-54498106D01*
X105789688Y-54489603D01*
X105791432Y-54480756D01*
X105839876Y-54234973D01*
X105839877Y-54234966D01*
X105841620Y-54226122D01*
X105854972Y-53957905D01*
X105829466Y-53690569D01*
X105808725Y-53605807D01*
X105767783Y-53438488D01*
X105767782Y-53438484D01*
X105765636Y-53429715D01*
X105664818Y-53180808D01*
X105654821Y-53163733D01*
X105573834Y-53025419D01*
X105529125Y-52949062D01*
X105518962Y-52936353D01*
X105432131Y-52827777D01*
X105361399Y-52739331D01*
X105165154Y-52556009D01*
X105150558Y-52545883D01*
X104951909Y-52408075D01*
X104951908Y-52408074D01*
X104944501Y-52402936D01*
X104936430Y-52398921D01*
X104936427Y-52398919D01*
X104712137Y-52287337D01*
X104712134Y-52287336D01*
X104704062Y-52283320D01*
X104448874Y-52199665D01*
X104439996Y-52198124D01*
X104439990Y-52198122D01*
X104191782Y-52155026D01*
X104191781Y-52155026D01*
X104184283Y-52153724D01*
X104117665Y-52150408D01*
X104102528Y-52149654D01*
X104102525Y-52149654D01*
X104099433Y-52149500D01*
X103931777Y-52149500D01*
X103927273Y-52149827D01*
X103927267Y-52149827D01*
X103868689Y-52154077D01*
X103732154Y-52163984D01*
X103723354Y-52165927D01*
X103723353Y-52165927D01*
X103478724Y-52219936D01*
X103478721Y-52219937D01*
X103469920Y-52221880D01*
X103315166Y-52280511D01*
X103229743Y-52312875D01*
X103218789Y-52317025D01*
X102984024Y-52447426D01*
X102770542Y-52610350D01*
X102582815Y-52802386D01*
X102577509Y-52809676D01*
X102577507Y-52809678D01*
X102432285Y-53009192D01*
X102424775Y-53019509D01*
X102299735Y-53257172D01*
X102296732Y-53265675D01*
X102296731Y-53265678D01*
X102224716Y-53469607D01*
X102210312Y-53510397D01*
X102208569Y-53519241D01*
X102208568Y-53519244D01*
X102160124Y-53765027D01*
X102160123Y-53765034D01*
X102158380Y-53773878D01*
X102157932Y-53782881D01*
X102157931Y-53782888D01*
X102157258Y-53796408D01*
X102145028Y-54042095D01*
X100200209Y-54042095D01*
X100201633Y-54017271D01*
X100201957Y-54014458D01*
X100205142Y-54000716D01*
X100205143Y-54000000D01*
X100203097Y-53991030D01*
X100202065Y-53957950D01*
X100202068Y-53957905D01*
X100217698Y-53639753D01*
X100220093Y-53615436D01*
X100271221Y-53270758D01*
X100275988Y-53246792D01*
X100360656Y-52908779D01*
X100367750Y-52885395D01*
X100485138Y-52557319D01*
X100494488Y-52534744D01*
X100643476Y-52219735D01*
X100654987Y-52198201D01*
X100834129Y-51899321D01*
X100847698Y-51879014D01*
X101055284Y-51599116D01*
X101070764Y-51580254D01*
X101304779Y-51322058D01*
X101322058Y-51304779D01*
X101417315Y-51218443D01*
X101580254Y-51070764D01*
X101599116Y-51055284D01*
X101879014Y-50847698D01*
X101899321Y-50834129D01*
X102198201Y-50654987D01*
X102219735Y-50643476D01*
X102534752Y-50494484D01*
X102557319Y-50485138D01*
X102885395Y-50367750D01*
X102908779Y-50360656D01*
X103246792Y-50275988D01*
X103270758Y-50271221D01*
X103615436Y-50220093D01*
X103639754Y-50217698D01*
X103830507Y-50208327D01*
X103987787Y-50200600D01*
X104012213Y-50200600D01*
X104169493Y-50208327D01*
X104360246Y-50217698D01*
X104384564Y-50220093D01*
X104729242Y-50271221D01*
X104753208Y-50275988D01*
X105091221Y-50360656D01*
X105114605Y-50367750D01*
X105442681Y-50485138D01*
X105465248Y-50494484D01*
X105780265Y-50643476D01*
X105801799Y-50654987D01*
X106100679Y-50834129D01*
X106120986Y-50847698D01*
X106400884Y-51055284D01*
X106419746Y-51070764D01*
X106582685Y-51218443D01*
X106677942Y-51304779D01*
X106695221Y-51322058D01*
X106929236Y-51580254D01*
X106944716Y-51599116D01*
X107152302Y-51879014D01*
X107165871Y-51899321D01*
X107345013Y-52198201D01*
X107356524Y-52219735D01*
X107505512Y-52534744D01*
X107514862Y-52557319D01*
X107632250Y-52885395D01*
X107639344Y-52908779D01*
X107724012Y-53246792D01*
X107728779Y-53270758D01*
X107779907Y-53615436D01*
X107782302Y-53639754D01*
X107798478Y-53969018D01*
X107799080Y-53981277D01*
X107794857Y-53999642D01*
X107799088Y-54018342D01*
X107798591Y-54035103D01*
X107800000Y-54049537D01*
X107800000Y-54954259D01*
X107798367Y-54982729D01*
X107798043Y-54985542D01*
X107794858Y-54999284D01*
X107794857Y-55000000D01*
X107795832Y-55004274D01*
X107795849Y-55004602D01*
X107795849Y-55004604D01*
X107811531Y-55303823D01*
X107813162Y-55334950D01*
X107865632Y-55666231D01*
X107867320Y-55672532D01*
X107867321Y-55672535D01*
X107870901Y-55685896D01*
X107952442Y-55990212D01*
X108072643Y-56303344D01*
X108224915Y-56602196D01*
X108407593Y-56883494D01*
X108618673Y-57144156D01*
X108855844Y-57381327D01*
X109116506Y-57592407D01*
X109397804Y-57775085D01*
X109696656Y-57927357D01*
X110009788Y-58047558D01*
X110235114Y-58107934D01*
X110327465Y-58132679D01*
X110327468Y-58132680D01*
X110333769Y-58134368D01*
X110665050Y-58186838D01*
X110671549Y-58187179D01*
X110671553Y-58187179D01*
X110804878Y-58194166D01*
X110994892Y-58204124D01*
X110999284Y-58205142D01*
X111000000Y-58205143D01*
X111003847Y-58204266D01*
X111004281Y-58204302D01*
X111004274Y-58204168D01*
X111328446Y-58187179D01*
X111328449Y-58187179D01*
X111334950Y-58186838D01*
X111666231Y-58134368D01*
X111672532Y-58132680D01*
X111672535Y-58132679D01*
X111764886Y-58107934D01*
X111990212Y-58047558D01*
X112303344Y-57927357D01*
X112602196Y-57775085D01*
X112883494Y-57592407D01*
X113144156Y-57381327D01*
X113381327Y-57144156D01*
X113592407Y-56883494D01*
X113775085Y-56602196D01*
X113927357Y-56303344D01*
X114047558Y-55990212D01*
X114129099Y-55685896D01*
X114132679Y-55672535D01*
X114132680Y-55672532D01*
X114134368Y-55666231D01*
X114186838Y-55334950D01*
X114188504Y-55303172D01*
X114197959Y-55122737D01*
X114204124Y-55005106D01*
X114205142Y-55000716D01*
X114205143Y-55000000D01*
X114202016Y-54986292D01*
X114201545Y-54982082D01*
X114200000Y-54954390D01*
X114200000Y-52022723D01*
X114201268Y-52022723D01*
X114200705Y-52019657D01*
X114205143Y-52000358D01*
X114201894Y-51985999D01*
X114202640Y-51982754D01*
X114201137Y-51982655D01*
X114208965Y-51863217D01*
X114214332Y-51781334D01*
X114218583Y-51749047D01*
X114258151Y-51550127D01*
X114266581Y-51518666D01*
X114331770Y-51326628D01*
X114344233Y-51296538D01*
X114433936Y-51114637D01*
X114450222Y-51086429D01*
X114562895Y-50917802D01*
X114582723Y-50891961D01*
X114716448Y-50739478D01*
X114739478Y-50716448D01*
X114891961Y-50582723D01*
X114917802Y-50562895D01*
X115086429Y-50450222D01*
X115114637Y-50433936D01*
X115296538Y-50344233D01*
X115326628Y-50331770D01*
X115518666Y-50266581D01*
X115550127Y-50258151D01*
X115749047Y-50218583D01*
X115781334Y-50214332D01*
X115901315Y-50206468D01*
X115980750Y-50201262D01*
X115980751Y-50201262D01*
X115982317Y-50201159D01*
X115999642Y-50205143D01*
X116018341Y-50200912D01*
X116035099Y-50201409D01*
X116049536Y-50200000D01*
X120682313Y-50200000D01*
X120777601Y-50218954D01*
G37*
%TD.AperFunction*%
%TD*%
M02*
