M48
; DRILL file {KiCad (6.0.2)} date Mon May 16 10:21:09 2022
; FORMAT={-:-/ absolute / inch / decimal}
; #@! TF.CreationDate,2022-05-16T10:21:09+01:00
; #@! TF.GenerationSoftware,Kicad,Pcbnew,(6.0.2)
; #@! TF.FileFunction,MixedPlating,1,2
FMAT,2
INCH
; #@! TA.AperFunction,Plated,PTH,ViaDrill
T1C0.0118
; #@! TA.AperFunction,Plated,PTH,ComponentDrill
T2C0.0236
; #@! TA.AperFunction,Plated,PTH,ComponentDrill
T3C0.0276
; #@! TA.AperFunction,Plated,PTH,ComponentDrill
T4C0.0295
; #@! TA.AperFunction,Plated,PTH,ComponentDrill
T5C0.0335
; #@! TA.AperFunction,Plated,PTH,ComponentDrill
T6C0.0394
; #@! TA.AperFunction,Plated,PTH,ComponentDrill
T7C0.0433
; #@! TA.AperFunction,NonPlated,NPTH,ComponentDrill
T8C0.1260
%
G90
G05
T1
X4.499Y-2.9098
X4.503Y-3.1146
X4.6171Y-2.8996
X4.7638Y-3.812
X4.8425Y-3.812
X4.8701Y-2.087
X4.8701Y-2.1776
X4.9213Y-3.812
X5.0Y-3.812
X5.0787Y-3.812
X5.2421Y-2.9921
X5.25Y-2.8346
T4
X4.3307Y-2.5768
X4.4094Y-2.5768
X5.3937Y-2.5768
X5.4724Y-2.5768
X5.5512Y-2.5768
T5
X4.8228Y-2.1324
X5.0197Y-2.1324
T6
X4.7224Y-2.5476
X4.7224Y-2.6476
X4.8224Y-2.5476
X4.8224Y-2.6476
X4.9224Y-2.5476
X4.9224Y-2.6476
X5.0224Y-2.5476
X5.0224Y-2.6476
X5.1224Y-2.5476
X5.1224Y-2.6476
T7
X4.0453Y-3.2972
X4.0453Y-3.5531
X4.2224Y-3.2972
X4.2224Y-3.5531
X4.3602Y-3.2972
X4.3602Y-3.5531
X4.5374Y-3.2972
X4.5374Y-3.5531
X4.6752Y-3.2972
X4.6752Y-3.5531
X4.8524Y-3.2972
X4.8524Y-3.5531
X4.9902Y-3.2972
X4.9902Y-3.5531
X5.1673Y-3.2972
X5.1673Y-3.5531
X5.3051Y-3.2972
X5.3051Y-3.5531
X5.4823Y-3.2972
X5.4823Y-3.5531
X5.6201Y-3.2972
X5.6201Y-3.5531
X5.7972Y-3.2972
X5.7972Y-3.5531
T8
X4.0945Y-2.126
X4.0945Y-3.7795
X5.748Y-2.126
X5.748Y-3.7795
T2
G00X4.7835Y-2.0399
M15
G01X4.7835Y-2.0123
M16
G05
G00X4.8386Y-2.9413
M15
G01X4.8465Y-2.9413
M16
G05
G00X4.8386Y-3.0398
M15
G01X4.8465Y-3.0398
M16
G05
G00X4.9173Y-2.9413
M15
G01X4.9252Y-2.9413
M16
G05
G00X4.9173Y-3.0398
M15
G01X4.9252Y-3.0398
M16
G05
G00X4.9961Y-2.9413
M15
G01X5.0039Y-2.9413
M16
G05
G00X4.9961Y-3.0398
M15
G01X5.0039Y-3.0398
M16
G05
G00X5.0591Y-2.0123
M15
G01X5.0591Y-2.0399
M16
G05
T3
G00X4.7598Y-2.9748
M15
G01X4.7598Y-3.0063
M16
G05
G00X5.0827Y-2.9748
M15
G01X5.0827Y-3.0063
M16
G05
T0
M30
