%TF.GenerationSoftware,KiCad,Pcbnew,(6.0.2)*%
%TF.CreationDate,2022-05-15T12:29:41+01:00*%
%TF.ProjectId,led-tester,6c65642d-7465-4737-9465-722e6b696361,rev?*%
%TF.SameCoordinates,Original*%
%TF.FileFunction,Legend,Bot*%
%TF.FilePolarity,Positive*%
%FSLAX46Y46*%
G04 Gerber Fmt 4.6, Leading zero omitted, Abs format (unit mm)*
G04 Created by KiCad (PCBNEW (6.0.2)) date 2022-05-15 12:29:41*
%MOMM*%
%LPD*%
G01*
G04 APERTURE LIST*
%ADD10C,0.150000*%
%ADD11C,0.120000*%
G04 APERTURE END LIST*
D10*
%TO.C,J3*%
X140642857Y-67452380D02*
X140309523Y-68452380D01*
X139976190Y-67452380D01*
X139452380Y-67452380D02*
X139261904Y-67452380D01*
X139166666Y-67500000D01*
X139071428Y-67595238D01*
X139023809Y-67785714D01*
X139023809Y-68119047D01*
X139071428Y-68309523D01*
X139166666Y-68404761D01*
X139261904Y-68452380D01*
X139452380Y-68452380D01*
X139547619Y-68404761D01*
X139642857Y-68309523D01*
X139690476Y-68119047D01*
X139690476Y-67785714D01*
X139642857Y-67595238D01*
X139547619Y-67500000D01*
X139452380Y-67452380D01*
X138119047Y-68452380D02*
X138595238Y-68452380D01*
X138595238Y-67452380D01*
X137928571Y-67452380D02*
X137357142Y-67452380D01*
X137642857Y-68452380D02*
X137642857Y-67452380D01*
%TO.C,J2*%
X112333333Y-68452380D02*
X112333333Y-67452380D01*
X111952380Y-67452380D01*
X111857142Y-67500000D01*
X111809523Y-67547619D01*
X111761904Y-67642857D01*
X111761904Y-67785714D01*
X111809523Y-67880952D01*
X111857142Y-67928571D01*
X111952380Y-67976190D01*
X112333333Y-67976190D01*
X111428571Y-67452380D02*
X111190476Y-68452380D01*
X111000000Y-67738095D01*
X110809523Y-68452380D01*
X110571428Y-67452380D01*
X109619047Y-68452380D02*
X109952380Y-67976190D01*
X110190476Y-68452380D02*
X110190476Y-67452380D01*
X109809523Y-67452380D01*
X109714285Y-67500000D01*
X109666666Y-67547619D01*
X109619047Y-67642857D01*
X109619047Y-67785714D01*
X109666666Y-67880952D01*
X109714285Y-67928571D01*
X109809523Y-67976190D01*
X110190476Y-67976190D01*
D11*
%TO.C,J3*%
X141300000Y-61350000D02*
X141300000Y-62950000D01*
X134940000Y-59090000D02*
X143060000Y-59090000D01*
X143060000Y-65310000D02*
X142140000Y-65310000D01*
X142140000Y-65310000D02*
X141860000Y-65310000D01*
X135860000Y-66910000D02*
X134940000Y-66910000D01*
X142300000Y-61350000D02*
X141300000Y-61350000D01*
X143060000Y-66910000D02*
X142140000Y-66910000D01*
X136200000Y-61350000D02*
X136200000Y-59090000D01*
X141300000Y-62950000D02*
X142300000Y-62950000D01*
X136700000Y-62950000D02*
X135700000Y-62950000D01*
X136140000Y-65310000D02*
X136140000Y-66525000D01*
X142140000Y-66910000D02*
X142140000Y-65310000D01*
X134940000Y-65310000D02*
X135860000Y-65310000D01*
X143060000Y-59090000D02*
X143060000Y-66910000D01*
X140500000Y-63450000D02*
X140500000Y-59090000D01*
X134940000Y-66910000D02*
X134940000Y-59090000D01*
X142300000Y-62950000D02*
X142300000Y-61350000D01*
X135700000Y-62950000D02*
X135700000Y-61350000D01*
X135860000Y-65310000D02*
X135860000Y-66910000D01*
X137500000Y-59090000D02*
X137500000Y-63450000D01*
X136700000Y-61350000D02*
X136700000Y-59090000D01*
X135700000Y-61350000D02*
X136700000Y-61350000D01*
X136140000Y-65310000D02*
X135860000Y-65310000D01*
X136700000Y-61350000D02*
X136700000Y-62950000D01*
X137500000Y-63450000D02*
X140500000Y-63450000D01*
%TO.C,J2*%
X114060000Y-65310000D02*
X113140000Y-65310000D01*
X108860000Y-66910000D02*
X107940000Y-66910000D01*
X111500000Y-63450000D02*
X111500000Y-59090000D01*
X109700000Y-62950000D02*
X108700000Y-62950000D01*
X109140000Y-65310000D02*
X109140000Y-66525000D01*
X113300000Y-61350000D02*
X112300000Y-61350000D01*
X107940000Y-66910000D02*
X107940000Y-59090000D01*
X110500000Y-59090000D02*
X110500000Y-63450000D01*
X108700000Y-61350000D02*
X109700000Y-61350000D01*
X110500000Y-63450000D02*
X111500000Y-63450000D01*
X114060000Y-66910000D02*
X113140000Y-66910000D01*
X114060000Y-59090000D02*
X114060000Y-66910000D01*
X112300000Y-61350000D02*
X112300000Y-62950000D01*
X113140000Y-66910000D02*
X113140000Y-65310000D01*
X109700000Y-61350000D02*
X109700000Y-62950000D01*
X112300000Y-62950000D02*
X113300000Y-62950000D01*
X113300000Y-62950000D02*
X113300000Y-61350000D01*
X109140000Y-65310000D02*
X108860000Y-65310000D01*
X108860000Y-65310000D02*
X108860000Y-66910000D01*
X109700000Y-61350000D02*
X109700000Y-59090000D01*
X109200000Y-61350000D02*
X109200000Y-59090000D01*
X107940000Y-65310000D02*
X108860000Y-65310000D01*
X113140000Y-65310000D02*
X112860000Y-65310000D01*
X108700000Y-62950000D02*
X108700000Y-61350000D01*
X107940000Y-59090000D02*
X114060000Y-59090000D01*
%TD*%
M02*
