%TF.GenerationSoftware,KiCad,Pcbnew,(6.0.2)*%
%TF.CreationDate,2022-05-15T12:29:41+01:00*%
%TF.ProjectId,led-tester,6c65642d-7465-4737-9465-722e6b696361,rev?*%
%TF.SameCoordinates,Original*%
%TF.FileFunction,Soldermask,Bot*%
%TF.FilePolarity,Negative*%
%FSLAX46Y46*%
G04 Gerber Fmt 4.6, Leading zero omitted, Abs format (unit mm)*
G04 Created by KiCad (PCBNEW (6.0.2)) date 2022-05-15 12:29:41*
%MOMM*%
%LPD*%
G01*
G04 APERTURE LIST*
G04 Aperture macros list*
%AMRoundRect*
0 Rectangle with rounded corners*
0 $1 Rounding radius*
0 $2 $3 $4 $5 $6 $7 $8 $9 X,Y pos of 4 corners*
0 Add a 4 corners polygon primitive as box body*
4,1,4,$2,$3,$4,$5,$6,$7,$8,$9,$2,$3,0*
0 Add four circle primitives for the rounded corners*
1,1,$1+$1,$2,$3*
1,1,$1+$1,$4,$5*
1,1,$1+$1,$6,$7*
1,1,$1+$1,$8,$9*
0 Add four rect primitives between the rounded corners*
20,1,$1+$1,$2,$3,$4,$5,0*
20,1,$1+$1,$4,$5,$6,$7,0*
20,1,$1+$1,$6,$7,$8,$9,0*
20,1,$1+$1,$8,$9,$2,$3,0*%
G04 Aperture macros list end*
%ADD10C,2.000000*%
%ADD11C,1.450000*%
%ADD12O,1.200000X1.900000*%
%ADD13C,3.200000*%
%ADD14R,1.700000X1.700000*%
%ADD15O,1.700000X1.700000*%
%ADD16O,1.200000X2.000000*%
%ADD17O,1.300000X1.100000*%
%ADD18RoundRect,0.250000X-0.350000X-0.625000X0.350000X-0.625000X0.350000X0.625000X-0.350000X0.625000X0*%
%ADD19O,1.200000X1.750000*%
G04 APERTURE END LIST*
D10*
%TO.C,SW2*%
X102750000Y-83750000D03*
X102750000Y-90250000D03*
X107250000Y-90250000D03*
X107250000Y-83750000D03*
%TD*%
D11*
%TO.C,J1*%
X127500000Y-54162500D03*
D12*
X128500000Y-51462500D03*
D11*
X122500000Y-54162500D03*
D12*
X121500000Y-51462500D03*
%TD*%
D13*
%TO.C,H1*%
X104000000Y-54000000D03*
%TD*%
D10*
%TO.C,SW3*%
X110750000Y-83750000D03*
X110750000Y-90250000D03*
X115250000Y-83750000D03*
X115250000Y-90250000D03*
%TD*%
D14*
%TO.C,J4*%
X119950000Y-64710000D03*
D15*
X119950000Y-67250000D03*
X122490000Y-64710000D03*
X122490000Y-67250000D03*
X125030000Y-64710000D03*
X125030000Y-67250000D03*
X127570000Y-64710000D03*
X127570000Y-67250000D03*
X130110000Y-64710000D03*
X130110000Y-67250000D03*
%TD*%
D10*
%TO.C,SW5*%
X126750000Y-83750000D03*
X126750000Y-90250000D03*
X131250000Y-83750000D03*
X131250000Y-90250000D03*
%TD*%
D13*
%TO.C,H3*%
X146000000Y-54000000D03*
%TD*%
D10*
%TO.C,SW4*%
X118750000Y-90250000D03*
X118750000Y-83750000D03*
X123250000Y-90250000D03*
X123250000Y-83750000D03*
%TD*%
D16*
%TO.C,SW1*%
X129100000Y-75960000D03*
X120900000Y-75960000D03*
D17*
X123000000Y-74710000D03*
X125000000Y-74710000D03*
X127000000Y-74710000D03*
X123000000Y-77210000D03*
X125000000Y-77210000D03*
X127000000Y-77210000D03*
%TD*%
D10*
%TO.C,SW6*%
X134750000Y-83750000D03*
X134750000Y-90250000D03*
X139250000Y-83750000D03*
X139250000Y-90250000D03*
%TD*%
%TO.C,SW7*%
X142750000Y-90250000D03*
X142750000Y-83750000D03*
X147250000Y-90250000D03*
X147250000Y-83750000D03*
%TD*%
D13*
%TO.C,H2*%
X146000000Y-96000000D03*
%TD*%
%TO.C,H4*%
X104000000Y-96000000D03*
%TD*%
D18*
%TO.C,J3*%
X137000000Y-65450000D03*
D19*
X139000000Y-65450000D03*
X141000000Y-65450000D03*
%TD*%
D18*
%TO.C,J2*%
X110000000Y-65450000D03*
D19*
X112000000Y-65450000D03*
%TD*%
M02*
